<svg width="176" height="56" viewBox="0 0 176 56" fill="none" xmlns="http://www.w3.org/2000/svg">
<rect x="0.9375" y="0.4375" width="174.125" height="55.125" rx="13.5625" fill="url(#paint0_linear)" stroke="url(#paint1_linear)" stroke-width="0.875"/>
<path fill-rule="evenodd" clip-rule="evenodd" d="M22.375 27.5099V14.6474C22.375 13.9124 22.9875 13.2999 23.6 13.2999C24.2125 13.2999 24.4575 13.4224 24.825 13.6674L48.4675 26.6524C48.9575 26.8974 49.2025 27.2649 49.2025 27.6324C49.2025 27.9999 48.9575 28.3674 48.4675 28.6124L24.825 41.5974C24.58 41.7199 24.2125 41.9649 23.6 41.9649C22.9875 41.9649 22.375 41.3524 22.375 40.6174V27.5099Z" fill="url(#paint2_linear)"/>
<path fill-rule="evenodd" clip-rule="evenodd" d="M37.6874 27.6324L23.3549 13.2999C23.4774 13.2999 23.4774 13.2999 23.5999 13.2999C24.2124 13.2999 24.4574 13.4224 24.8249 13.6674L42.2199 23.2224L37.6874 27.6324Z" fill="url(#paint3_linear)"/>
<path fill-rule="evenodd" clip-rule="evenodd" d="M42.0975 31.9198L37.6875 27.5098L42.22 22.9773L48.4675 26.4073C48.9575 26.6523 49.2025 27.0198 49.2025 27.3873C49.2025 27.7548 48.9575 28.1223 48.4675 28.3673L42.0975 31.9198Z" fill="url(#paint4_linear)"/>
<path fill-rule="evenodd" clip-rule="evenodd" d="M23.4773 41.7201L37.6873 27.5101L42.0973 31.9201L24.8248 41.3526C24.4573 41.5976 24.2123 41.7201 23.4773 41.7201C23.5998 41.7201 23.5998 41.7201 23.4773 41.7201Z" fill="url(#paint5_linear)"/>
<path fill-rule="evenodd" clip-rule="evenodd" d="M61.5749 12.3201C59.6149 12.3201 58.0224 13.6676 58.0224 15.8726C58.0224 17.9551 59.6149 19.4251 61.6974 19.4251C62.9224 19.4251 63.9024 18.9351 64.5149 18.2001V15.6276H61.2074V16.7301H63.1674V17.8326C62.9224 18.0776 62.3099 18.4451 61.5749 18.4451C60.2274 18.4451 59.2474 17.4651 59.2474 15.9951C59.2474 14.5251 60.2274 13.5451 61.5749 13.5451C62.4324 13.5451 63.0449 13.9126 63.4124 14.4026L64.3924 13.7901C63.7799 12.9326 62.9224 12.3201 61.5749 12.3201ZM65.985 12.4427V19.3027L70.64 19.4252V18.3227H67.0875V16.3627H70.5175V15.2602H67.0875V13.5452H70.64V12.4427H65.985ZM74.0699 19.3027V13.5452H71.9874V12.4427H77.3774V13.5452H75.2949V19.3027H74.0699ZM81.5423 12.4427V19.3027H82.7673V12.4427H81.5423ZM86.0751 19.3027V13.5452H83.9926V12.4427H89.3825V13.5452H87.3V19.3027H86.0751ZM96.8548 12.3201C94.7723 12.3201 93.3022 13.7901 93.3022 15.8726C93.3022 17.8326 94.7723 19.4251 96.8548 19.4251C98.9373 19.4251 100.407 17.9551 100.407 15.8726C100.407 13.7901 98.9373 12.3201 96.8548 12.3201ZM96.7323 13.4226C98.2023 13.4226 99.0597 14.4026 99.0597 15.8726C99.0597 17.2201 98.2023 18.3226 96.7323 18.3226C95.2622 18.3226 94.4048 17.3426 94.4048 15.8726C94.4048 14.5251 95.3848 13.4226 96.7323 13.4226ZM106.532 19.3027L102.98 14.4027V19.3027H101.755V12.4427H102.98L106.532 17.2202V12.4427H107.757V19.3027H106.532ZM96.1198 43.19C96.3648 43.68 96.8548 44.5375 97.4673 45.0275C98.3248 45.7625 99.4273 46.13 100.53 46.2525C101.51 46.2525 102.612 46.0075 103.347 45.395C104.45 44.5375 105.307 43.19 105.307 40.8625V31.675H103.225V32.5325C101.632 30.8175 98.9373 31.0625 97.0998 32.9C95.2623 34.86 95.2623 38.1675 97.0998 40.1275C98.8148 42.0875 101.877 42.3325 103.347 40.495V41.23C103.347 42.0875 103.102 42.7 102.735 43.3125C102.245 43.925 101.387 44.2925 100.652 44.2925C99.9173 44.2925 99.1823 43.8025 98.6923 43.3125L98.6923 43.3124C98.4473 42.9449 98.2023 42.5775 98.0798 42.3325L96.1198 43.19ZM150.877 40.6175L148.795 45.5175H150.877L156.512 32.165H154.43L151.857 38.1675L149.285 32.165H147.202L150.877 40.6175ZM138.015 38.535C138.015 39.3925 138.26 40.25 138.872 40.8625C139.485 41.475 140.587 41.72 141.322 41.8425C141.935 41.8425 142.547 41.72 143.037 41.475C143.117 41.4218 143.203 41.3686 143.29 41.3142C143.606 41.1178 143.948 40.9052 144.14 40.6175V41.475H146.222V36.33C146.222 34.9825 145.977 34.0025 145.242 33.145C144.507 32.2875 143.282 31.92 142.057 31.92C139.607 31.92 138.627 33.5125 138.26 34.37L140.097 35.105C140.465 34.2475 141.322 33.7575 142.18 33.7575C143.16 33.7575 144.385 34.37 144.385 35.84C143.772 35.4725 143.037 35.35 142.18 35.35C140.832 35.35 139.607 35.7175 138.75 36.575C138.26 37.065 138.015 37.8 138.015 38.535ZM78.7248 31.3075C75.4173 31.3075 73.5798 34.0025 73.5798 36.4525C73.5798 38.9025 75.4173 41.5975 78.7248 41.5975C82.0323 41.5975 83.8698 38.9025 83.8698 36.4525C83.8698 34.0025 81.9098 31.3075 78.7248 31.3075ZM89.7498 31.3075C86.4423 31.3075 84.6048 34.0025 84.6048 36.4525C84.6048 38.9025 86.5648 41.5975 89.7498 41.5975C93.0573 41.5975 94.8948 38.9025 94.8948 36.4525C94.8948 34.0025 92.9348 31.3075 89.7498 31.3075ZM59.8598 27.8775C56.7973 31.0625 56.6748 36.085 59.7373 39.1475C61.3298 40.74 63.5348 41.475 65.7398 41.5975C67.6998 41.5975 69.6598 40.8625 71.0073 39.515C72.2323 38.29 72.9673 36.4525 72.9673 34.615C72.9673 34.0025 72.9673 33.39 72.8448 32.9H65.6173V35.105H70.7623C70.6398 36.085 70.3948 37.065 69.6598 37.8C67.4548 40.1275 63.7798 40.005 61.5748 37.6775C59.3698 35.35 59.3698 31.7975 61.5748 29.47C63.6573 27.265 67.2098 27.1425 69.4148 29.3475L70.8848 27.755C69.4148 26.285 67.4548 25.55 65.4948 25.55C63.4123 25.55 61.4523 26.285 59.8598 27.8775ZM111.555 32.655C109.717 34.7375 109.717 38.045 111.555 40.005C113.392 41.965 116.945 41.965 119.027 39.8825C119.15 39.6375 119.395 39.3925 119.64 39.1475L117.802 37.9225C117.067 39.025 116.332 39.3925 115.23 39.3925C114.005 39.3925 113.147 38.6575 112.78 37.8L119.517 34.9825C119.15 34.125 118.782 33.2675 118.17 32.655C116.455 30.695 113.392 30.695 111.555 32.655ZM124.295 27.8775V41.3525H126.5V35.9625H129.195C131.522 35.9625 133.36 34.125 133.36 31.92C133.36 29.715 131.277 27.8775 128.705 27.8775H124.295ZM134.585 27.8775V41.475H136.667V27.8775H134.585ZM106.9 26.04V41.23H109.105V26.04H106.9ZM142.302 36.9425C143.037 36.9425 143.772 37.065 144.262 37.4325C144.262 38.9025 142.915 39.8825 141.69 39.8825C140.832 39.8825 139.975 39.3925 139.975 38.535C139.975 37.6775 140.832 36.9425 142.302 36.9425ZM78.7248 33.39C80.5623 33.39 81.5423 34.9825 81.5423 36.4525C81.5423 37.9225 80.4398 39.515 78.7248 39.515C76.8873 39.515 75.9073 37.9225 75.9073 36.4525C75.9073 34.9825 76.8873 33.39 78.7248 33.39ZM89.7498 33.39C91.5873 33.39 92.5673 34.9825 92.5673 36.4525C92.5673 37.9225 91.5873 39.515 89.7498 39.515C87.9123 39.515 86.9323 37.9225 86.9323 36.4525C86.9323 34.9825 87.9123 33.39 89.7498 33.39ZM103.592 36.9425C103.47 37.065 103.47 37.1875 103.47 37.31C102.98 38.6575 102 39.515 101.02 39.3925C99.4273 39.3925 98.2023 38.045 98.2023 36.33C98.2023 34.7375 99.4273 33.2675 100.897 33.2675C102 33.2675 103.102 34.125 103.47 35.35C103.47 35.4112 103.5 35.5031 103.531 35.595C103.562 35.6868 103.592 35.7787 103.592 35.84V35.9625V36.4525V36.9425ZM116.945 34.2475L112.412 36.2075C112.167 35.2275 113.27 33.2675 115.107 33.145C115.72 33.145 116.455 33.39 116.945 34.2475ZM128.827 29.96C130.175 29.96 131.155 30.8175 131.155 32.0425C131.155 33.2675 130.175 34.2475 128.95 34.2475H126.377V29.96H128.827Z" fill="url(#paint6_linear)"/>
<path fill-rule="evenodd" clip-rule="evenodd" d="M61.5749 12.3201C59.6149 12.3201 58.0224 13.6676 58.0224 15.8726C58.0224 17.9551 59.6149 19.4251 61.6974 19.4251C62.9224 19.4251 63.9024 18.9351 64.5149 18.2001V15.6276H61.2074V16.7301H63.1674V17.8326C62.9224 18.0776 62.3099 18.4451 61.5749 18.4451C60.2274 18.4451 59.2474 17.4651 59.2474 15.9951C59.2474 14.5251 60.2274 13.5451 61.5749 13.5451C62.4324 13.5451 63.0449 13.9126 63.4124 14.4026L64.3924 13.7901C63.7799 12.9326 62.9224 12.3201 61.5749 12.3201ZM65.985 12.4427V19.3027L70.64 19.4252V18.3227H67.0875V16.3627H70.5175V15.2602H67.0875V13.5452H70.64V12.4427H65.985ZM74.0699 19.3027V13.5452H71.9874V12.4427H77.3774V13.5452H75.2949V19.3027H74.0699ZM81.5423 12.4427V19.3027H82.7673V12.4427H81.5423ZM86.0751 19.3027V13.5452H83.9926V12.4427H89.3825V13.5452H87.3V19.3027H86.0751ZM96.8548 12.3201C94.7723 12.3201 93.3022 13.7901 93.3022 15.8726C93.3022 17.8326 94.7723 19.4251 96.8548 19.4251C98.9373 19.4251 100.407 17.9551 100.407 15.8726C100.407 13.7901 98.9373 12.3201 96.8548 12.3201ZM96.7323 13.4226C98.2023 13.4226 99.0597 14.4026 99.0597 15.8726C99.0597 17.2201 98.2023 18.3226 96.7323 18.3226C95.2622 18.3226 94.4048 17.3426 94.4048 15.8726C94.4048 14.5251 95.3848 13.4226 96.7323 13.4226ZM106.532 19.3027L102.98 14.4027V19.3027H101.755V12.4427H102.98L106.532 17.2202V12.4427H107.757V19.3027H106.532ZM96.1198 43.19C96.3648 43.68 96.8548 44.5375 97.4673 45.0275C98.3248 45.7625 99.4273 46.13 100.53 46.2525C101.51 46.2525 102.612 46.0075 103.347 45.395C104.45 44.5375 105.307 43.19 105.307 40.8625V31.675H103.225V32.5325C101.632 30.8175 98.9373 31.0625 97.0998 32.9C95.2623 34.86 95.2623 38.1675 97.0998 40.1275C98.8148 42.0875 101.877 42.3325 103.347 40.495V41.23C103.347 42.0875 103.102 42.7 102.735 43.3125C102.245 43.925 101.387 44.2925 100.652 44.2925C99.9173 44.2925 99.1823 43.8025 98.6923 43.3125L98.6923 43.3124C98.4473 42.9449 98.2023 42.5775 98.0798 42.3325L96.1198 43.19ZM150.877 40.6175L148.795 45.5175H150.877L156.512 32.165H154.43L151.857 38.1675L149.285 32.165H147.202L150.877 40.6175ZM138.015 38.535C138.015 39.3925 138.26 40.25 138.872 40.8625C139.485 41.475 140.587 41.72 141.322 41.8425C141.935 41.8425 142.547 41.72 143.037 41.475C143.117 41.4218 143.203 41.3686 143.29 41.3142C143.606 41.1178 143.948 40.9052 144.14 40.6175V41.475H146.222V36.33C146.222 34.9825 145.977 34.0025 145.242 33.145C144.507 32.2875 143.282 31.92 142.057 31.92C139.607 31.92 138.627 33.5125 138.26 34.37L140.097 35.105C140.465 34.2475 141.322 33.7575 142.18 33.7575C143.16 33.7575 144.385 34.37 144.385 35.84C143.772 35.4725 143.037 35.35 142.18 35.35C140.832 35.35 139.607 35.7175 138.75 36.575C138.26 37.065 138.015 37.8 138.015 38.535ZM78.7248 31.3075C75.4173 31.3075 73.5798 34.0025 73.5798 36.4525C73.5798 38.9025 75.4173 41.5975 78.7248 41.5975C82.0323 41.5975 83.8698 38.9025 83.8698 36.4525C83.8698 34.0025 81.9098 31.3075 78.7248 31.3075ZM89.7498 31.3075C86.4423 31.3075 84.6048 34.0025 84.6048 36.4525C84.6048 38.9025 86.5648 41.5975 89.7498 41.5975C93.0573 41.5975 94.8948 38.9025 94.8948 36.4525C94.8948 34.0025 92.9348 31.3075 89.7498 31.3075ZM59.8598 27.8775C56.7973 31.0625 56.6748 36.085 59.7373 39.1475C61.3298 40.74 63.5348 41.475 65.7398 41.5975C67.6998 41.5975 69.6598 40.8625 71.0073 39.515C72.2323 38.29 72.9673 36.4525 72.9673 34.615C72.9673 34.0025 72.9673 33.39 72.8448 32.9H65.6173V35.105H70.7623C70.6398 36.085 70.3948 37.065 69.6598 37.8C67.4548 40.1275 63.7798 40.005 61.5748 37.6775C59.3698 35.35 59.3698 31.7975 61.5748 29.47C63.6573 27.265 67.2098 27.1425 69.4148 29.3475L70.8848 27.755C69.4148 26.285 67.4548 25.55 65.4948 25.55C63.4123 25.55 61.4523 26.285 59.8598 27.8775ZM111.555 32.655C109.717 34.7375 109.717 38.045 111.555 40.005C113.392 41.965 116.945 41.965 119.027 39.8825C119.15 39.6375 119.395 39.3925 119.64 39.1475L117.802 37.9225C117.067 39.025 116.332 39.3925 115.23 39.3925C114.005 39.3925 113.147 38.6575 112.78 37.8L119.517 34.9825C119.15 34.125 118.782 33.2675 118.17 32.655C116.455 30.695 113.392 30.695 111.555 32.655ZM124.295 27.8775V41.3525H126.5V35.9625H129.195C131.522 35.9625 133.36 34.125 133.36 31.92C133.36 29.715 131.277 27.8775 128.705 27.8775H124.295ZM134.585 27.8775V41.475H136.667V27.8775H134.585ZM106.9 26.04V41.23H109.105V26.04H106.9ZM142.302 36.9425C143.037 36.9425 143.772 37.065 144.262 37.4325C144.262 38.9025 142.915 39.8825 141.69 39.8825C140.832 39.8825 139.975 39.3925 139.975 38.535C139.975 37.6775 140.832 36.9425 142.302 36.9425ZM78.7248 33.39C80.5623 33.39 81.5423 34.9825 81.5423 36.4525C81.5423 37.9225 80.4398 39.515 78.7248 39.515C76.8873 39.515 75.9073 37.9225 75.9073 36.4525C75.9073 34.9825 76.8873 33.39 78.7248 33.39ZM89.7498 33.39C91.5873 33.39 92.5673 34.9825 92.5673 36.4525C92.5673 37.9225 91.5873 39.515 89.7498 39.515C87.9123 39.515 86.9323 37.9225 86.9323 36.4525C86.9323 34.9825 87.9123 33.39 89.7498 33.39ZM103.592 36.9425C103.47 37.065 103.47 37.1875 103.47 37.31C102.98 38.6575 102 39.515 101.02 39.3925C99.4273 39.3925 98.2023 38.045 98.2023 36.33C98.2023 34.7375 99.4273 33.2675 100.897 33.2675C102 33.2675 103.102 34.125 103.47 35.35C103.47 35.4112 103.5 35.5031 103.531 35.595C103.562 35.6868 103.592 35.7787 103.592 35.84V35.9625V36.4525V36.9425ZM116.945 34.2475L112.412 36.2075C112.167 35.2275 113.27 33.2675 115.107 33.145C115.72 33.145 116.455 33.39 116.945 34.2475ZM128.827 29.96C130.175 29.96 131.155 30.8175 131.155 32.0425C131.155 33.2675 130.175 34.2475 128.95 34.2475H126.377V29.96H128.827Z" fill="white"/>
<defs>
<linearGradient id="paint0_linear" x1="-9.99999" y1="-12.25" x2="196.345" y2="91.3092" gradientUnits="userSpaceOnUse">
<stop stop-color="#A56DFF"/>
<stop offset="1" stop-color="#007DFA"/>
</linearGradient>
<linearGradient id="paint1_linear" x1="2.25" y1="3.0625" x2="175.5" y2="56" gradientUnits="userSpaceOnUse">
<stop stop-color="#B8B1FF"/>
<stop offset="1" stop-color="#92B7FF"/>
</linearGradient>
<linearGradient id="paint2_linear" x1="30.2976" y1="11.5526" x2="37.1554" y2="39.7164" gradientUnits="userSpaceOnUse">
<stop stop-color="#5BC3F8"/>
<stop offset="1" stop-color="#6ADFF8"/>
</linearGradient>
<linearGradient id="paint3_linear" x1="17.9998" y1="5.24997" x2="42.4998" y2="29.3125" gradientUnits="userSpaceOnUse">
<stop stop-color="#38F8F1"/>
<stop offset="1" stop-color="#71EC83"/>
</linearGradient>
<linearGradient id="paint4_linear" x1="43.4381" y1="32.4344" x2="43.4381" y2="22.6976" gradientUnits="userSpaceOnUse">
<stop stop-color="#FCC072"/>
<stop offset="1" stop-color="#FFAA85"/>
</linearGradient>
<linearGradient id="paint5_linear" x1="25.5533" y1="44.2548" x2="40.3166" y2="29.2299" gradientUnits="userSpaceOnUse">
<stop stop-color="#D486F5"/>
<stop offset="1" stop-color="#EA1D27"/>
</linearGradient>
<linearGradient id="paint6_linear" x1="53.8751" y1="3.9375" x2="156.25" y2="59.5" gradientUnits="userSpaceOnUse">
<stop stop-color="#9576E9"/>
<stop offset="1" stop-color="#007DFA"/>
</linearGradient>
</defs>
</svg>
