<svg width="134" height="50" viewBox="0 0 134 50" fill="none" xmlns="http://www.w3.org/2000/svg">
<path d="M118 1H1V40.4105H118V1Z" stroke="white" stroke-width="1.95395" stroke-linejoin="round"/>
<path fill-rule="evenodd" clip-rule="evenodd" d="M132.337 12.7403L118 1V40.0075L132.337 49V12.7403Z" stroke="white" stroke-width="1.95395" stroke-linejoin="round"/>
<path fill-rule="evenodd" clip-rule="evenodd" d="M15.295 49L1 40.4105H118L132.294 49H15.295Z" stroke="white" stroke-width="1.95395" stroke-linejoin="round"/>
<path d="M13.6836 24.3049C13.8496 26.7366 15.9004 28.3186 18.9766 28.3186C22.1309 28.3186 24.1816 26.6877 24.1816 24.0803C24.1816 22.0881 23.0195 20.9163 20.0801 20.2717L18.5176 19.9299C16.5938 19.51 15.8418 18.7483 15.8418 17.635C15.8418 16.1995 17.1992 15.3401 18.957 15.3401C20.793 15.3401 22.0137 16.2874 22.1699 17.8303H23.9277C23.8496 15.4377 21.8184 13.7581 19.0059 13.7581C16.0859 13.7581 14.0352 15.3889 14.0352 17.7131C14.0352 19.7151 15.2559 20.9944 18.0781 21.6096L19.6406 21.9514C21.5938 22.3811 22.375 23.1624 22.375 24.344C22.375 25.7307 20.9883 26.7366 19.0742 26.7366C17.0527 26.7366 15.6465 25.8186 15.4414 24.3049H13.6836ZM26.5254 15.4768V17.928H25.0117V19.3245H26.5254V25.4475C26.5254 27.4006 27.248 28.1624 29.1133 28.1624C29.5137 28.1624 29.9824 28.1331 30.1875 28.0842V26.6584C30.0703 26.678 29.6797 26.7073 29.4844 26.7073C28.6152 26.7073 28.2246 26.2874 28.2246 25.3596V19.3245H30.1973V17.928H28.2246V15.4768H26.5254ZM35.168 26.8147C33.9473 26.8147 33.1367 26.1799 33.1367 25.2131C33.1367 24.2561 33.918 23.6506 35.2852 23.5627L38 23.3967V24.2268C38 25.6917 36.7695 26.8147 35.168 26.8147ZM34.7871 28.26C36.1543 28.26 37.4434 27.4983 38.0488 26.3362H38.0879V28.0842H39.6992V21.0627C39.6992 19.0413 38.1953 17.7522 35.8125 17.7522C33.4102 17.7522 31.9062 19.0999 31.7891 20.8577H33.4297C33.6445 19.8616 34.4648 19.2463 35.7734 19.2463C37.1797 19.2463 38 19.9885 38 21.2288V22.0784L35.0898 22.2444C32.7461 22.3811 31.4082 23.4749 31.4082 25.2131C31.4082 27.0393 32.7656 28.26 34.7871 28.26ZM42.707 31.8831C44.543 31.8831 45.3828 31.1702 46.252 28.7971L50.2461 17.928H48.459L45.6465 26.385H45.6172L42.8047 17.928H40.9883L44.7383 28.094L44.5039 28.8069C44.1133 29.9885 43.5859 30.4475 42.6387 30.4475C42.4238 30.4475 42.1602 30.4377 41.9746 30.3987V31.8245C42.1602 31.8635 42.502 31.8831 42.707 31.8831ZM55.2656 24.3049C55.4316 26.7366 57.4824 28.3186 60.5586 28.3186C63.7129 28.3186 65.7637 26.6877 65.7637 24.0803C65.7637 22.0881 64.6016 20.9163 61.6621 20.2717L60.0996 19.9299C58.1758 19.51 57.4238 18.7483 57.4238 17.635C57.4238 16.1995 58.7812 15.3401 60.5391 15.3401C62.375 15.3401 63.5957 16.2874 63.752 17.8303H65.5098C65.4316 15.4377 63.4004 13.7581 60.5879 13.7581C57.668 13.7581 55.6172 15.3889 55.6172 17.7131C55.6172 19.7151 56.8379 20.9944 59.6602 21.6096L61.2227 21.9514C63.1758 22.3811 63.957 23.1624 63.957 24.344C63.957 25.7307 62.5703 26.7366 60.6562 26.7366C58.6348 26.7366 57.2285 25.8186 57.0234 24.3049H55.2656ZM71.7695 28.26C74.5723 28.26 76.4668 26.2385 76.4668 23.0061C76.4668 19.7639 74.5723 17.7522 71.7695 17.7522C68.957 17.7522 67.0625 19.7639 67.0625 23.0061C67.0625 26.2385 68.957 28.26 71.7695 28.26ZM71.7695 26.7659C69.9727 26.7659 68.791 25.3987 68.791 23.0061C68.791 20.6135 69.9727 19.2463 71.7695 19.2463C73.5664 19.2463 74.7383 20.6135 74.7383 23.0061C74.7383 25.3987 73.5664 26.7659 71.7695 26.7659ZM86.623 21.2581C86.4082 19.4319 84.8945 17.7522 82.3555 17.7522C79.5527 17.7522 77.6875 19.803 77.6875 23.0061C77.6875 26.2776 79.5625 28.26 82.375 28.26C84.6797 28.26 86.3789 26.8342 86.6426 24.8127H84.9727C84.6797 26.0334 83.7715 26.7659 82.3848 26.7659C80.627 26.7659 79.416 25.3694 79.416 23.0061C79.416 20.7014 80.6074 19.2463 82.3652 19.2463C83.8594 19.2463 84.7188 20.1545 84.9629 21.2581H86.623ZM88.293 28.0842H89.9922V17.928H88.293V28.0842ZM89.1426 16.1213C89.7383 16.1213 90.207 15.6428 90.207 15.0569C90.207 14.4612 89.7383 13.9924 89.1426 13.9924C88.5566 13.9924 88.0781 14.4612 88.0781 15.0569C88.0781 15.6428 88.5566 16.1213 89.1426 16.1213ZM95.6367 26.8147C94.416 26.8147 93.6055 26.1799 93.6055 25.2131C93.6055 24.2561 94.3867 23.6506 95.7539 23.5627L98.4688 23.3967V24.2268C98.4688 25.6917 97.2383 26.8147 95.6367 26.8147ZM95.2559 28.26C96.623 28.26 97.9121 27.4983 98.5176 26.3362H98.5566V28.0842H100.168V21.0627C100.168 19.0413 98.6641 17.7522 96.2812 17.7522C93.8789 17.7522 92.375 19.0999 92.2578 20.8577H93.8984C94.1133 19.8616 94.9336 19.2463 96.2422 19.2463C97.6484 19.2463 98.4688 19.9885 98.4688 21.2288V22.0784L95.5586 22.2444C93.2148 22.3811 91.877 23.4749 91.877 25.2131C91.877 27.0393 93.2344 28.26 95.2559 28.26ZM102.414 28.0842H104.113V13.9924H102.414V28.0842Z" fill="white"/>
</svg>
