<svg width="159" height="48" viewBox="0 0 159 48" fill="none" xmlns="http://www.w3.org/2000/svg">
<path fill-rule="evenodd" clip-rule="evenodd" d="M142.722 1V37.7711H1V1H142.722ZM83.4151 15.812C82.1095 15.812 81.0616 16.1089 80.2714 16.7028C79.4812 17.2967 79.0861 18.253 79.0861 19.572C79.0861 20.8176 79.5029 21.7769 80.3364 22.4497L80.4879 22.5654L80.3023 22.8555C79.8901 23.4908 79.6839 23.9465 79.6839 24.2227C79.6839 24.9271 79.9382 25.4519 80.4466 25.7972C79.4572 26.5706 78.9624 27.3923 78.9624 28.2624C78.9624 29.3534 79.3782 30.1061 80.2096 30.5204C81.041 30.9347 82.2298 31.1419 83.7758 31.1419C85.3219 31.1419 86.5484 30.8588 87.4554 30.2925C88.3624 29.7263 88.816 28.8493 88.816 27.6616C88.816 26.4877 88.4999 25.6763 87.8677 25.2275C87.2355 24.7786 86.0537 24.5473 84.3221 24.5335C83.4563 24.5197 82.9066 24.4713 82.673 24.3885C82.4393 24.3056 82.3225 24.1502 82.3225 23.9223C82.3225 23.6945 82.3912 23.401 82.5287 23.0419C82.776 23.0972 83.0578 23.1248 83.3738 23.1248C84.8718 23.1248 85.9712 22.8624 86.6721 22.3376C87.373 21.8128 87.7234 20.8598 87.7234 19.4788C87.7234 19.0614 87.604 18.644 87.3651 18.2266L87.2699 18.0701L88.816 18.1944V15.9777L85.4971 16.0813L85.1673 16.0192C84.5901 15.8811 84.006 15.812 83.4151 15.812ZM82.2401 26.7915L84.0953 26.9365C84.8924 26.9504 85.4146 27.009 85.662 27.1126C85.9094 27.2162 86.0331 27.4544 86.0331 27.8273C86.0331 28.5179 85.3081 28.8631 83.8583 28.8631C82.4084 28.8631 81.6835 28.5662 81.6835 27.9723C81.6835 27.6041 81.8301 27.2521 82.1233 26.9166L82.2401 26.7915ZM51.2777 15.7913C50.1096 15.7913 49.1545 16.071 48.4124 16.6303C47.6703 17.1896 47.2992 18.0183 47.2992 19.1162C47.2992 20.2142 47.5603 20.9772 48.0825 21.4053C48.6048 21.8335 49.3984 22.1373 50.4635 22.3169C51.5285 22.4964 52.1882 22.6483 52.4424 22.7726C52.6967 22.8969 52.8238 23.0903 52.8238 23.3527C52.8238 23.6151 52.7035 23.8119 52.463 23.9431C52.2225 24.0743 51.769 24.1399 51.1025 24.1399C50.4752 24.1399 49.3883 24.042 47.8419 23.8463L47.5466 23.8084L47.4641 26.1286L48.1238 26.2529C49.4156 26.5015 50.515 26.6258 51.422 26.6258C54.1843 26.6258 55.5655 25.5071 55.5655 23.2698C55.5655 22.2478 55.3318 21.5089 54.8646 21.0532C54.3973 20.5974 53.6105 20.2694 52.5043 20.0692C51.398 19.8689 50.7108 19.717 50.4429 19.6134C50.1749 19.5098 50.0409 19.3234 50.0409 19.0541C50.0409 18.7848 50.1405 18.588 50.3398 18.4637C50.5391 18.3394 50.9788 18.2772 51.6591 18.2772C52.2993 18.2772 53.393 18.3751 54.9402 18.5708L55.2356 18.6087L55.2769 16.3092L54.5966 16.1849C53.1948 15.9225 52.0885 15.7913 51.2777 15.7913ZM130.003 15.7706C128.299 15.7706 127.083 16.247 126.354 17.2C125.626 18.1391 125.262 19.4649 125.262 21.1775C125.262 24.8097 126.842 26.6258 130.003 26.6258C133.164 26.6258 134.744 24.8097 134.744 21.1775C134.744 19.4649 134.38 18.1357 133.652 17.1896C132.923 16.2436 131.707 15.7706 130.003 15.7706ZM118.48 12.0417C116.432 12.0417 114.982 12.6079 114.13 13.7404C113.278 14.8729 112.852 16.7166 112.852 19.2716C112.852 21.8266 113.261 23.691 114.079 24.8649C114.896 26.0388 116.398 26.6258 118.583 26.6258C119.724 26.6258 121.189 26.4874 122.977 26.2107L123.365 26.1493V18.8366H119.284V21.3225H120.562V24.057L118.851 24.1399C117.6 24.1399 116.776 23.8153 116.377 23.1662C115.978 22.5171 115.779 21.3812 115.779 19.7584C115.779 18.1357 115.879 16.9894 116.078 16.3195C116.277 15.6497 116.59 15.1905 117.016 14.9419C117.442 14.6933 118.181 14.569 119.232 14.569C120.202 14.569 121.428 14.6455 122.907 14.7985L123.283 14.8383L123.365 12.6217L122.623 12.4767C121.139 12.1867 119.758 12.0417 118.48 12.0417ZM31.6325 15.7706C28.5954 15.7706 27.0768 17.6281 27.0768 21.3432C27.0768 23.2076 27.4272 24.5542 28.1281 25.3828C28.829 26.2115 29.9559 26.6258 31.5088 26.6258C32.6707 26.6258 33.9575 26.466 35.3693 26.1464L35.7966 26.0457L35.7553 23.9949L35.1781 24.057C34.1749 24.1399 33.0343 24.1813 31.7562 24.1813C31.1515 24.1813 30.6877 24.0397 30.3647 23.7566C30.0712 23.4992 29.9053 23.0963 29.8673 22.5479L29.8597 22.379H35.9202L36.1264 20.4524C36.1264 17.3312 34.6284 15.7706 31.6325 15.7706ZM94.5261 15.7706C91.4889 15.7706 89.9703 17.6281 89.9703 21.3432C89.9703 23.2076 90.3208 24.5542 91.0217 25.3828C91.7225 26.2115 92.8494 26.6258 94.4024 26.6258C95.5643 26.6258 96.8511 26.466 98.2628 26.1464L98.6901 26.0457L98.6489 23.9949L98.0717 24.057C97.0685 24.1399 95.9278 24.1813 94.6497 24.1813C94.0451 24.1813 93.5812 24.0397 93.2583 23.7566C92.9647 23.4992 92.7989 23.0963 92.7608 22.5479L92.7532 22.379H98.8138L99.0199 20.4524C99.0199 17.3312 97.522 15.7706 94.5261 15.7706ZM41.5479 15.7913C40.3798 15.7913 39.4246 16.071 38.6825 16.6303C37.9404 17.1896 37.5694 18.0183 37.5694 19.1162C37.5694 20.2142 37.8305 20.9772 38.3527 21.4053C38.8749 21.8335 39.6686 22.1373 40.7336 22.3169C41.7987 22.4964 42.4583 22.6483 42.7126 22.7726C42.9668 22.8969 43.0939 23.0903 43.0939 23.3527C43.0939 23.6151 42.9737 23.8119 42.7332 23.9431C42.4927 24.0743 42.0392 24.1399 41.3727 24.1399C40.7453 24.1399 39.6585 24.042 38.1121 23.8463L37.8167 23.8084L37.7343 26.1286L38.3939 26.2529C39.6857 26.5015 40.7852 26.6258 41.6922 26.6258C44.4545 26.6258 45.8356 25.5071 45.8356 23.2698C45.8356 22.2478 45.602 21.5089 45.1347 21.0532C44.6675 20.5974 43.8807 20.2694 42.7744 20.0692C41.6681 19.8689 40.981 19.717 40.713 19.6134C40.445 19.5098 40.311 19.3234 40.311 19.0541C40.311 18.7848 40.4107 18.588 40.6099 18.4637C40.8092 18.3394 41.249 18.2772 41.9292 18.2772C42.5695 18.2772 43.6632 18.3751 45.2104 18.5708L45.5058 18.6087L45.547 16.3092L44.8668 16.1849C43.465 15.9225 42.3587 15.7913 41.5479 15.7913ZM61.6054 15.7706C58.5682 15.7706 57.0497 17.6281 57.0497 21.3432C57.0497 23.2076 57.4001 24.5542 58.101 25.3828C58.8019 26.2115 59.9288 26.6258 61.4817 26.6258C62.6436 26.6258 63.9304 26.466 65.3421 26.1464L65.7694 26.0457L65.7282 23.9949L65.151 24.057C64.1478 24.1399 63.0071 24.1813 61.7291 24.1813C61.1244 24.1813 60.6606 24.0397 60.3376 23.7566C60.044 23.4992 59.8782 23.0963 59.8401 22.5479L59.8326 22.379H65.8931L66.0993 20.4524C66.0993 17.3312 64.6013 15.7706 61.6054 15.7706ZM73.3966 15.7706C72.6736 15.7706 71.8861 16.0059 71.0342 16.4766L70.8199 16.5992V16.0192H68.0782V26.3772H70.8405V18.6294L71.0879 18.5465C71.6101 18.3532 72.1529 18.2565 72.7164 18.2565C73.3348 18.2565 73.7471 18.4671 73.9532 18.8883C74.1422 19.2745 74.2445 19.855 74.2603 20.6299L74.2624 20.846V26.3772H77.0247V20.7631C77.0247 19.0644 76.7636 17.8077 76.2414 16.9928C75.7192 16.178 74.7709 15.7706 73.3966 15.7706ZM107.039 15.7706C106.089 15.9589 105.094 16.347 104.054 16.9348L103.741 17.1171V16.0192H100.999V26.3772H103.761V19.4373L104.173 19.2923C104.882 19.0713 105.715 18.8558 106.674 18.6458L107.039 18.5672V15.7706ZM15.1206 12.2903H10.2763V26.3772H13.1211V15.4805H13.4303L16.172 25.7557H19.0167L21.7584 15.4805H22.0676V26.3772H24.9123V12.2903H20.068L17.5943 22.5654L15.1206 12.2903ZM130.003 18.1322C130.731 18.1322 131.236 18.3739 131.518 18.8573C131.8 19.3406 131.941 20.114 131.941 21.1775C131.941 22.2409 131.8 23.0212 131.518 23.5184C131.236 24.0156 130.731 24.2642 130.003 24.2642C129.275 24.2642 128.766 24.0156 128.477 23.5184C128.203 23.0212 128.065 22.2409 128.065 21.1775C128.065 20.114 128.206 19.3406 128.488 18.8573C128.769 18.3739 129.275 18.1322 130.003 18.1322ZM83.4254 17.9665C84.4767 17.9665 85.0024 18.474 85.0024 19.4891C85.0024 20.5042 84.4767 21.0117 83.4254 21.0117C82.3741 21.0117 81.8484 20.5076 81.8484 19.4995C81.8484 18.4775 82.3741 17.9665 83.4254 17.9665ZM31.6428 18.0493C32.2956 18.0493 32.7525 18.2116 33.0137 18.5362C33.2748 18.8607 33.4053 19.4373 33.4053 20.266H29.8391C29.8528 19.4649 29.9937 18.8952 30.2617 18.5569C30.5297 18.2185 30.99 18.0493 31.6428 18.0493ZM61.6157 18.0493C62.2685 18.0493 62.7254 18.2116 62.9865 18.5362C63.2476 18.8607 63.3782 19.4373 63.3782 20.266H59.812C59.8257 19.4649 59.9666 18.8952 60.2345 18.5569C60.5025 18.2185 60.9629 18.0493 61.6157 18.0493ZM94.5364 18.0493C95.1891 18.0493 95.6461 18.2116 95.9072 18.5362C96.1683 18.8607 96.2989 19.4373 96.2989 20.266H92.7326C92.7464 19.4649 92.8872 18.8952 93.1552 18.5569C93.4232 18.2185 93.8836 18.0493 94.5364 18.0493Z" fill="#F0F7FF"/>
<path d="M143.023 1H1V37.6678H143.023V1Z" stroke="#F0F7FF" stroke-width="1.54934" stroke-linejoin="round"/>
<path fill-rule="evenodd" clip-rule="evenodd" d="M158 13.1365L143.023 1V37.6678L158 46.9638V13.1365Z" stroke="#F0F7FF" stroke-width="1.54934" stroke-linejoin="round"/>
<path fill-rule="evenodd" clip-rule="evenodd" d="M15.977 46.9638L0.999995 37.6677H143.023L158 46.9638H15.977Z" stroke="#F0F7FF" stroke-width="1.54934" stroke-linejoin="round"/>
</svg>
