<svg width="133" height="50" viewBox="0 0 133 50" fill="none" xmlns="http://www.w3.org/2000/svg">
<path d="M117 1H1V40.4105H117V1Z" stroke="#3B4147" stroke-width="1.95395" stroke-linejoin="round"/>
<path fill-rule="evenodd" clip-rule="evenodd" d="M131.337 12.7403L117 1V40.0075L131.337 49V12.7403Z" stroke="#3B4147" stroke-width="1.95395" stroke-linejoin="round"/>
<path fill-rule="evenodd" clip-rule="evenodd" d="M15.2948 49L1 40.4105H117L131.295 49H15.2948Z" stroke="#3B4147" stroke-width="1.95395" stroke-linejoin="round"/>
<path d="M13.6836 24.3049C13.8496 26.7366 15.9004 28.3186 18.9766 28.3186C22.1309 28.3186 24.1816 26.6877 24.1816 24.0803C24.1816 22.0881 23.0195 20.9163 20.0801 20.2717L18.5176 19.9299C16.5938 19.51 15.8418 18.7483 15.8418 17.635C15.8418 16.1995 17.1992 15.3401 18.957 15.3401C20.793 15.3401 22.0137 16.2874 22.1699 17.8303H23.9277C23.8496 15.4377 21.8184 13.7581 19.0059 13.7581C16.0859 13.7581 14.0352 15.3889 14.0352 17.7131C14.0352 19.7151 15.2559 20.9944 18.0781 21.6096L19.6406 21.9514C21.5938 22.3811 22.375 23.1624 22.375 24.344C22.375 25.7307 20.9883 26.7366 19.0742 26.7366C17.0527 26.7366 15.6465 25.8186 15.4414 24.3049H13.6836ZM26.5254 15.4768V17.928H25.0117V19.3245H26.5254V25.4475C26.5254 27.4006 27.248 28.1624 29.1133 28.1624C29.5137 28.1624 29.9824 28.1331 30.1875 28.0842V26.6584C30.0703 26.678 29.6797 26.7073 29.4844 26.7073C28.6152 26.7073 28.2246 26.2874 28.2246 25.3596V19.3245H30.1973V17.928H28.2246V15.4768H26.5254ZM35.168 26.8147C33.9473 26.8147 33.1367 26.1799 33.1367 25.2131C33.1367 24.2561 33.918 23.6506 35.2852 23.5627L38 23.3967V24.2268C38 25.6917 36.7695 26.8147 35.168 26.8147ZM34.7871 28.26C36.1543 28.26 37.4434 27.4983 38.0488 26.3362H38.0879V28.0842H39.6992V21.0627C39.6992 19.0413 38.1953 17.7522 35.8125 17.7522C33.4102 17.7522 31.9062 19.0999 31.7891 20.8577H33.4297C33.6445 19.8616 34.4648 19.2463 35.7734 19.2463C37.1797 19.2463 38 19.9885 38 21.2288V22.0784L35.0898 22.2444C32.7461 22.3811 31.4082 23.4749 31.4082 25.2131C31.4082 27.0393 32.7656 28.26 34.7871 28.26ZM42.707 31.8831C44.543 31.8831 45.3828 31.1702 46.252 28.7971L50.2461 17.928H48.459L45.6465 26.385H45.6172L42.8047 17.928H40.9883L44.7383 28.094L44.5039 28.8069C44.1133 29.9885 43.5859 30.4475 42.6387 30.4475C42.4238 30.4475 42.1602 30.4377 41.9746 30.3987V31.8245C42.1602 31.8635 42.502 31.8831 42.707 31.8831ZM55.2656 24.3049C55.4316 26.7366 57.4824 28.3186 60.5586 28.3186C63.7129 28.3186 65.7637 26.6877 65.7637 24.0803C65.7637 22.0881 64.6016 20.9163 61.6621 20.2717L60.0996 19.9299C58.1758 19.51 57.4238 18.7483 57.4238 17.635C57.4238 16.1995 58.7812 15.3401 60.5391 15.3401C62.375 15.3401 63.5957 16.2874 63.752 17.8303H65.5098C65.4316 15.4377 63.4004 13.7581 60.5879 13.7581C57.668 13.7581 55.6172 15.3889 55.6172 17.7131C55.6172 19.7151 56.8379 20.9944 59.6602 21.6096L61.2227 21.9514C63.1758 22.3811 63.957 23.1624 63.957 24.344C63.957 25.7307 62.5703 26.7366 60.6562 26.7366C58.6348 26.7366 57.2285 25.8186 57.0234 24.3049H55.2656ZM67.5605 28.0842H69.2598V21.717C69.2598 20.3108 70.2363 19.2561 71.584 19.2561C72.8438 19.2561 73.6641 20.0569 73.6641 21.2776V28.0842H75.3633V21.6292C75.3633 20.2522 76.3105 19.2561 77.6582 19.2561C78.9961 19.2561 79.7676 20.0764 79.7676 21.4631V28.0842H81.4668V21.0725C81.4668 19.0608 80.168 17.7522 78.1562 17.7522C76.7305 17.7522 75.5391 18.4749 74.9727 19.6858H74.9336C74.4941 18.4553 73.4688 17.7522 72.082 17.7522C70.7148 17.7522 69.6797 18.4749 69.2012 19.5491H69.1621V17.928H67.5605V28.0842ZM86.9844 26.8147C85.7637 26.8147 84.9531 26.1799 84.9531 25.2131C84.9531 24.2561 85.7344 23.6506 87.1016 23.5627L89.8164 23.3967V24.2268C89.8164 25.6917 88.5859 26.8147 86.9844 26.8147ZM86.6035 28.26C87.9707 28.26 89.2598 27.4983 89.8652 26.3362H89.9043V28.0842H91.5156V21.0627C91.5156 19.0413 90.0117 17.7522 87.6289 17.7522C85.2266 17.7522 83.7227 19.0999 83.6055 20.8577H85.2461C85.4609 19.8616 86.2812 19.2463 87.5898 19.2463C88.9961 19.2463 89.8164 19.9885 89.8164 21.2288V22.0784L86.9062 22.2444C84.5625 22.3811 83.2246 23.4749 83.2246 25.2131C83.2246 27.0393 84.582 28.26 86.6035 28.26ZM93.6738 28.0842H95.373V21.7561C95.373 20.3206 96.2324 19.3733 97.5508 19.3733C97.9609 19.3733 98.3223 19.4221 98.459 19.4709V17.8206C98.3223 17.801 98.0684 17.7522 97.7754 17.7522C96.584 17.7522 95.6465 18.4651 95.3145 19.5881H95.2754V17.928H93.6738V28.0842ZM100.393 15.4768V17.928H98.8789V19.3245H100.393V25.4475C100.393 27.4006 101.115 28.1624 102.98 28.1624C103.381 28.1624 103.85 28.1331 104.055 28.0842V26.6584C103.938 26.678 103.547 26.7073 103.352 26.7073C102.482 26.7073 102.092 26.2874 102.092 25.3596V19.3245H104.064V17.928H102.092V15.4768H100.393Z" fill="#3B4147"/>
</svg>
