<svg width="684" height="173" viewBox="0 0 684 173" fill="none" xmlns="http://www.w3.org/2000/svg">
<path d="M63.7183 63C63.5543 60.704 63.0623 57.588 62.4063 55.374C61.1763 54.882 59.2903 54.39 57.9783 54.144L37.4783 3.878H28.0483L6.64626 54.39C5.41626 54.636 3.69426 55.128 2.71026 55.62C1.89026 57.67 1.07026 60.458 0.742258 63H23.8663C23.8663 60.95 23.2923 57.342 22.5543 55.538C21.0783 55.128 18.6183 54.718 16.8963 54.554C17.8803 53.16 18.8643 50.618 19.3563 49.224L20.3403 46.518H41.4963L42.3983 48.814C43.1363 50.7 44.1203 52.75 45.3503 54.226C43.9563 54.472 41.6603 55.046 40.2663 55.538C39.4463 57.424 38.4623 61.032 38.2983 63H63.7183ZM31.6563 15.85C31.8203 19.212 33.4603 24.952 34.3623 27.412L38.7083 38.892H23.2923L27.4743 27.576C28.4583 24.952 30.4263 19.13 30.6723 15.85H31.6563ZM73.8946 11.75V54.718C72.2546 55.292 70.2866 56.112 69.1386 57.014C68.5646 58.326 67.9906 61.032 67.8266 63H91.9346C92.1806 61.36 91.9346 57.916 91.6066 56.604C90.2126 55.948 87.5066 55.374 85.7846 55.128V3.468C84.3906 2.894 81.4386 2.566 79.3886 2.566C75.8626 2.566 72.2546 3.222 70.1226 4.206C69.1386 5.928 68.2366 9.454 68.1546 11.75H73.8946ZM104.084 11.75V54.718C102.444 55.292 100.476 56.112 99.328 57.014C98.754 58.326 98.18 61.032 98.016 63H122.124C122.37 61.36 122.124 57.916 121.796 56.604C120.402 55.948 117.696 55.374 115.974 55.128V3.468C114.58 2.894 111.628 2.566 109.578 2.566C106.052 2.566 102.444 3.222 100.312 4.206C99.328 5.928 98.426 9.454 98.344 11.75H104.084ZM166.304 54.062C166.058 51.766 165.074 48.158 164.418 46.436L160.892 37.17C160.154 35.366 158.924 33.234 157.694 31.594C159.006 31.348 161.302 30.774 162.286 30.282C163.024 28.314 163.598 25.362 163.598 22.984H142.032C142.114 25.116 142.442 27.986 143.016 29.79C143.672 30.364 145.23 31.266 146.296 31.594L160.236 64.312C157.448 68.904 151.708 73.004 145.476 74.644C145.804 77.432 148.1 81.45 149.986 83.336C157.202 81.204 164.254 74.398 167.944 67.346C171.306 60.95 175.16 50.864 177.702 44.14L182.458 31.43C183.278 31.348 184.918 30.938 185.656 30.61C186.312 28.888 187.05 25.28 187.05 22.984H169.42C169.42 25.28 169.666 27.986 170.404 29.954C171.224 30.528 172.782 31.102 173.848 31.43C172.864 33.234 172.044 35.366 171.47 37.498L168.928 46.436C168.354 48.24 167.534 51.684 167.288 54.062H166.304ZM210.156 21.59C198.348 21.59 189.492 29.462 189.492 42.336C189.492 56.85 196.954 64.394 210.156 64.394C222.62 64.394 230.738 56.44 230.738 42.336C230.738 28.97 222.456 21.59 210.156 21.59ZM201.71 42.336C201.71 34.464 204.662 29.216 210.156 29.216C215.24 29.216 218.438 34.792 218.438 42.336C218.438 51.192 215.814 56.686 210.156 56.686C204.908 56.686 201.71 51.028 201.71 42.336ZM265.921 51.356C264.117 53.488 261.575 55.21 259.033 55.21C254.031 55.21 252.555 52.422 252.555 47.092V23.148C251.161 22.574 248.291 22.246 246.159 22.246C242.633 22.246 238.943 22.902 236.811 23.886C235.827 25.608 234.925 29.134 234.843 31.43H240.911C240.583 37.088 240.419 43.976 240.419 49.142C240.419 62.016 246.569 64.394 253.375 64.394C259.935 64.394 263.707 61.032 265.921 56.85H266.659C267.069 59.474 267.889 61.934 269.037 63.984C273.383 63.984 280.107 63.41 283.141 62.344C283.961 60.622 284.699 57.588 284.535 55.456H278.549C278.057 53.57 277.893 51.438 277.893 49.388V23.148C276.499 22.574 273.629 22.246 271.497 22.246C267.971 22.246 264.281 22.902 262.149 23.886C261.165 25.772 260.263 29.134 260.181 31.43H265.921V51.356ZM303.808 30.856V23.148C302.578 22.574 300.118 22.246 298.15 22.246C294.952 22.246 291.754 22.902 289.786 23.886C288.72 25.69 287.982 29.134 287.982 31.43H293.722V54.718C292.164 55.292 290.114 56.112 288.966 57.014C288.392 58.326 287.818 61.032 287.654 63H314.14C314.386 61.36 314.14 57.916 313.648 56.604C311.844 55.866 308.072 55.128 305.612 54.882V37.416C307.744 33.972 311.106 32.004 314.714 32.004C316.272 32.004 319.224 32.414 320.946 33.398C321.274 32.332 321.438 30.938 321.438 29.544C321.438 26.756 320.864 23.886 319.798 22.41C318.814 21.918 317.092 21.59 315.616 21.59C309.876 21.59 305.94 26.51 305.038 30.856H303.808ZM347.455 31.43V54.718C345.815 55.292 343.847 56.112 342.699 57.014C342.125 58.326 341.551 61.032 341.387 63H365.495C365.741 61.36 365.495 57.916 365.167 56.604C363.773 55.948 361.067 55.374 359.345 55.128V23.148C357.951 22.574 354.999 22.246 352.867 22.246C349.341 22.246 345.651 22.902 343.519 23.886C342.535 25.608 341.633 29.134 341.551 31.43H347.455ZM353.605 0.269996C349.341 0.269996 346.307 3.058 346.307 7.322C346.307 12.242 348.849 14.866 353.605 14.866C357.787 14.866 360.739 12.16 360.739 7.322C360.739 2.812 357.787 0.269996 353.605 0.269996ZM387.452 35.12C389.256 32.742 392.044 30.692 395.242 30.692C399.998 30.692 401.638 34.054 401.638 38.81V54.718C400.408 55.292 398.686 56.112 397.784 57.014C397.292 58.326 396.882 61.032 396.718 63H419.186C419.432 61.36 419.186 57.916 418.858 56.604C417.382 55.948 414.758 55.292 413.036 55.046C413.446 49.388 413.692 42.5 413.692 36.596C413.692 23.64 407.132 21.59 400.244 21.59C393.192 21.59 389.092 25.198 386.878 29.626H385.648V23.148C384.418 22.574 381.958 22.246 379.99 22.246C376.792 22.246 373.594 22.902 371.626 23.886C370.642 25.608 369.74 29.134 369.658 31.43H375.562V54.718C374.004 55.292 371.954 56.112 370.806 57.014C370.232 58.326 369.658 61.032 369.494 63H393.11C393.356 61.36 393.11 57.916 392.782 56.604C391.552 55.948 389.01 55.374 387.452 55.128V35.12ZM426.7 21.754C425.388 22.082 423.42 22.82 422.19 23.558C421.37 25.28 420.714 29.134 420.714 31.102H426.864C426.29 37.58 426.044 45.616 426.044 50.946C426.044 60.54 429.98 64.394 437.852 64.394C440.886 64.394 445.888 63.492 449.004 61.77C450.234 59.802 451.136 56.194 450.972 54.062C448.84 54.636 445.396 55.128 443.346 55.128C439.984 55.128 438.098 53.734 438.098 49.224V31.102H449.906C450.234 28.724 449.906 24.624 449.496 22.984H438.098V10.438C434.982 10.438 430.308 11.258 428.176 12.406L426.7 21.754ZM492.164 45.534C493.394 31.102 489.212 21.59 476.666 21.59C463.874 21.59 455.592 30.856 455.592 43.812C455.592 55.62 462.972 64.394 476.01 64.394C481.832 64.394 486.916 62.918 489.95 61.278C491.262 59.228 492.246 55.538 492 53.324C489.048 54.39 482.816 55.456 479.126 55.456C472.648 55.456 468.63 51.93 467.974 45.534H492.164ZM467.564 37.99C467.974 32.578 470.926 28.724 475.108 28.724C479.946 28.724 481.34 33.726 480.848 37.99H467.564ZM514.174 30.856V23.148C512.944 22.574 510.484 22.246 508.516 22.246C505.318 22.246 502.12 22.902 500.152 23.886C499.086 25.69 498.348 29.134 498.348 31.43H504.088V54.718C502.53 55.292 500.48 56.112 499.332 57.014C498.758 58.326 498.184 61.032 498.02 63H524.506C524.752 61.36 524.506 57.916 524.014 56.604C522.21 55.866 518.438 55.128 515.978 54.882V37.416C518.11 33.972 521.472 32.004 525.08 32.004C526.638 32.004 529.59 32.414 531.312 33.398C531.64 32.332 531.804 30.938 531.804 29.544C531.804 26.756 531.23 23.886 530.164 22.41C529.18 21.918 527.458 21.59 525.982 21.59C520.242 21.59 516.306 26.51 515.404 30.856H514.174ZM572.402 45.534C573.632 31.102 569.45 21.59 556.904 21.59C544.112 21.59 535.83 30.856 535.83 43.812C535.83 55.62 543.21 64.394 556.248 64.394C562.07 64.394 567.154 62.918 570.188 61.278C571.5 59.228 572.484 55.538 572.238 53.324C569.286 54.39 563.054 55.456 559.364 55.456C552.886 55.456 548.868 51.93 548.212 45.534H572.402ZM547.802 37.99C548.212 32.578 551.164 28.724 555.346 28.724C560.184 28.724 561.578 33.726 561.086 37.99H547.802ZM599.597 32.988C601.811 33.972 605.501 34.792 608.945 34.792C609.519 32.824 609.847 29.872 609.847 27.248C609.847 26.264 609.765 25.198 609.683 24.378C605.255 22.41 600.417 21.59 595.907 21.59C585.739 21.59 579.753 26.592 579.753 33.89C579.753 49.962 599.269 45.862 599.269 53.324C599.269 55.948 597.547 57.096 594.513 57.096C592.709 57.096 590.495 56.522 589.019 55.702V51.192C586.149 50.208 583.033 49.88 579.589 49.88C579.097 51.52 578.769 54.226 578.769 56.85C578.769 58.49 578.933 60.048 579.179 61.278C583.443 63.574 588.445 64.394 593.939 64.394C603.041 64.394 610.913 60.95 610.913 51.11C610.913 35.858 591.643 40.04 591.643 32.004C591.643 29.626 593.119 28.396 595.989 28.396C597.383 28.396 598.695 28.806 599.597 29.298V32.988ZM622.17 21.754C620.858 22.082 618.89 22.82 617.66 23.558C616.84 25.28 616.184 29.134 616.184 31.102H622.334C621.76 37.58 621.514 45.616 621.514 50.946C621.514 60.54 625.45 64.394 633.322 64.394C636.356 64.394 641.358 63.492 644.474 61.77C645.704 59.802 646.606 56.194 646.442 54.062C644.31 54.636 640.866 55.128 638.816 55.128C635.454 55.128 633.568 53.734 633.568 49.224V31.102H645.376C645.704 28.724 645.376 24.624 644.966 22.984H633.568V10.438C630.452 10.438 625.778 11.258 623.646 12.406L622.17 21.754ZM672.628 32.988C674.842 33.972 678.532 34.792 681.976 34.792C682.55 32.824 682.878 29.872 682.878 27.248C682.878 26.264 682.796 25.198 682.714 24.378C678.286 22.41 673.448 21.59 668.938 21.59C658.77 21.59 652.784 26.592 652.784 33.89C652.784 49.962 672.3 45.862 672.3 53.324C672.3 55.948 670.578 57.096 667.544 57.096C665.74 57.096 663.526 56.522 662.05 55.702V51.192C659.18 50.208 656.064 49.88 652.62 49.88C652.128 51.52 651.8 54.226 651.8 56.85C651.8 58.49 651.964 60.048 652.21 61.278C656.474 63.574 661.476 64.394 666.97 64.394C676.072 64.394 683.944 60.95 683.944 51.11C683.944 35.858 664.674 40.04 664.674 32.004C664.674 29.626 666.15 28.396 669.02 28.396C670.414 28.396 671.726 28.806 672.628 29.298V32.988ZM117.911 121.43V144.718C116.271 145.292 114.303 146.112 113.155 147.014C112.581 148.326 112.007 151.032 111.843 153H135.951C136.197 151.36 135.951 147.916 135.623 146.604C134.229 145.948 131.523 145.374 129.801 145.128V113.148C128.407 112.574 125.455 112.246 123.323 112.246C119.797 112.246 116.107 112.902 113.975 113.886C112.991 115.608 112.089 119.134 112.007 121.43H117.911ZM124.061 90.27C119.797 90.27 116.763 93.058 116.763 97.322C116.763 102.242 119.305 104.866 124.061 104.866C128.243 104.866 131.195 102.16 131.195 97.322C131.195 92.812 128.243 90.27 124.061 90.27ZM157.908 125.12C159.712 122.742 162.5 120.692 165.698 120.692C170.454 120.692 172.094 124.054 172.094 128.81V144.718C170.864 145.292 169.142 146.112 168.24 147.014C167.748 148.326 167.338 151.032 167.174 153H189.642C189.888 151.36 189.642 147.916 189.314 146.604C187.838 145.948 185.214 145.292 183.492 145.046C183.902 139.388 184.148 132.5 184.148 126.596C184.148 113.64 177.588 111.59 170.7 111.59C163.648 111.59 159.548 115.198 157.334 119.626H156.104V113.148C154.874 112.574 152.414 112.246 150.446 112.246C147.248 112.246 144.05 112.902 142.082 113.886C141.098 115.608 140.196 119.134 140.114 121.43H146.018V144.718C144.46 145.292 142.41 146.112 141.262 147.014C140.688 148.326 140.114 151.032 139.95 153H163.566C163.812 151.36 163.566 147.916 163.238 146.604C162.008 145.948 159.466 145.374 157.908 145.128V125.12ZM232.298 111.59C220.49 111.59 211.634 119.462 211.634 132.336C211.634 146.85 219.096 154.394 232.298 154.394C244.762 154.394 252.88 146.44 252.88 132.336C252.88 118.97 244.598 111.59 232.298 111.59ZM223.852 132.336C223.852 124.464 226.804 119.216 232.298 119.216C237.382 119.216 240.58 124.792 240.58 132.336C240.58 141.192 237.956 146.686 232.298 146.686C227.05 146.686 223.852 141.028 223.852 132.336ZM275.543 125.12C277.347 122.742 280.135 120.692 283.333 120.692C288.089 120.692 289.729 124.054 289.729 128.81V144.718C288.499 145.292 286.777 146.112 285.875 147.014C285.383 148.326 284.973 151.032 284.809 153H307.277C307.523 151.36 307.277 147.916 306.949 146.604C305.473 145.948 302.849 145.292 301.127 145.046C301.537 139.388 301.783 132.5 301.783 126.596C301.783 113.64 295.223 111.59 288.335 111.59C281.283 111.59 277.183 115.198 274.969 119.626H273.739V113.148C272.509 112.574 270.049 112.246 268.081 112.246C264.883 112.246 261.685 112.902 259.717 113.886C258.733 115.608 257.831 119.134 257.749 121.43H263.653V144.718C262.095 145.292 260.045 146.112 258.897 147.014C258.323 148.326 257.749 151.032 257.585 153H281.201C281.447 151.36 281.201 147.916 280.873 146.604C279.643 145.948 277.101 145.374 275.543 145.128V125.12ZM347.262 135.534C348.492 121.102 344.31 111.59 331.764 111.59C318.972 111.59 310.69 120.856 310.69 133.812C310.69 145.62 318.07 154.394 331.108 154.394C336.93 154.394 342.014 152.918 345.048 151.278C346.36 149.228 347.344 145.538 347.098 143.324C344.146 144.39 337.914 145.456 334.224 145.456C327.746 145.456 323.728 141.93 323.072 135.534H347.262ZM322.662 127.99C323.072 122.578 326.024 118.724 330.206 118.724C335.044 118.724 336.438 123.726 335.946 127.99H322.662ZM387.3 152.262C389.186 153.574 391.728 154.394 394.926 154.394C407.062 154.394 414.852 145.374 414.852 131.188C414.852 116.674 406.488 111.59 399.108 111.59C391.81 111.59 388.53 115.854 386.726 119.626H385.496V113.148C384.266 112.574 381.806 112.246 379.838 112.246C376.64 112.246 373.442 112.902 371.474 113.886C370.49 115.608 369.588 119.134 369.506 121.43H375.41V164.152C373.852 164.726 371.802 165.546 370.654 166.448C370.08 167.76 369.506 170.466 369.342 172.434H395.582C395.828 170.794 395.582 167.35 395.09 166.038C393.286 165.3 389.596 164.562 387.3 164.316V152.262ZM387.054 124.546C388.284 122.578 391.072 120.2 394.926 120.2C399.436 120.2 402.388 123.808 402.388 132.746C402.388 141.11 399.354 146.358 391.974 146.358C390.252 146.358 388.448 145.948 387.054 145.21V124.546ZM424.997 101.75V144.718C423.357 145.292 421.389 146.112 420.241 147.014C419.667 148.326 419.093 151.032 418.929 153H443.037C443.283 151.36 443.037 147.916 442.709 146.604C441.315 145.948 438.609 145.374 436.887 145.128V93.468C435.493 92.894 432.541 92.566 430.491 92.566C426.965 92.566 423.357 93.222 421.225 94.206C420.241 95.928 419.339 99.454 419.257 101.75H424.997ZM473.091 148.49C473.747 151.114 475.223 153.492 477.027 154.394C481.455 154.394 486.457 153.246 488.671 151.934C489.491 150.294 490.229 147.26 490.065 145.128C488.671 145.456 486.211 145.784 484.653 145.784C483.997 144.554 483.505 142.258 483.505 139.716V125.94C483.505 115.526 477.847 111.59 467.515 111.59C462.513 111.59 455.789 112.574 452.755 113.722C451.853 115.444 451.115 118.56 451.115 121.348C451.115 122.086 451.279 123.562 451.443 124.218C454.477 122.578 460.955 120.774 464.727 120.774C469.483 120.774 471.943 122.578 471.943 126.842V129.876C469.975 129.056 467.597 128.564 465.219 128.564C456.035 128.564 448.491 133.074 448.491 142.176C448.491 150.376 454.313 154.394 460.299 154.394C466.367 154.394 470.057 152.18 472.353 148.49H473.091ZM472.189 143.242C470.877 144.718 468.663 146.194 465.465 146.194C462.759 146.194 460.381 144.554 460.381 140.864C460.381 137.338 462.923 135.042 467.679 135.042C468.745 135.042 470.713 135.206 472.189 135.534V143.242ZM518.439 124.792C520.489 125.94 524.835 127.17 527.459 127.17C528.279 125.12 529.017 121.266 529.017 118.232C529.017 117.084 528.935 115.444 528.771 114.624C525.163 112.738 520.735 111.59 515.815 111.59C502.613 111.59 493.429 120.856 493.429 133.648C493.429 145.784 500.891 154.394 513.027 154.394C518.111 154.394 523.113 153.164 526.803 151.196C528.115 149.228 529.017 145.702 528.853 143.57C525.491 145.046 520.981 145.948 516.881 145.948C510.649 145.948 506.139 141.766 506.139 132.172C506.139 123.234 510.157 119.134 515.651 119.134C516.471 119.134 517.537 119.298 518.439 119.626V124.792ZM571.401 135.534C572.631 121.102 568.449 111.59 555.903 111.59C543.111 111.59 534.829 120.856 534.829 133.812C534.829 145.62 542.209 154.394 555.247 154.394C561.069 154.394 566.153 152.918 569.187 151.278C570.499 149.228 571.483 145.538 571.237 143.324C568.285 144.39 562.053 145.456 558.363 145.456C551.885 145.456 547.867 141.93 547.211 135.534H571.401ZM546.801 127.99C547.211 122.578 550.163 118.724 554.345 118.724C559.183 118.724 560.577 123.726 560.085 127.99H546.801Z" fill="url(#paint0_radial)"/>
<defs>
<radialGradient id="paint0_radial" cx="0" cy="0" r="1" gradientUnits="userSpaceOnUse" gradientTransform="translate(9.00001 11) rotate(24.7134) scale(792.757 2641.1)">
<stop stop-color="#A56DFF"/>
<stop offset="0.479235" stop-color="#007DFA"/>
<stop offset="0.729167" stop-color="#007DFA"/>
</radialGradient>
</defs>
</svg>
