<svg width="88" height="88" viewBox="0 0 88 88" fill="none" xmlns="http://www.w3.org/2000/svg">
<g opacity="0.8">
<path opacity="0.2" d="M8.25 20.625H52.25C55.1674 20.625 57.9653 21.7839 60.0282 23.8468C62.0911 25.9097 63.25 28.7076 63.25 31.625V64.625C63.25 65.3543 62.9603 66.0538 62.4445 66.5695C61.9288 67.0853 61.2293 67.375 60.5 67.375H16.5C13.5826 67.375 10.7847 66.2161 8.72183 64.1532C6.65893 62.0903 5.5 59.2924 5.5 56.375V23.375C5.5 22.6457 5.78973 21.9462 6.30546 21.4305C6.82118 20.9147 7.52065 20.625 8.25 20.625Z" fill="white"/>
<path d="M8.25 20.625H52.25C55.1674 20.625 57.9653 21.7839 60.0282 23.8468C62.0911 25.9097 63.25 28.7076 63.25 31.625V64.625C63.25 65.3543 62.9603 66.0538 62.4445 66.5695C61.9288 67.0853 61.2293 67.375 60.5 67.375H16.5C13.5826 67.375 10.7847 66.2161 8.72183 64.1532C6.65893 62.0903 5.5 59.2924 5.5 56.375V23.375C5.5 22.6457 5.78973 21.9462 6.30546 21.4305C6.82118 20.9147 7.52065 20.625 8.25 20.625V20.625Z" stroke="#8A84C8" stroke-width="3" stroke-linecap="round" stroke-linejoin="round"/>
<path opacity="0.2" d="M63.25 38.5L82.5 27.5V60.5L63.25 49.5" fill="#5B97CD"/>
<path d="M63.25 38.5L82.5 27.5V60.5L63.25 49.5" stroke="#8A84C8" stroke-width="3" stroke-linecap="round" stroke-linejoin="round"/>
</g>
</svg>
