<svg width="88" height="88" viewBox="0 0 88 88" fill="none" xmlns="http://www.w3.org/2000/svg">
<g opacity="0.8">
<path d="M11 74.25V19.25C11 18.5207 11.2897 17.8212 11.8055 17.3055C12.3212 16.7897 13.0207 16.5 13.75 16.5H74.25C74.9793 16.5 75.6788 16.7897 76.1945 17.3055C76.7103 17.8212 77 18.5207 77 19.25V74.25L66 68.75L55 74.25L44 68.75L33 74.25L22 68.75L11 74.25Z" stroke="#8A84C8" stroke-width="3" stroke-linecap="round" stroke-linejoin="round"/>
<path d="M49.5 38.5H66" stroke="#8A84C8" stroke-width="3" stroke-linecap="round" stroke-linejoin="round"/>
<path d="M49.5 49.5H66" stroke="#8A84C8" stroke-width="3" stroke-linecap="round" stroke-linejoin="round"/>
<path opacity="0.2" d="M38.5 33H22V55H38.5V33Z" fill="#5B97CD"/>
<path d="M38.5 33H22V55H38.5V33Z" stroke="#8A84C8" stroke-width="3" stroke-linecap="round" stroke-linejoin="round"/>
</g>
</svg>
