<svg width="88" height="88" viewBox="0 0 88 88" fill="none" xmlns="http://www.w3.org/2000/svg">
<g opacity="0.8">
<path opacity="0.2" d="M11 68.75C12.4587 68.75 13.8576 68.1705 14.8891 67.1391C15.9205 66.1076 16.5 64.7087 16.5 63.25V22C16.5 21.2707 16.7897 20.5712 17.3055 20.0555C17.8212 19.5397 18.5207 19.25 19.25 19.25H74.25C74.9793 19.25 75.6788 19.5397 76.1945 20.0555C76.7103 20.5712 77 21.2707 77 22V63.25C77 64.7087 76.4205 66.1076 75.3891 67.1391C74.3576 68.1705 72.9587 68.75 71.5 68.75H11Z" fill="#5B97CD"/>
<path d="M33 38.5H60.5" stroke="#8A84C8" stroke-width="3" stroke-linecap="round" stroke-linejoin="round"/>
<path d="M33 49.5H60.5" stroke="#8A84C8" stroke-width="3" stroke-linecap="round" stroke-linejoin="round"/>
<path d="M11 68.75C12.4587 68.75 13.8576 68.1705 14.8891 67.1391C15.9205 66.1076 16.5 64.7087 16.5 63.25V22C16.5 21.2707 16.7897 20.5712 17.3055 20.0555C17.8212 19.5397 18.5207 19.25 19.25 19.25H74.25C74.9793 19.25 75.6788 19.5397 76.1945 20.0555C76.7103 20.5712 77 21.2707 77 22V63.25C77 64.7087 76.4205 66.1076 75.3891 67.1391C74.3576 68.1705 72.9587 68.75 71.5 68.75H11Z" stroke="#8A84C8" stroke-width="3" stroke-linecap="round" stroke-linejoin="round"/>
<path d="M11 68.75C9.54131 68.75 8.14236 68.1705 7.11091 67.1391C6.07946 66.1076 5.5 64.7087 5.5 63.25V30.25" stroke="#8A84C8" stroke-width="3" stroke-linecap="round" stroke-linejoin="round"/>
</g>
</svg>
