<svg width="88" height="88" viewBox="0 0 88 88" fill="none" xmlns="http://www.w3.org/2000/svg">
<g opacity="0.8">
<path opacity="0.2" d="M35.7505 16.5H19.2505C17.7317 16.5 16.5005 17.7312 16.5005 19.25V35.75C16.5005 37.2688 17.7317 38.5 19.2505 38.5H35.7505C37.2693 38.5 38.5005 37.2688 38.5005 35.75V19.25C38.5005 17.7312 37.2693 16.5 35.7505 16.5Z" fill="#5B97CD"/>
<path opacity="0.2" d="M35.7505 49.5H19.2505C17.7317 49.5 16.5005 50.7312 16.5005 52.25V68.75C16.5005 70.2688 17.7317 71.5 19.2505 71.5H35.7505C37.2693 71.5 38.5005 70.2688 38.5005 68.75V52.25C38.5005 50.7312 37.2693 49.5 35.7505 49.5Z" fill="#5B97CD"/>
<path opacity="0.2" d="M68.7507 16.5H52.2507C50.7319 16.5 49.5007 17.7312 49.5007 19.25V35.75C49.5007 37.2688 50.7319 38.5 52.2507 38.5H68.7507C70.2695 38.5 71.5007 37.2688 71.5007 35.75V19.25C71.5007 17.7312 70.2695 16.5 68.7507 16.5Z" fill="#5B97CD"/>
<path d="M35.7505 16.5H19.2505C17.7317 16.5 16.5005 17.7312 16.5005 19.25V35.75C16.5005 37.2688 17.7317 38.5 19.2505 38.5H35.7505C37.2693 38.5 38.5005 37.2688 38.5005 35.75V19.25C38.5005 17.7312 37.2693 16.5 35.7505 16.5Z" stroke="#8A84C8" stroke-width="3" stroke-linecap="round" stroke-linejoin="round"/>
<path d="M35.7505 49.5H19.2505C17.7317 49.5 16.5005 50.7312 16.5005 52.25V68.75C16.5005 70.2688 17.7317 71.5 19.2505 71.5H35.7505C37.2693 71.5 38.5005 70.2688 38.5005 68.75V52.25C38.5005 50.7312 37.2693 49.5 35.7505 49.5Z" stroke="#8A84C8" stroke-width="3" stroke-linecap="round" stroke-linejoin="round"/>
<path d="M68.7507 16.5H52.2507C50.7319 16.5 49.5007 17.7312 49.5007 19.25V35.75C49.5007 37.2688 50.7319 38.5 52.2507 38.5H68.7507C70.2695 38.5 71.5007 37.2688 71.5007 35.75V19.25C71.5007 17.7312 70.2695 16.5 68.7507 16.5Z" stroke="#8A84C8" stroke-width="3" stroke-linecap="round" stroke-linejoin="round"/>
<path d="M49.5007 49.5V60.5" stroke="#8A84C8" stroke-width="3" stroke-linecap="round" stroke-linejoin="round"/>
<path d="M49.5007 71.5H60.5007V49.5" stroke="#8A84C8" stroke-width="3" stroke-linecap="round" stroke-linejoin="round"/>
<path d="M60.5007 55H71.5007" stroke="#8A84C8" stroke-width="3" stroke-linecap="round" stroke-linejoin="round"/>
<path d="M71.5007 66V71.5" stroke="#8A84C8" stroke-width="3" stroke-linecap="round" stroke-linejoin="round"/>
</g>
</svg>
