<svg width="88" height="88" viewBox="0 0 88 88" fill="none" xmlns="http://www.w3.org/2000/svg">
<g opacity="0.8">
<path opacity="0.2" d="M51.2188 54.9423L59.1313 54.9106C61.7409 54.9083 64.3184 54.3352 66.6831 53.2313C69.0477 52.1275 71.1423 50.5197 72.8199 48.5208C74.4974 46.5218 75.7174 44.1801 76.3942 41.6598C77.071 39.1394 77.1882 36.5016 76.7377 33.9312L76.7347 33.9317L82.3554 62.9521C82.7107 64.968 82.4141 67.0447 81.5087 68.8805C80.6033 70.7163 79.1363 72.2157 77.3206 73.1609C75.5049 74.1061 73.4352 74.4479 71.4121 74.1366C69.3889 73.8254 67.5177 72.8772 66.0701 71.4299L66.0707 71.4293L51.2188 54.9423Z" fill="#5B97CD"/>
<path d="M52.25 37.125H63.25" stroke="#8A84C8" stroke-width="3" stroke-linecap="round" stroke-linejoin="round"/>
<path d="M24.75 37.125H35.75" stroke="#8A84C8" stroke-width="3" stroke-linecap="round" stroke-linejoin="round"/>
<path d="M30.25 31.625V42.625" stroke="#8A84C8" stroke-width="3" stroke-linecap="round" stroke-linejoin="round"/>
<path d="M59.1311 19.1604L28.8765 19.2498C24.6739 19.2502 20.6057 20.7308 17.386 23.4319C14.1664 26.1329 12.0011 29.8818 11.2701 34.0203L11.2731 34.0208L5.64784 62.9518C5.29253 64.9676 5.58911 67.0443 6.4945 68.8801C7.3999 70.716 8.86696 72.2154 10.6826 73.1606C12.4983 74.1058 14.568 74.4475 16.5911 74.1363C18.6142 73.825 20.4855 72.8769 21.933 71.4296L21.9325 71.429L36.7946 54.9998L59.1311 54.9103C63.8718 54.9103 68.4184 53.0271 71.7706 49.6749C75.1228 46.3227 77.0061 41.7761 77.0061 37.0354C77.0061 32.2946 75.1228 27.7481 71.7706 24.3959C68.4184 21.0436 63.8718 19.1604 59.1311 19.1604V19.1604Z" stroke="#8A84C8" stroke-width="3" stroke-linecap="round" stroke-linejoin="round"/>
<path d="M76.7347 33.9316L82.3554 62.9521C82.7107 64.968 82.4141 67.0446 81.5087 68.8805C80.6033 70.7163 79.1363 72.2157 77.3206 73.1609C75.5049 74.1061 73.4352 74.4479 71.4121 74.1366C69.3889 73.8253 67.5177 72.8772 66.0701 71.4299L66.0707 71.4293L51.2188 54.9423" stroke="#8A84C8" stroke-width="3" stroke-linecap="round" stroke-linejoin="round"/>
</g>
</svg>
