<svg width="266" height="141" viewBox="0 0 266 141" fill="none" xmlns="http://www.w3.org/2000/svg">
<path d="M5.11686 24.8206C4.41378 24.9378 3.08574 25.1721 2.49984 25.4065C2.1483 26.1877 1.79676 27.9454 1.71864 28.9219C5.4684 29.1562 11.6399 29.2734 15.3115 29.2734C22.0689 29.2734 29.0216 24.8206 29.0216 14.6259C29.0216 5.25152 22.8501 1.03304 13.7882 1.03304C11.093 1.03304 5.39028 1.38458 2.49984 1.73612C2.30454 2.55638 2.38266 4.54844 2.5389 5.40776C3.20292 5.52494 4.33566 5.68118 5.11686 5.7593V24.8206ZM11.1321 5.01716C11.7961 4.93904 12.8898 4.86092 13.5538 4.86092C19.1394 4.86092 22.8501 8.06384 22.8501 15.2509C22.8501 22.516 19.3347 25.4065 14.1788 25.4065C13.3195 25.4065 11.9914 25.3674 11.1321 25.2893V5.01716ZM42.7524 26.8517C43.0649 28.1016 43.768 29.2344 44.6273 29.664C46.7365 29.664 49.1192 29.1172 50.1738 28.4922C50.5644 27.711 50.9159 26.2658 50.8378 25.2502C50.1738 25.4065 49.002 25.5627 48.2599 25.5627C47.9474 24.9768 47.713 23.8831 47.713 22.6723V16.1102C47.713 11.1496 45.0179 9.2747 40.0963 9.2747C37.7137 9.2747 34.5107 9.74342 33.0655 10.2903C32.6359 11.1105 32.2843 12.5948 32.2843 13.9228C32.2843 14.2744 32.3624 14.9775 32.4406 15.2899C33.8858 14.5087 36.9715 13.6494 38.7683 13.6494C41.0338 13.6494 42.2056 14.5087 42.2056 16.5399V17.9851C41.2681 17.5945 40.1354 17.3601 39.0026 17.3601C34.6279 17.3601 31.0344 19.5084 31.0344 23.8441C31.0344 27.7501 33.8077 29.664 36.659 29.664C39.5495 29.664 41.3072 28.6094 42.4009 26.8517H42.7524ZM42.3227 24.3519C41.6978 25.0549 40.6432 25.758 39.1198 25.758C37.8308 25.758 36.6981 24.9768 36.6981 23.2191C36.6981 21.5395 37.909 20.4459 40.1744 20.4459C40.6822 20.4459 41.6197 20.524 42.3227 20.6802V24.3519ZM60.7206 15.7196C61.5799 14.5869 62.908 13.6104 64.4313 13.6104C66.6968 13.6104 67.478 15.2118 67.478 17.4773V25.0549C66.8921 25.3284 66.0718 25.719 65.6422 26.1486C65.4078 26.7736 65.2125 28.0626 65.1344 29H75.8368C75.954 28.2188 75.8368 26.5783 75.6806 25.9533C74.9775 25.6408 73.7276 25.3284 72.9073 25.2112C73.1026 22.516 73.2198 19.235 73.2198 16.4227C73.2198 10.2512 70.095 9.2747 66.814 9.2747C63.4548 9.2747 61.5018 10.9933 60.4472 13.1026H59.8613V10.0168C59.2754 9.74342 58.1036 9.58718 57.1661 9.58718C55.6428 9.58718 54.1195 9.89966 53.182 10.3684C52.7133 11.1886 52.2836 12.8682 52.2446 13.9619H55.0569V25.0549C54.3148 25.3284 53.3383 25.719 52.7914 26.1486C52.518 26.7736 52.2446 28.0626 52.1665 29H63.4157C63.5329 28.2188 63.4157 26.5783 63.2595 25.9533C62.6736 25.6408 61.4627 25.3674 60.7206 25.2502V15.7196ZM80.6845 29.4687C79.1612 29.8203 77.5597 31.1483 77.5597 33.4919C77.5597 37.1635 81.7001 39.1165 87.4419 39.1165C93.7306 39.1165 98.6912 36.9682 98.6912 31.9295C98.6912 27.3985 94.7852 26.2267 89.434 26.2267C86.0358 26.2267 84.6687 25.8361 84.6687 24.7034C84.6687 24.3909 84.7858 24.0394 84.9421 23.7269C85.6452 23.8831 86.5435 23.9613 87.3638 23.9613C92.5978 23.9613 95.8398 21.2661 95.8398 16.618C95.8398 15.4852 95.6445 14.5087 95.293 13.6104H99.2771C99.2771 12.3995 98.8865 10.5637 98.4568 9.58718C97.7538 9.39188 97.0116 9.2747 96.1914 9.2747C94.7071 9.2747 93.1837 9.62624 92.1291 10.2512C90.723 9.54812 89.0824 9.2747 87.3638 9.2747C82.5204 9.2747 78.8487 12.048 78.8487 16.618C78.8487 19.4694 79.9424 21.188 81.5048 22.2036V22.5551C80.2158 23.141 79.044 24.3909 79.044 26.2267C79.044 27.5157 79.9424 28.7266 80.6845 29.1172V29.4687ZM83.9265 30.3671C85.3327 30.6405 86.9732 30.7577 88.145 30.7577C92.051 30.7577 93.34 31.4608 93.34 32.7107C93.34 34.6246 90.8401 35.6402 88.1059 35.6402C85.4889 35.6402 82.8719 34.6637 82.8719 32.5154C82.8719 31.6561 83.2625 30.953 83.9265 30.3671ZM84.5124 16.618C84.5124 13.9228 85.4108 12.3995 87.3638 12.3995C89.0824 12.3995 90.1371 14.1572 90.1371 16.618C90.1371 19.1959 89.2387 20.8755 87.3638 20.8755C85.567 20.8755 84.5124 19.1569 84.5124 16.618ZM103.124 28.4532C102.811 30.6015 101.991 33.531 101.171 35.8355C101.678 36.3042 103.045 37.0073 104.061 37.2807C105.741 34.5465 108.24 28.7266 108.904 24.6643C107.733 24.2737 106.053 24.0003 104.764 24.0003C104.061 24.0003 103.163 24.0784 102.577 24.2347C101.835 25.0159 101.092 26.7345 100.78 27.9454L103.124 28.4532ZM121.794 9.35282C121.169 9.50906 120.232 9.8606 119.646 10.2121C119.255 11.0324 118.943 12.8682 118.943 13.8057H121.872C121.599 16.8914 121.482 20.7193 121.482 23.2582C121.482 27.8282 123.357 29.664 127.106 29.664C128.552 29.664 130.934 29.2344 132.419 28.4141C133.004 27.4767 133.434 25.758 133.356 24.7425C132.34 25.0159 130.7 25.2502 129.723 25.2502C128.122 25.2502 127.224 24.5862 127.224 22.4379V13.8057H132.848C133.004 12.6729 132.848 10.7199 132.653 9.93872H127.224V3.96254C125.739 3.96254 123.513 4.35314 122.497 4.89998L121.794 9.35282ZM143.564 16.2274C144.384 14.8603 145.673 13.6104 147.548 13.6104C149.775 13.6104 150.556 15.2118 150.556 17.4773V25.0549C149.97 25.3284 149.15 25.719 148.72 26.1486C148.486 26.7736 148.29 28.0626 148.212 29H158.915C159.032 28.2188 158.915 26.5783 158.758 25.9533C158.055 25.6408 156.805 25.3284 155.985 25.2112C156.181 22.6332 156.298 19.235 156.298 16.4227C156.298 10.2512 153.173 9.2747 149.931 9.2747C146.65 9.2747 144.697 10.759 143.759 13.1026H143.174C143.408 10.9933 143.564 8.45444 143.564 6.5405V0.642439C142.9 0.369017 141.494 0.212777 140.517 0.212777C138.838 0.212777 137.119 0.525258 136.104 0.993979C135.635 1.81424 135.205 3.49382 135.166 4.5875H137.9V25.0549C137.158 25.3284 136.182 25.719 135.635 26.1486C135.362 26.7736 135.088 28.0626 135.01 29H146.259C146.376 28.2188 146.259 26.5783 146.103 25.9533C145.517 25.6408 144.306 25.3674 143.564 25.2502V16.2274ZM170.194 9.2747C164.569 9.2747 160.351 13.0245 160.351 19.1569C160.351 26.0705 163.905 29.664 170.194 29.664C176.131 29.664 179.998 25.8752 179.998 19.1569C179.998 12.7901 176.053 9.2747 170.194 9.2747ZM166.171 19.1569C166.171 15.4071 167.577 12.9073 170.194 12.9073C172.616 12.9073 174.139 15.5634 174.139 19.1569C174.139 23.3754 172.889 25.9924 170.194 25.9924C167.694 25.9924 166.171 23.2972 166.171 19.1569ZM192.251 14.704C193.306 15.1728 195.064 15.5634 196.704 15.5634C196.978 14.6259 197.134 13.2198 197.134 11.9698C197.134 11.5011 197.095 10.9933 197.056 10.6027C194.947 9.6653 192.642 9.2747 190.494 9.2747C185.65 9.2747 182.799 11.6574 182.799 15.1337C182.799 22.7895 192.095 20.8365 192.095 24.3909C192.095 25.6408 191.275 26.1877 189.83 26.1877C188.97 26.1877 187.916 25.9143 187.213 25.5237V23.3754C185.846 22.9066 184.361 22.7504 182.721 22.7504C182.486 23.5316 182.33 24.8206 182.33 26.0705C182.33 26.8517 182.408 27.5938 182.526 28.1797C184.557 29.2734 186.939 29.664 189.556 29.664C193.892 29.664 197.642 28.0235 197.642 23.3363C197.642 16.0711 188.463 18.0632 188.463 14.2353C188.463 13.1026 189.166 12.5167 190.533 12.5167C191.197 12.5167 191.822 12.712 192.251 12.9463V14.704ZM217.594 20.6802C218.18 13.8057 216.188 9.2747 210.212 9.2747C204.119 9.2747 200.174 13.6885 200.174 19.86C200.174 25.4846 203.689 29.664 209.9 29.664C212.673 29.664 215.095 28.9609 216.54 28.1797C217.165 27.2032 217.633 25.4455 217.516 24.3909C216.11 24.8987 213.142 25.4065 211.384 25.4065C208.298 25.4065 206.384 23.7269 206.072 20.6802H217.594ZM205.876 17.0867C206.072 14.5087 207.478 12.6729 209.47 12.6729C211.774 12.6729 212.438 15.0556 212.204 17.0867H205.876ZM12.6945 77.8517C13.007 79.1016 13.7101 80.2344 14.5694 80.664C16.6786 80.664 19.0613 80.1172 20.1159 79.4922C20.5065 78.711 20.858 77.2658 20.7799 76.2502C20.1159 76.4065 18.9441 76.5627 18.202 76.5627C17.8895 75.9768 17.6551 74.8831 17.6551 73.6723V67.1102C17.6551 62.1496 14.96 60.2747 10.0384 60.2747C7.65576 60.2747 4.45284 60.7434 3.00762 61.2903C2.57796 62.1105 2.22642 63.5948 2.22642 64.9228C2.22642 65.2744 2.30454 65.9775 2.38266 66.2899C3.82788 65.5087 6.91362 64.6494 8.71038 64.6494C10.9759 64.6494 12.1477 65.5087 12.1477 67.5399V68.9851C11.2102 68.5945 10.0775 68.3601 8.94474 68.3601C4.57002 68.3601 0.9765 70.5084 0.9765 74.8441C0.9765 78.7501 3.74976 80.664 6.60114 80.664C9.49158 80.664 11.2493 79.6094 12.343 77.8517H12.6945ZM12.2648 75.3519C11.6399 76.0549 10.5853 76.758 9.06192 76.758C7.77294 76.758 6.6402 75.9768 6.6402 74.2191C6.6402 72.5395 7.85106 71.4459 10.1165 71.4459C10.6243 71.4459 11.5618 71.524 12.2648 71.6802V75.3519ZM29.8034 64.6885V61.0168C29.2175 60.7434 28.0457 60.5872 27.1083 60.5872C25.5849 60.5872 24.0616 60.8997 23.1241 61.3684C22.6164 62.2277 22.2648 63.8682 22.2648 64.9619H24.999V76.0549C24.2569 76.3284 23.2804 76.719 22.7335 77.1486C22.4601 77.7736 22.1867 79.0626 22.1086 80H34.725C34.8421 79.2188 34.725 77.5783 34.4906 76.9533C33.6313 76.6018 31.8345 76.2502 30.6627 76.1331V67.8133C31.6783 66.1728 33.2797 65.2353 34.9984 65.2353C35.7405 65.2353 37.1467 65.4306 37.9669 65.8993C38.1232 65.3916 38.2013 64.7275 38.2013 64.0635C38.2013 62.7355 37.9279 61.3684 37.4201 60.6653C36.9514 60.4309 36.1311 60.2747 35.428 60.2747C32.6938 60.2747 30.819 62.6183 30.3893 64.6885H29.8034ZM57.54 71.6802C58.1259 64.8057 56.1338 60.2747 50.1576 60.2747C44.0643 60.2747 40.1192 64.6885 40.1192 70.86C40.1192 76.4846 43.6346 80.664 49.8451 80.664C52.6184 80.664 55.0401 79.9609 56.4853 79.1797C57.1103 78.2032 57.579 76.4455 57.4618 75.3909C56.0557 75.8987 53.0871 76.4065 51.3294 76.4065C48.2437 76.4065 46.3297 74.7269 46.0173 71.6802H57.54ZM45.822 68.0867C46.0173 65.5087 47.4234 63.6729 49.4155 63.6729C51.72 63.6729 52.384 66.0556 52.1497 68.0867H45.822ZM79.2674 65.704C80.322 66.1728 82.0797 66.5634 83.7202 66.5634C83.9937 65.6259 84.1499 64.2198 84.1499 62.9698C84.1499 62.5011 84.1108 61.9933 84.0718 61.6027C81.9625 60.6653 79.658 60.2747 77.5097 60.2747C72.6663 60.2747 69.8149 62.6574 69.8149 66.1337C69.8149 73.7895 79.1112 71.8365 79.1112 75.3909C79.1112 76.6408 78.2909 77.1877 76.8457 77.1877C75.9864 77.1877 74.9317 76.9143 74.2287 76.5237V74.3754C72.8616 73.9066 71.3773 73.7504 69.7368 73.7504C69.5024 74.5316 69.3462 75.8206 69.3462 77.0705C69.3462 77.8517 69.4243 78.5938 69.5415 79.1797C71.5726 80.2734 73.9552 80.664 76.5723 80.664C80.9079 80.664 84.6577 79.0235 84.6577 74.3363C84.6577 67.0711 75.4786 69.0632 75.4786 65.2353C75.4786 64.1026 76.1817 63.5167 77.5488 63.5167C78.2128 63.5167 78.8377 63.712 79.2674 63.9463V65.704ZM97.0327 60.2747C91.408 60.2747 87.1895 64.0245 87.1895 70.1569C87.1895 77.0705 90.744 80.664 97.0327 80.664C102.97 80.664 106.837 76.8752 106.837 70.1569C106.837 63.7901 102.892 60.2747 97.0327 60.2747ZM93.0095 70.1569C93.0095 66.4071 94.4156 63.9073 97.0327 63.9073C99.4544 63.9073 100.978 66.5634 100.978 70.1569C100.978 74.3754 99.7278 76.9924 97.0327 76.9924C94.5328 76.9924 93.0095 74.2972 93.0095 70.1569ZM117.632 66.6805C118.492 65.5478 119.741 64.6104 121.187 64.6104C123.374 64.6104 124.116 66.2118 124.116 68.4773V76.0549C123.569 76.3284 122.788 76.719 122.398 77.1486C122.163 77.7736 122.007 79.0626 121.929 80H132.28C132.397 79.2188 132.28 77.5783 132.124 76.9533C131.538 76.6408 130.366 76.3674 129.624 76.2502V66.6805C130.483 65.5869 131.694 64.6104 133.178 64.6104C135.365 64.6104 136.108 66.2118 136.108 68.4773V76.0549C135.522 76.3284 134.78 76.719 134.35 77.1486C134.116 77.7736 133.92 79.0626 133.842 80H144.466C144.584 79.2188 144.466 77.5783 144.31 76.9533C143.607 76.6408 142.357 76.3284 141.537 76.2112C141.732 73.6332 141.849 70.235 141.849 67.4227C141.849 61.2512 138.803 60.2747 135.561 60.2747C132.241 60.2747 130.249 62.0715 129.389 64.2588H129.038C128.335 60.9387 126.304 60.2747 123.569 60.2747C120.327 60.2747 118.413 61.9152 117.359 64.1026H116.773V61.0168C116.187 60.7434 115.015 60.5872 114.078 60.5872C112.554 60.5872 111.031 60.8997 110.094 61.3684C109.625 62.1886 109.195 63.8682 109.156 64.9619H111.969V76.0549C111.226 76.3284 110.25 76.719 109.703 77.1486C109.43 77.7736 109.156 79.0626 109.078 80H120.288C120.406 79.2188 120.288 77.5783 120.132 76.9533C119.546 76.6408 118.374 76.3674 117.632 76.2502V66.6805ZM163.505 71.6802C164.091 64.8057 162.099 60.2747 156.123 60.2747C150.03 60.2747 146.085 64.6885 146.085 70.86C146.085 76.4846 149.6 80.664 155.811 80.664C158.584 80.664 161.006 79.9609 162.451 79.1797C163.076 78.2032 163.545 76.4455 163.427 75.3909C162.021 75.8987 159.053 76.4065 157.295 76.4065C154.209 76.4065 152.295 74.7269 151.983 71.6802H163.505ZM151.787 68.0867C151.983 65.5087 153.389 63.6729 155.381 63.6729C157.686 63.6729 158.35 66.0556 158.115 68.0867H151.787ZM12.6945 128.852C13.007 130.102 13.7101 131.234 14.5694 131.664C16.6786 131.664 19.0613 131.117 20.1159 130.492C20.5065 129.711 20.858 128.266 20.7799 127.25C20.1159 127.406 18.9441 127.563 18.202 127.563C17.8895 126.977 17.6551 125.883 17.6551 124.672V118.11C17.6551 113.15 14.96 111.275 10.0384 111.275C7.65576 111.275 4.45284 111.743 3.00762 112.29C2.57796 113.111 2.22642 114.595 2.22642 115.923C2.22642 116.274 2.30454 116.977 2.38266 117.29C3.82788 116.509 6.91362 115.649 8.71038 115.649C10.9759 115.649 12.1477 116.509 12.1477 118.54V119.985C11.2102 119.594 10.0775 119.36 8.94474 119.36C4.57002 119.36 0.9765 121.508 0.9765 125.844C0.9765 129.75 3.74976 131.664 6.60114 131.664C9.49158 131.664 11.2493 130.609 12.343 128.852H12.6945ZM12.2648 126.352C11.6399 127.055 10.5853 127.758 9.06192 127.758C7.77294 127.758 6.6402 126.977 6.6402 125.219C6.6402 123.54 7.85106 122.446 10.1165 122.446C10.6243 122.446 11.5618 122.524 12.2648 122.68V126.352ZM30.9752 126.821C30.8971 125.532 30.5455 123.657 30.194 122.368L29.2566 118.774C29.1003 118.149 28.5925 116.821 28.1238 116.001C28.7097 115.923 29.7253 115.649 30.194 115.415C30.5455 114.478 30.819 113.071 30.819 111.939H21.2883C21.3274 112.954 21.4446 114.321 21.718 115.181C21.9914 115.454 22.6554 115.884 23.0851 116.04L27.4598 131.586L33.7875 131L36.1702 121.626C36.4827 120.337 36.8733 118.032 36.9123 116.665H37.381C37.4201 117.993 37.7326 120.298 38.0451 121.626L40.4277 131.586L46.7164 131L51.3255 115.923C51.7551 115.884 52.4973 115.688 52.8879 115.532C53.2003 114.673 53.5519 113.032 53.5519 111.939H45.154C45.154 113.032 45.3102 114.399 45.6227 115.22C46.0133 115.493 46.7554 115.767 47.3023 115.923C46.9507 116.548 46.443 118.032 46.2086 118.97L45.2712 122.329C44.9587 123.5 44.4509 125.649 44.3337 126.86H43.9041C43.8259 125.61 43.5135 123.579 43.24 122.29L40.8183 111.392L34.5687 111.978L32.147 122.407C31.8736 123.579 31.5611 125.414 31.4439 126.821H30.9752ZM71.9204 122.68C72.5063 115.806 70.5143 111.275 64.5381 111.275C58.4447 111.275 54.4997 115.688 54.4997 121.86C54.4997 127.485 58.0151 131.664 64.2256 131.664C66.9989 131.664 69.4206 130.961 70.8658 130.18C71.4908 129.203 71.9595 127.446 71.8423 126.391C70.4362 126.899 67.4676 127.406 65.7099 127.406C62.6242 127.406 60.7102 125.727 60.3977 122.68H71.9204ZM60.2024 119.087C60.3977 116.509 61.8039 114.673 63.796 114.673C66.1005 114.673 66.7645 117.056 66.5302 119.087H60.2024ZM84.8746 116.704C85.9293 117.173 87.687 117.563 89.3275 117.563C89.6009 116.626 89.7571 115.22 89.7571 113.97C89.7571 113.501 89.7181 112.993 89.679 112.603C87.5698 111.665 85.2652 111.275 83.1169 111.275C78.2735 111.275 75.4221 113.657 75.4221 117.134C75.4221 124.789 84.7184 122.836 84.7184 126.391C84.7184 127.641 83.8981 128.188 82.4529 128.188C81.5936 128.188 80.539 127.914 79.8359 127.524V125.375C78.4688 124.907 76.9845 124.75 75.344 124.75C75.1096 125.532 74.9534 126.821 74.9534 128.07C74.9534 128.852 75.0315 129.594 75.1487 130.18C77.1798 131.273 79.5625 131.664 82.1795 131.664C86.5152 131.664 90.2649 130.023 90.2649 125.336C90.2649 118.071 81.0858 120.063 81.0858 116.235C81.0858 115.103 81.7889 114.517 83.156 114.517C83.82 114.517 84.445 114.712 84.8746 114.946V116.704ZM102.64 111.275C97.0153 111.275 92.7968 115.024 92.7968 121.157C92.7968 128.07 96.3513 131.664 102.64 131.664C108.577 131.664 112.444 127.875 112.444 121.157C112.444 114.79 108.499 111.275 102.64 111.275ZM98.6167 121.157C98.6167 117.407 100.023 114.907 102.64 114.907C105.062 114.907 106.585 117.563 106.585 121.157C106.585 125.375 105.335 127.992 102.64 127.992C100.14 127.992 98.6167 125.297 98.6167 121.157ZM123.239 117.681C124.099 116.548 125.349 115.61 126.794 115.61C128.981 115.61 129.723 117.212 129.723 119.477V127.055C129.177 127.328 128.395 127.719 128.005 128.149C127.77 128.774 127.614 130.063 127.536 131H137.887C138.004 130.219 137.887 128.578 137.731 127.953C137.145 127.641 135.973 127.367 135.231 127.25V117.681C136.09 116.587 137.301 115.61 138.785 115.61C140.973 115.61 141.715 117.212 141.715 119.477V127.055C141.129 127.328 140.387 127.719 139.957 128.149C139.723 128.774 139.528 130.063 139.449 131H150.074C150.191 130.219 150.074 128.578 149.917 127.953C149.214 127.641 147.964 127.328 147.144 127.211C147.34 124.633 147.457 121.235 147.457 118.423C147.457 112.251 144.41 111.275 141.168 111.275C137.848 111.275 135.856 113.071 134.997 115.259H134.645C133.942 111.939 131.911 111.275 129.177 111.275C125.935 111.275 124.021 112.915 122.966 115.103H122.38V112.017C121.794 111.743 120.622 111.587 119.685 111.587C118.162 111.587 116.638 111.9 115.701 112.368C115.232 113.189 114.803 114.868 114.763 115.962H117.576V127.055C116.834 127.328 115.857 127.719 115.31 128.149C115.037 128.774 114.763 130.063 114.685 131H125.896C126.013 130.219 125.896 128.578 125.739 127.953C125.153 127.641 123.982 127.367 123.239 127.25V117.681ZM169.113 122.68C169.699 115.806 167.707 111.275 161.73 111.275C155.637 111.275 151.692 115.688 151.692 121.86C151.692 127.485 155.207 131.664 161.418 131.664C164.191 131.664 166.613 130.961 168.058 130.18C168.683 129.203 169.152 127.446 169.035 126.391C167.628 126.899 164.66 127.406 162.902 127.406C159.816 127.406 157.902 125.727 157.59 122.68H169.113ZM157.395 119.087C157.59 116.509 158.996 114.673 160.988 114.673C163.293 114.673 163.957 117.056 163.722 119.087H157.395ZM192.012 128.852C192.324 130.102 193.028 131.234 193.887 131.664C195.996 131.664 198.379 131.117 199.433 130.492C199.824 129.711 200.175 128.266 200.097 127.25C199.433 127.406 198.262 127.563 197.519 127.563C197.207 126.977 196.973 125.883 196.973 124.672V118.11C196.973 113.15 194.277 111.275 189.356 111.275C186.973 111.275 183.77 111.743 182.325 112.29C181.895 113.111 181.544 114.595 181.544 115.923C181.544 116.274 181.622 116.977 181.7 117.29C183.145 116.509 186.231 115.649 188.028 115.649C190.293 115.649 191.465 116.509 191.465 118.54V119.985C190.528 119.594 189.395 119.36 188.262 119.36C183.887 119.36 180.294 121.508 180.294 125.844C180.294 129.75 183.067 131.664 185.919 131.664C188.809 131.664 190.567 130.609 191.66 128.852H192.012ZM191.582 126.352C190.957 127.055 189.903 127.758 188.379 127.758C187.09 127.758 185.958 126.977 185.958 125.219C185.958 123.54 187.169 122.446 189.434 122.446C189.942 122.446 190.879 122.524 191.582 122.68V126.352ZM210.727 130.648C211.626 131.273 212.837 131.664 214.36 131.664C220.141 131.664 223.852 127.367 223.852 120.61C223.852 113.696 219.868 111.275 216.352 111.275C212.876 111.275 211.313 113.306 210.454 115.103H209.868V112.017C209.282 111.743 208.11 111.587 207.173 111.587C205.65 111.587 204.126 111.9 203.189 112.368C202.72 113.189 202.291 114.868 202.251 115.962H205.064V136.312C204.322 136.586 203.345 136.976 202.798 137.406C202.525 138.031 202.251 139.32 202.173 140.257H214.673C214.79 139.476 214.673 137.836 214.438 137.211C213.579 136.859 211.821 136.507 210.727 136.39V130.648ZM210.61 117.446C211.196 116.509 212.524 115.376 214.36 115.376C216.508 115.376 217.915 117.095 217.915 121.352C217.915 125.336 216.469 127.836 212.954 127.836C212.134 127.836 211.274 127.641 210.61 127.289V117.446ZM234.568 130.648C235.466 131.273 236.677 131.664 238.2 131.664C243.981 131.664 247.692 127.367 247.692 120.61C247.692 113.696 243.708 111.275 240.192 111.275C236.716 111.275 235.154 113.306 234.294 115.103H233.709V112.017C233.123 111.743 231.951 111.587 231.013 111.587C229.49 111.587 227.967 111.9 227.029 112.368C226.561 113.189 226.131 114.868 226.092 115.962H228.904V136.312C228.162 136.586 227.185 136.976 226.639 137.406C226.365 138.031 226.092 139.32 226.014 140.257H238.513C238.63 139.476 238.513 137.836 238.279 137.211C237.419 136.859 235.662 136.507 234.568 136.39V130.648ZM234.451 117.446C235.037 116.509 236.365 115.376 238.2 115.376C240.349 115.376 241.755 117.095 241.755 121.352C241.755 125.336 240.31 127.836 236.794 127.836C235.974 127.836 235.115 127.641 234.451 127.289V117.446ZM260.072 116.704C261.127 117.173 262.885 117.563 264.525 117.563C264.799 116.626 264.955 115.22 264.955 113.97C264.955 113.501 264.916 112.993 264.877 112.603C262.768 111.665 260.463 111.275 258.315 111.275C253.471 111.275 250.62 113.657 250.62 117.134C250.62 124.789 259.916 122.836 259.916 126.391C259.916 127.641 259.096 128.188 257.651 128.188C256.791 128.188 255.737 127.914 255.034 127.524V125.375C253.667 124.907 252.182 124.75 250.542 124.75C250.307 125.532 250.151 126.821 250.151 128.07C250.151 128.852 250.229 129.594 250.347 130.18C252.378 131.273 254.76 131.664 257.377 131.664C261.713 131.664 265.463 130.023 265.463 125.336C265.463 118.071 256.284 120.063 256.284 116.235C256.284 115.103 256.987 114.517 258.354 114.517C259.018 114.517 259.643 114.712 260.072 114.946V116.704Z" fill="#3B4147"/>
<path d="M5.11686 24.8206C4.41378 24.9378 3.08574 25.1721 2.49984 25.4065C2.1483 26.1877 1.79676 27.9454 1.71864 28.9219C5.4684 29.1562 11.6399 29.2734 15.3115 29.2734C22.0689 29.2734 29.0216 24.8206 29.0216 14.6259C29.0216 5.25152 22.8501 1.03304 13.7882 1.03304C11.093 1.03304 5.39028 1.38458 2.49984 1.73612C2.30454 2.55638 2.38266 4.54844 2.5389 5.40776C3.20292 5.52494 4.33566 5.68118 5.11686 5.7593V24.8206ZM11.1321 5.01716C11.7961 4.93904 12.8898 4.86092 13.5538 4.86092C19.1394 4.86092 22.8501 8.06384 22.8501 15.2509C22.8501 22.516 19.3347 25.4065 14.1788 25.4065C13.3195 25.4065 11.9914 25.3674 11.1321 25.2893V5.01716ZM42.7524 26.8517C43.0649 28.1016 43.768 29.2344 44.6273 29.664C46.7365 29.664 49.1192 29.1172 50.1738 28.4922C50.5644 27.711 50.9159 26.2658 50.8378 25.2502C50.1738 25.4065 49.002 25.5627 48.2599 25.5627C47.9474 24.9768 47.713 23.8831 47.713 22.6723V16.1102C47.713 11.1496 45.0179 9.2747 40.0963 9.2747C37.7137 9.2747 34.5107 9.74342 33.0655 10.2903C32.6359 11.1105 32.2843 12.5948 32.2843 13.9228C32.2843 14.2744 32.3624 14.9775 32.4406 15.2899C33.8858 14.5087 36.9715 13.6494 38.7683 13.6494C41.0338 13.6494 42.2056 14.5087 42.2056 16.5399V17.9851C41.2681 17.5945 40.1354 17.3601 39.0026 17.3601C34.6279 17.3601 31.0344 19.5084 31.0344 23.8441C31.0344 27.7501 33.8077 29.664 36.659 29.664C39.5495 29.664 41.3072 28.6094 42.4009 26.8517H42.7524ZM42.3227 24.3519C41.6978 25.0549 40.6432 25.758 39.1198 25.758C37.8308 25.758 36.6981 24.9768 36.6981 23.2191C36.6981 21.5395 37.909 20.4459 40.1744 20.4459C40.6822 20.4459 41.6197 20.524 42.3227 20.6802V24.3519ZM60.7206 15.7196C61.5799 14.5869 62.908 13.6104 64.4313 13.6104C66.6968 13.6104 67.478 15.2118 67.478 17.4773V25.0549C66.8921 25.3284 66.0718 25.719 65.6422 26.1486C65.4078 26.7736 65.2125 28.0626 65.1344 29H75.8368C75.954 28.2188 75.8368 26.5783 75.6806 25.9533C74.9775 25.6408 73.7276 25.3284 72.9073 25.2112C73.1026 22.516 73.2198 19.235 73.2198 16.4227C73.2198 10.2512 70.095 9.2747 66.814 9.2747C63.4548 9.2747 61.5018 10.9933 60.4472 13.1026H59.8613V10.0168C59.2754 9.74342 58.1036 9.58718 57.1661 9.58718C55.6428 9.58718 54.1195 9.89966 53.182 10.3684C52.7133 11.1886 52.2836 12.8682 52.2446 13.9619H55.0569V25.0549C54.3148 25.3284 53.3383 25.719 52.7914 26.1486C52.518 26.7736 52.2446 28.0626 52.1665 29H63.4157C63.5329 28.2188 63.4157 26.5783 63.2595 25.9533C62.6736 25.6408 61.4627 25.3674 60.7206 25.2502V15.7196ZM80.6845 29.4687C79.1612 29.8203 77.5597 31.1483 77.5597 33.4919C77.5597 37.1635 81.7001 39.1165 87.4419 39.1165C93.7306 39.1165 98.6912 36.9682 98.6912 31.9295C98.6912 27.3985 94.7852 26.2267 89.434 26.2267C86.0358 26.2267 84.6687 25.8361 84.6687 24.7034C84.6687 24.3909 84.7858 24.0394 84.9421 23.7269C85.6452 23.8831 86.5435 23.9613 87.3638 23.9613C92.5978 23.9613 95.8398 21.2661 95.8398 16.618C95.8398 15.4852 95.6445 14.5087 95.293 13.6104H99.2771C99.2771 12.3995 98.8865 10.5637 98.4568 9.58718C97.7538 9.39188 97.0116 9.2747 96.1914 9.2747C94.7071 9.2747 93.1837 9.62624 92.1291 10.2512C90.723 9.54812 89.0824 9.2747 87.3638 9.2747C82.5204 9.2747 78.8487 12.048 78.8487 16.618C78.8487 19.4694 79.9424 21.188 81.5048 22.2036V22.5551C80.2158 23.141 79.044 24.3909 79.044 26.2267C79.044 27.5157 79.9424 28.7266 80.6845 29.1172V29.4687ZM83.9265 30.3671C85.3327 30.6405 86.9732 30.7577 88.145 30.7577C92.051 30.7577 93.34 31.4608 93.34 32.7107C93.34 34.6246 90.8401 35.6402 88.1059 35.6402C85.4889 35.6402 82.8719 34.6637 82.8719 32.5154C82.8719 31.6561 83.2625 30.953 83.9265 30.3671ZM84.5124 16.618C84.5124 13.9228 85.4108 12.3995 87.3638 12.3995C89.0824 12.3995 90.1371 14.1572 90.1371 16.618C90.1371 19.1959 89.2387 20.8755 87.3638 20.8755C85.567 20.8755 84.5124 19.1569 84.5124 16.618ZM103.124 28.4532C102.811 30.6015 101.991 33.531 101.171 35.8355C101.678 36.3042 103.045 37.0073 104.061 37.2807C105.741 34.5465 108.24 28.7266 108.904 24.6643C107.733 24.2737 106.053 24.0003 104.764 24.0003C104.061 24.0003 103.163 24.0784 102.577 24.2347C101.835 25.0159 101.092 26.7345 100.78 27.9454L103.124 28.4532ZM121.794 9.35282C121.169 9.50906 120.232 9.8606 119.646 10.2121C119.255 11.0324 118.943 12.8682 118.943 13.8057H121.872C121.599 16.8914 121.482 20.7193 121.482 23.2582C121.482 27.8282 123.357 29.664 127.106 29.664C128.552 29.664 130.934 29.2344 132.419 28.4141C133.004 27.4767 133.434 25.758 133.356 24.7425C132.34 25.0159 130.7 25.2502 129.723 25.2502C128.122 25.2502 127.224 24.5862 127.224 22.4379V13.8057H132.848C133.004 12.6729 132.848 10.7199 132.653 9.93872H127.224V3.96254C125.739 3.96254 123.513 4.35314 122.497 4.89998L121.794 9.35282ZM143.564 16.2274C144.384 14.8603 145.673 13.6104 147.548 13.6104C149.775 13.6104 150.556 15.2118 150.556 17.4773V25.0549C149.97 25.3284 149.15 25.719 148.72 26.1486C148.486 26.7736 148.29 28.0626 148.212 29H158.915C159.032 28.2188 158.915 26.5783 158.758 25.9533C158.055 25.6408 156.805 25.3284 155.985 25.2112C156.181 22.6332 156.298 19.235 156.298 16.4227C156.298 10.2512 153.173 9.2747 149.931 9.2747C146.65 9.2747 144.697 10.759 143.759 13.1026H143.174C143.408 10.9933 143.564 8.45444 143.564 6.5405V0.642439C142.9 0.369017 141.494 0.212777 140.517 0.212777C138.838 0.212777 137.119 0.525258 136.104 0.993979C135.635 1.81424 135.205 3.49382 135.166 4.5875H137.9V25.0549C137.158 25.3284 136.182 25.719 135.635 26.1486C135.362 26.7736 135.088 28.0626 135.01 29H146.259C146.376 28.2188 146.259 26.5783 146.103 25.9533C145.517 25.6408 144.306 25.3674 143.564 25.2502V16.2274ZM170.194 9.2747C164.569 9.2747 160.351 13.0245 160.351 19.1569C160.351 26.0705 163.905 29.664 170.194 29.664C176.131 29.664 179.998 25.8752 179.998 19.1569C179.998 12.7901 176.053 9.2747 170.194 9.2747ZM166.171 19.1569C166.171 15.4071 167.577 12.9073 170.194 12.9073C172.616 12.9073 174.139 15.5634 174.139 19.1569C174.139 23.3754 172.889 25.9924 170.194 25.9924C167.694 25.9924 166.171 23.2972 166.171 19.1569ZM192.251 14.704C193.306 15.1728 195.064 15.5634 196.704 15.5634C196.978 14.6259 197.134 13.2198 197.134 11.9698C197.134 11.5011 197.095 10.9933 197.056 10.6027C194.947 9.6653 192.642 9.2747 190.494 9.2747C185.65 9.2747 182.799 11.6574 182.799 15.1337C182.799 22.7895 192.095 20.8365 192.095 24.3909C192.095 25.6408 191.275 26.1877 189.83 26.1877C188.97 26.1877 187.916 25.9143 187.213 25.5237V23.3754C185.846 22.9066 184.361 22.7504 182.721 22.7504C182.486 23.5316 182.33 24.8206 182.33 26.0705C182.33 26.8517 182.408 27.5938 182.526 28.1797C184.557 29.2734 186.939 29.664 189.556 29.664C193.892 29.664 197.642 28.0235 197.642 23.3363C197.642 16.0711 188.463 18.0632 188.463 14.2353C188.463 13.1026 189.166 12.5167 190.533 12.5167C191.197 12.5167 191.822 12.712 192.251 12.9463V14.704ZM217.594 20.6802C218.18 13.8057 216.188 9.2747 210.212 9.2747C204.119 9.2747 200.174 13.6885 200.174 19.86C200.174 25.4846 203.689 29.664 209.9 29.664C212.673 29.664 215.095 28.9609 216.54 28.1797C217.165 27.2032 217.633 25.4455 217.516 24.3909C216.11 24.8987 213.142 25.4065 211.384 25.4065C208.298 25.4065 206.384 23.7269 206.072 20.6802H217.594ZM205.876 17.0867C206.072 14.5087 207.478 12.6729 209.47 12.6729C211.774 12.6729 212.438 15.0556 212.204 17.0867H205.876ZM12.6945 77.8517C13.007 79.1016 13.7101 80.2344 14.5694 80.664C16.6786 80.664 19.0613 80.1172 20.1159 79.4922C20.5065 78.711 20.858 77.2658 20.7799 76.2502C20.1159 76.4065 18.9441 76.5627 18.202 76.5627C17.8895 75.9768 17.6551 74.8831 17.6551 73.6723V67.1102C17.6551 62.1496 14.96 60.2747 10.0384 60.2747C7.65576 60.2747 4.45284 60.7434 3.00762 61.2903C2.57796 62.1105 2.22642 63.5948 2.22642 64.9228C2.22642 65.2744 2.30454 65.9775 2.38266 66.2899C3.82788 65.5087 6.91362 64.6494 8.71038 64.6494C10.9759 64.6494 12.1477 65.5087 12.1477 67.5399V68.9851C11.2102 68.5945 10.0775 68.3601 8.94474 68.3601C4.57002 68.3601 0.9765 70.5084 0.9765 74.8441C0.9765 78.7501 3.74976 80.664 6.60114 80.664C9.49158 80.664 11.2493 79.6094 12.343 77.8517H12.6945ZM12.2648 75.3519C11.6399 76.0549 10.5853 76.758 9.06192 76.758C7.77294 76.758 6.6402 75.9768 6.6402 74.2191C6.6402 72.5395 7.85106 71.4459 10.1165 71.4459C10.6243 71.4459 11.5618 71.524 12.2648 71.6802V75.3519ZM29.8034 64.6885V61.0168C29.2175 60.7434 28.0457 60.5872 27.1083 60.5872C25.5849 60.5872 24.0616 60.8997 23.1241 61.3684C22.6164 62.2277 22.2648 63.8682 22.2648 64.9619H24.999V76.0549C24.2569 76.3284 23.2804 76.719 22.7335 77.1486C22.4601 77.7736 22.1867 79.0626 22.1086 80H34.725C34.8421 79.2188 34.725 77.5783 34.4906 76.9533C33.6313 76.6018 31.8345 76.2502 30.6627 76.1331V67.8133C31.6783 66.1728 33.2797 65.2353 34.9984 65.2353C35.7405 65.2353 37.1467 65.4306 37.9669 65.8993C38.1232 65.3916 38.2013 64.7275 38.2013 64.0635C38.2013 62.7355 37.9279 61.3684 37.4201 60.6653C36.9514 60.4309 36.1311 60.2747 35.428 60.2747C32.6938 60.2747 30.819 62.6183 30.3893 64.6885H29.8034ZM57.54 71.6802C58.1259 64.8057 56.1338 60.2747 50.1576 60.2747C44.0643 60.2747 40.1192 64.6885 40.1192 70.86C40.1192 76.4846 43.6346 80.664 49.8451 80.664C52.6184 80.664 55.0401 79.9609 56.4853 79.1797C57.1103 78.2032 57.579 76.4455 57.4618 75.3909C56.0557 75.8987 53.0871 76.4065 51.3294 76.4065C48.2437 76.4065 46.3297 74.7269 46.0173 71.6802H57.54ZM45.822 68.0867C46.0173 65.5087 47.4234 63.6729 49.4155 63.6729C51.72 63.6729 52.384 66.0556 52.1497 68.0867H45.822ZM79.2674 65.704C80.322 66.1728 82.0797 66.5634 83.7202 66.5634C83.9937 65.6259 84.1499 64.2198 84.1499 62.9698C84.1499 62.5011 84.1108 61.9933 84.0718 61.6027C81.9625 60.6653 79.658 60.2747 77.5097 60.2747C72.6663 60.2747 69.8149 62.6574 69.8149 66.1337C69.8149 73.7895 79.1112 71.8365 79.1112 75.3909C79.1112 76.6408 78.2909 77.1877 76.8457 77.1877C75.9864 77.1877 74.9317 76.9143 74.2287 76.5237V74.3754C72.8616 73.9066 71.3773 73.7504 69.7368 73.7504C69.5024 74.5316 69.3462 75.8206 69.3462 77.0705C69.3462 77.8517 69.4243 78.5938 69.5415 79.1797C71.5726 80.2734 73.9552 80.664 76.5723 80.664C80.9079 80.664 84.6577 79.0235 84.6577 74.3363C84.6577 67.0711 75.4786 69.0632 75.4786 65.2353C75.4786 64.1026 76.1817 63.5167 77.5488 63.5167C78.2128 63.5167 78.8377 63.712 79.2674 63.9463V65.704ZM97.0327 60.2747C91.408 60.2747 87.1895 64.0245 87.1895 70.1569C87.1895 77.0705 90.744 80.664 97.0327 80.664C102.97 80.664 106.837 76.8752 106.837 70.1569C106.837 63.7901 102.892 60.2747 97.0327 60.2747ZM93.0095 70.1569C93.0095 66.4071 94.4156 63.9073 97.0327 63.9073C99.4544 63.9073 100.978 66.5634 100.978 70.1569C100.978 74.3754 99.7278 76.9924 97.0327 76.9924C94.5328 76.9924 93.0095 74.2972 93.0095 70.1569ZM117.632 66.6805C118.492 65.5478 119.741 64.6104 121.187 64.6104C123.374 64.6104 124.116 66.2118 124.116 68.4773V76.0549C123.569 76.3284 122.788 76.719 122.398 77.1486C122.163 77.7736 122.007 79.0626 121.929 80H132.28C132.397 79.2188 132.28 77.5783 132.124 76.9533C131.538 76.6408 130.366 76.3674 129.624 76.2502V66.6805C130.483 65.5869 131.694 64.6104 133.178 64.6104C135.365 64.6104 136.108 66.2118 136.108 68.4773V76.0549C135.522 76.3284 134.78 76.719 134.35 77.1486C134.116 77.7736 133.92 79.0626 133.842 80H144.466C144.584 79.2188 144.466 77.5783 144.31 76.9533C143.607 76.6408 142.357 76.3284 141.537 76.2112C141.732 73.6332 141.849 70.235 141.849 67.4227C141.849 61.2512 138.803 60.2747 135.561 60.2747C132.241 60.2747 130.249 62.0715 129.389 64.2588H129.038C128.335 60.9387 126.304 60.2747 123.569 60.2747C120.327 60.2747 118.413 61.9152 117.359 64.1026H116.773V61.0168C116.187 60.7434 115.015 60.5872 114.078 60.5872C112.554 60.5872 111.031 60.8997 110.094 61.3684C109.625 62.1886 109.195 63.8682 109.156 64.9619H111.969V76.0549C111.226 76.3284 110.25 76.719 109.703 77.1486C109.43 77.7736 109.156 79.0626 109.078 80H120.288C120.406 79.2188 120.288 77.5783 120.132 76.9533C119.546 76.6408 118.374 76.3674 117.632 76.2502V66.6805ZM163.505 71.6802C164.091 64.8057 162.099 60.2747 156.123 60.2747C150.03 60.2747 146.085 64.6885 146.085 70.86C146.085 76.4846 149.6 80.664 155.811 80.664C158.584 80.664 161.006 79.9609 162.451 79.1797C163.076 78.2032 163.545 76.4455 163.427 75.3909C162.021 75.8987 159.053 76.4065 157.295 76.4065C154.209 76.4065 152.295 74.7269 151.983 71.6802H163.505ZM151.787 68.0867C151.983 65.5087 153.389 63.6729 155.381 63.6729C157.686 63.6729 158.35 66.0556 158.115 68.0867H151.787ZM12.6945 128.852C13.007 130.102 13.7101 131.234 14.5694 131.664C16.6786 131.664 19.0613 131.117 20.1159 130.492C20.5065 129.711 20.858 128.266 20.7799 127.25C20.1159 127.406 18.9441 127.563 18.202 127.563C17.8895 126.977 17.6551 125.883 17.6551 124.672V118.11C17.6551 113.15 14.96 111.275 10.0384 111.275C7.65576 111.275 4.45284 111.743 3.00762 112.29C2.57796 113.111 2.22642 114.595 2.22642 115.923C2.22642 116.274 2.30454 116.977 2.38266 117.29C3.82788 116.509 6.91362 115.649 8.71038 115.649C10.9759 115.649 12.1477 116.509 12.1477 118.54V119.985C11.2102 119.594 10.0775 119.36 8.94474 119.36C4.57002 119.36 0.9765 121.508 0.9765 125.844C0.9765 129.75 3.74976 131.664 6.60114 131.664C9.49158 131.664 11.2493 130.609 12.343 128.852H12.6945ZM12.2648 126.352C11.6399 127.055 10.5853 127.758 9.06192 127.758C7.77294 127.758 6.6402 126.977 6.6402 125.219C6.6402 123.54 7.85106 122.446 10.1165 122.446C10.6243 122.446 11.5618 122.524 12.2648 122.68V126.352ZM30.9752 126.821C30.8971 125.532 30.5455 123.657 30.194 122.368L29.2566 118.774C29.1003 118.149 28.5925 116.821 28.1238 116.001C28.7097 115.923 29.7253 115.649 30.194 115.415C30.5455 114.478 30.819 113.071 30.819 111.939H21.2883C21.3274 112.954 21.4446 114.321 21.718 115.181C21.9914 115.454 22.6554 115.884 23.0851 116.04L27.4598 131.586L33.7875 131L36.1702 121.626C36.4827 120.337 36.8733 118.032 36.9123 116.665H37.381C37.4201 117.993 37.7326 120.298 38.0451 121.626L40.4277 131.586L46.7164 131L51.3255 115.923C51.7551 115.884 52.4973 115.688 52.8879 115.532C53.2003 114.673 53.5519 113.032 53.5519 111.939H45.154C45.154 113.032 45.3102 114.399 45.6227 115.22C46.0133 115.493 46.7554 115.767 47.3023 115.923C46.9507 116.548 46.443 118.032 46.2086 118.97L45.2712 122.329C44.9587 123.5 44.4509 125.649 44.3337 126.86H43.9041C43.8259 125.61 43.5135 123.579 43.24 122.29L40.8183 111.392L34.5687 111.978L32.147 122.407C31.8736 123.579 31.5611 125.414 31.4439 126.821H30.9752ZM71.9204 122.68C72.5063 115.806 70.5143 111.275 64.5381 111.275C58.4447 111.275 54.4997 115.688 54.4997 121.86C54.4997 127.485 58.0151 131.664 64.2256 131.664C66.9989 131.664 69.4206 130.961 70.8658 130.18C71.4908 129.203 71.9595 127.446 71.8423 126.391C70.4362 126.899 67.4676 127.406 65.7099 127.406C62.6242 127.406 60.7102 125.727 60.3977 122.68H71.9204ZM60.2024 119.087C60.3977 116.509 61.8039 114.673 63.796 114.673C66.1005 114.673 66.7645 117.056 66.5302 119.087H60.2024ZM84.8746 116.704C85.9293 117.173 87.687 117.563 89.3275 117.563C89.6009 116.626 89.7571 115.22 89.7571 113.97C89.7571 113.501 89.7181 112.993 89.679 112.603C87.5698 111.665 85.2652 111.275 83.1169 111.275C78.2735 111.275 75.4221 113.657 75.4221 117.134C75.4221 124.789 84.7184 122.836 84.7184 126.391C84.7184 127.641 83.8981 128.188 82.4529 128.188C81.5936 128.188 80.539 127.914 79.8359 127.524V125.375C78.4688 124.907 76.9845 124.75 75.344 124.75C75.1096 125.532 74.9534 126.821 74.9534 128.07C74.9534 128.852 75.0315 129.594 75.1487 130.18C77.1798 131.273 79.5625 131.664 82.1795 131.664C86.5152 131.664 90.2649 130.023 90.2649 125.336C90.2649 118.071 81.0858 120.063 81.0858 116.235C81.0858 115.103 81.7889 114.517 83.156 114.517C83.82 114.517 84.445 114.712 84.8746 114.946V116.704ZM102.64 111.275C97.0153 111.275 92.7968 115.024 92.7968 121.157C92.7968 128.07 96.3513 131.664 102.64 131.664C108.577 131.664 112.444 127.875 112.444 121.157C112.444 114.79 108.499 111.275 102.64 111.275ZM98.6167 121.157C98.6167 117.407 100.023 114.907 102.64 114.907C105.062 114.907 106.585 117.563 106.585 121.157C106.585 125.375 105.335 127.992 102.64 127.992C100.14 127.992 98.6167 125.297 98.6167 121.157ZM123.239 117.681C124.099 116.548 125.349 115.61 126.794 115.61C128.981 115.61 129.723 117.212 129.723 119.477V127.055C129.177 127.328 128.395 127.719 128.005 128.149C127.77 128.774 127.614 130.063 127.536 131H137.887C138.004 130.219 137.887 128.578 137.731 127.953C137.145 127.641 135.973 127.367 135.231 127.25V117.681C136.09 116.587 137.301 115.61 138.785 115.61C140.973 115.61 141.715 117.212 141.715 119.477V127.055C141.129 127.328 140.387 127.719 139.957 128.149C139.723 128.774 139.528 130.063 139.449 131H150.074C150.191 130.219 150.074 128.578 149.917 127.953C149.214 127.641 147.964 127.328 147.144 127.211C147.34 124.633 147.457 121.235 147.457 118.423C147.457 112.251 144.41 111.275 141.168 111.275C137.848 111.275 135.856 113.071 134.997 115.259H134.645C133.942 111.939 131.911 111.275 129.177 111.275C125.935 111.275 124.021 112.915 122.966 115.103H122.38V112.017C121.794 111.743 120.622 111.587 119.685 111.587C118.162 111.587 116.638 111.9 115.701 112.368C115.232 113.189 114.803 114.868 114.763 115.962H117.576V127.055C116.834 127.328 115.857 127.719 115.31 128.149C115.037 128.774 114.763 130.063 114.685 131H125.896C126.013 130.219 125.896 128.578 125.739 127.953C125.153 127.641 123.982 127.367 123.239 127.25V117.681ZM169.113 122.68C169.699 115.806 167.707 111.275 161.73 111.275C155.637 111.275 151.692 115.688 151.692 121.86C151.692 127.485 155.207 131.664 161.418 131.664C164.191 131.664 166.613 130.961 168.058 130.18C168.683 129.203 169.152 127.446 169.035 126.391C167.628 126.899 164.66 127.406 162.902 127.406C159.816 127.406 157.902 125.727 157.59 122.68H169.113ZM157.395 119.087C157.59 116.509 158.996 114.673 160.988 114.673C163.293 114.673 163.957 117.056 163.722 119.087H157.395ZM192.012 128.852C192.324 130.102 193.028 131.234 193.887 131.664C195.996 131.664 198.379 131.117 199.433 130.492C199.824 129.711 200.175 128.266 200.097 127.25C199.433 127.406 198.262 127.563 197.519 127.563C197.207 126.977 196.973 125.883 196.973 124.672V118.11C196.973 113.15 194.277 111.275 189.356 111.275C186.973 111.275 183.77 111.743 182.325 112.29C181.895 113.111 181.544 114.595 181.544 115.923C181.544 116.274 181.622 116.977 181.7 117.29C183.145 116.509 186.231 115.649 188.028 115.649C190.293 115.649 191.465 116.509 191.465 118.54V119.985C190.528 119.594 189.395 119.36 188.262 119.36C183.887 119.36 180.294 121.508 180.294 125.844C180.294 129.75 183.067 131.664 185.919 131.664C188.809 131.664 190.567 130.609 191.66 128.852H192.012ZM191.582 126.352C190.957 127.055 189.903 127.758 188.379 127.758C187.09 127.758 185.958 126.977 185.958 125.219C185.958 123.54 187.169 122.446 189.434 122.446C189.942 122.446 190.879 122.524 191.582 122.68V126.352ZM210.727 130.648C211.626 131.273 212.837 131.664 214.36 131.664C220.141 131.664 223.852 127.367 223.852 120.61C223.852 113.696 219.868 111.275 216.352 111.275C212.876 111.275 211.313 113.306 210.454 115.103H209.868V112.017C209.282 111.743 208.11 111.587 207.173 111.587C205.65 111.587 204.126 111.9 203.189 112.368C202.72 113.189 202.291 114.868 202.251 115.962H205.064V136.312C204.322 136.586 203.345 136.976 202.798 137.406C202.525 138.031 202.251 139.32 202.173 140.257H214.673C214.79 139.476 214.673 137.836 214.438 137.211C213.579 136.859 211.821 136.507 210.727 136.39V130.648ZM210.61 117.446C211.196 116.509 212.524 115.376 214.36 115.376C216.508 115.376 217.915 117.095 217.915 121.352C217.915 125.336 216.469 127.836 212.954 127.836C212.134 127.836 211.274 127.641 210.61 127.289V117.446ZM234.568 130.648C235.466 131.273 236.677 131.664 238.2 131.664C243.981 131.664 247.692 127.367 247.692 120.61C247.692 113.696 243.708 111.275 240.192 111.275C236.716 111.275 235.154 113.306 234.294 115.103H233.709V112.017C233.123 111.743 231.951 111.587 231.013 111.587C229.49 111.587 227.967 111.9 227.029 112.368C226.561 113.189 226.131 114.868 226.092 115.962H228.904V136.312C228.162 136.586 227.185 136.976 226.639 137.406C226.365 138.031 226.092 139.32 226.014 140.257H238.513C238.63 139.476 238.513 137.836 238.279 137.211C237.419 136.859 235.662 136.507 234.568 136.39V130.648ZM234.451 117.446C235.037 116.509 236.365 115.376 238.2 115.376C240.349 115.376 241.755 117.095 241.755 121.352C241.755 125.336 240.31 127.836 236.794 127.836C235.974 127.836 235.115 127.641 234.451 127.289V117.446ZM260.072 116.704C261.127 117.173 262.885 117.563 264.525 117.563C264.799 116.626 264.955 115.22 264.955 113.97C264.955 113.501 264.916 112.993 264.877 112.603C262.768 111.665 260.463 111.275 258.315 111.275C253.471 111.275 250.62 113.657 250.62 117.134C250.62 124.789 259.916 122.836 259.916 126.391C259.916 127.641 259.096 128.188 257.651 128.188C256.791 128.188 255.737 127.914 255.034 127.524V125.375C253.667 124.907 252.182 124.75 250.542 124.75C250.307 125.532 250.151 126.821 250.151 128.07C250.151 128.852 250.229 129.594 250.347 130.18C252.378 131.273 254.76 131.664 257.377 131.664C261.713 131.664 265.463 130.023 265.463 125.336C265.463 118.071 256.284 120.063 256.284 116.235C256.284 115.103 256.987 114.517 258.354 114.517C259.018 114.517 259.643 114.712 260.072 114.946V116.704Z" fill="url(#paint0_radial)"/>
<defs>
<radialGradient id="paint0_radial" cx="0" cy="0" r="1" gradientUnits="userSpaceOnUse" gradientTransform="translate(4.47025 9.94999) rotate(43.909) scale(406.22 1780.42)">
<stop stop-color="#A56DFF"/>
<stop offset="0.479235" stop-color="#007DFA"/>
<stop offset="0.729167" stop-color="#007DFA"/>
</radialGradient>
</defs>
</svg>
