<svg width="312" height="91" viewBox="0 0 312 91" fill="none" xmlns="http://www.w3.org/2000/svg">
<path d="M16.1708 8.9076C17.3426 9.45444 19.4519 9.8841 20.7409 9.8841C21.2096 7.97016 21.5611 4.76724 21.5611 2.89236C19.1785 2.0721 15.8193 1.52526 13.3585 1.52526C7.10892 1.52526 3.3201 4.45476 3.3201 9.18102C3.3201 19.7272 16.7177 17.2664 16.7177 23.4379C16.7177 25.7815 14.9209 27.1096 11.9914 27.1096C10.5462 27.1096 9.10098 26.758 7.77294 26.2893V22.3052C6.52302 21.8755 4.14036 21.6021 2.89044 21.6021C2.49984 23.6723 2.22642 27.1877 2.22642 29.336C4.96062 30.3515 8.3979 30.7812 11.1712 30.7812C17.2645 30.7812 22.4204 28.711 22.4204 21.7974C22.4204 12.1496 9.14004 13.9854 9.14004 8.04828C9.14004 6.40776 10.7024 5.15784 13.3195 5.15784C14.2178 5.15784 15.2725 5.35314 16.1708 5.7828V8.9076ZM39.4106 24.4535C38.5513 25.469 37.3404 26.2893 36.1296 26.2893C33.7469 26.2893 33.0438 24.9613 33.0438 22.4224V11.0168C32.3798 10.7434 31.0127 10.5872 29.9972 10.5872C28.3176 10.5872 26.5599 10.8997 25.5443 11.3684C25.0756 12.1886 24.6459 13.8682 24.6069 14.9619H27.4973C27.3411 17.657 27.263 20.9381 27.263 23.3989C27.263 29.5313 30.1925 30.664 33.4344 30.664C36.5592 30.664 38.356 29.0626 39.4106 27.0705H39.7622C39.9575 28.3204 40.3481 29.4922 40.8949 30.4687C42.9651 30.4687 46.168 30.1953 47.6132 29.6875C48.0038 28.8673 48.3554 27.422 48.2772 26.4065H45.4259C45.1915 25.5081 45.1134 24.4925 45.1134 23.516V11.0168C44.4494 10.7434 43.0823 10.5872 42.0667 10.5872C40.3871 10.5872 38.6294 10.8997 37.6139 11.3684C37.1451 12.2668 36.7155 13.8682 36.6764 14.9619H39.4106V24.4535ZM57.4582 14.6885V11.0168C56.8723 10.7434 55.7005 10.5872 54.763 10.5872C53.2397 10.5872 51.7164 10.8997 50.7789 11.3684C50.2711 12.2277 49.9196 13.8682 49.9196 14.9619H52.6538V26.0549C51.9117 26.3284 50.9352 26.719 50.3883 27.1486C50.1149 27.7736 49.8415 29.0626 49.7634 30H62.3797C62.4969 29.2188 62.3797 27.5783 62.1454 26.9533C61.2861 26.6018 59.4893 26.2502 58.3175 26.1331V17.8133C59.3331 16.1728 60.9345 15.2353 62.6532 15.2353C63.3953 15.2353 64.8015 15.4306 65.6217 15.8993C65.778 15.3916 65.8561 14.7275 65.8561 14.0635C65.8561 12.7355 65.5827 11.3684 65.0749 10.6653C64.6062 10.4309 63.7859 10.2747 63.0828 10.2747C60.3486 10.2747 58.4737 12.6183 58.0441 14.6885H57.4582ZM77.5423 10.9387V8.517C77.5423 5.7828 78.6751 4.29852 80.5109 4.29852C81.0187 4.29852 81.7608 4.4157 82.1905 4.611V6.9546C83.167 7.42332 85.3153 7.85298 86.5261 7.9311C86.8386 6.87648 87.1511 5.11878 87.1511 3.71262C87.1511 3.12672 87.112 2.42364 86.9949 1.91586C85.3153 1.2909 82.6201 0.900296 80.8234 0.900296C75.394 0.900296 71.8786 3.40014 71.8786 9.02478V10.3138C71.2146 10.47 70.16 10.8606 69.6132 11.2121C69.2226 12.0715 68.9101 13.8682 68.832 14.8057H71.8786V26.0549C71.1365 26.2893 70.16 26.719 69.6132 27.1486C69.3397 27.7736 69.0663 29.0626 68.9882 30H81.5655C81.6827 29.2188 81.5655 27.5783 81.3312 26.9533C80.4718 26.6018 78.7141 26.2502 77.5423 26.1331V14.8057H82.9326C83.0889 13.6729 82.9326 11.7199 82.7373 10.9387H77.5423ZM94.7879 10.3528C94.163 10.5091 93.2255 10.8606 92.6396 11.2121C92.249 12.0324 91.9366 13.8682 91.9366 14.8057H94.8661C94.5926 17.8914 94.4755 21.7193 94.4755 24.2582C94.4755 28.8282 96.3503 30.664 100.1 30.664C101.545 30.664 103.928 30.2344 105.412 29.4141C105.998 28.4767 106.428 26.758 106.35 25.7425C105.334 26.0159 103.694 26.2502 102.717 26.2502C101.116 26.2502 100.217 25.5862 100.217 23.4379V14.8057H105.842C105.998 13.6729 105.842 11.7199 105.647 10.9387H100.217V4.96254C98.733 4.96254 96.5066 5.35314 95.491 5.89998L94.7879 10.3528ZM116.558 17.2274C117.378 15.8603 118.667 14.6104 120.542 14.6104C122.768 14.6104 123.55 16.2118 123.55 18.4773V26.0549C122.964 26.3284 122.143 26.719 121.714 27.1486C121.479 27.7736 121.284 29.0626 121.206 30H131.908C132.026 29.2188 131.908 27.5783 131.752 26.9533C131.049 26.6408 129.799 26.3284 128.979 26.2112C129.174 23.6332 129.291 20.235 129.291 17.4227C129.291 11.2512 126.167 10.2747 122.925 10.2747C119.644 10.2747 117.691 11.759 116.753 14.1026H116.167C116.402 11.9933 116.558 9.45444 116.558 7.5405V1.64244C115.894 1.36902 114.488 1.21278 113.511 1.21278C111.832 1.21278 110.113 1.52526 109.097 1.99398C108.629 2.81424 108.199 4.49382 108.16 5.5875H110.894V26.0549C110.152 26.3284 109.175 26.719 108.629 27.1486C108.355 27.7736 108.082 29.0626 108.004 30H119.253C119.37 29.2188 119.253 27.5783 119.097 26.9533C118.511 26.6408 117.3 26.3674 116.558 26.2502V17.2274ZM150.765 21.6802C151.351 14.8057 149.359 10.2747 143.383 10.2747C137.289 10.2747 133.344 14.6885 133.344 20.86C133.344 26.4846 136.86 30.664 143.07 30.664C145.844 30.664 148.265 29.9609 149.711 29.1797C150.336 28.2032 150.804 26.4455 150.687 25.3909C149.281 25.8987 146.312 26.4065 144.555 26.4065C141.469 26.4065 139.555 24.7269 139.242 21.6802H150.765ZM139.047 18.0867C139.242 15.5087 140.649 13.6729 142.641 13.6729C144.945 13.6729 145.609 16.0556 145.375 18.0867H139.047ZM170.501 16.7196C171.36 15.5869 172.688 14.6104 174.211 14.6104C176.477 14.6104 177.258 16.2118 177.258 18.4773V26.0549C176.672 26.3284 175.852 26.719 175.422 27.1486C175.188 27.7736 174.992 29.0626 174.914 30H185.617C185.734 29.2188 185.617 27.5783 185.461 26.9533C184.757 26.6408 183.508 26.3284 182.687 26.2112C182.883 23.516 183 20.235 183 17.4227C183 11.2512 179.875 10.2747 176.594 10.2747C173.235 10.2747 171.282 11.9933 170.227 14.1026H169.641V11.0168C169.055 10.7434 167.884 10.5872 166.946 10.5872C165.423 10.5872 163.899 10.8997 162.962 11.3684C162.493 12.1886 162.064 13.8682 162.025 14.9619H164.837V26.0549C164.095 26.3284 163.118 26.719 162.571 27.1486C162.298 27.7736 162.025 29.0626 161.946 30H173.196C173.313 29.2188 173.196 27.5783 173.039 26.9533C172.454 26.6408 171.243 26.3674 170.501 26.2502V16.7196ZM204.663 21.6802C205.249 14.8057 203.257 10.2747 197.281 10.2747C191.188 10.2747 187.243 14.6885 187.243 20.86C187.243 26.4846 190.758 30.664 196.969 30.664C199.742 30.664 202.164 29.9609 203.609 29.1797C204.234 28.2032 204.702 26.4455 204.585 25.3909C203.179 25.8987 200.211 26.4065 198.453 26.4065C195.367 26.4065 193.453 24.7269 193.141 21.6802H204.663ZM192.945 18.0867C193.141 15.5087 194.547 13.6729 196.539 13.6729C198.843 13.6729 199.507 16.0556 199.273 18.0867H192.945ZM210.061 10.3528C209.436 10.5091 208.498 10.8606 207.912 11.2121C207.522 12.0324 207.209 13.8682 207.209 14.8057H210.139C209.865 17.8914 209.748 21.7193 209.748 24.2582C209.748 28.8282 211.623 30.664 215.373 30.664C216.818 30.664 219.201 30.2344 220.685 29.4141C221.271 28.4767 221.701 26.758 221.622 25.7425C220.607 26.0159 218.966 26.2502 217.99 26.2502C216.388 26.2502 215.49 25.5862 215.49 23.4379V14.8057H221.115C221.271 13.6729 221.115 11.7199 220.919 10.9387H215.49V4.96254C214.006 4.96254 211.779 5.35314 210.764 5.89998L210.061 10.3528ZM226.636 29.4532C226.323 31.6015 225.503 34.531 224.683 36.8355C225.19 37.3042 226.557 38.0073 227.573 38.2807C229.253 35.5465 231.752 29.7266 232.416 25.6643C231.245 25.2737 229.565 25.0003 228.276 25.0003C227.573 25.0003 226.675 25.0784 226.089 25.2347C225.347 26.0159 224.604 27.7345 224.292 28.9454L226.636 29.4532ZM245.697 5.5875V26.0549C244.916 26.3284 243.978 26.719 243.431 27.1486C243.158 27.7736 242.885 29.0626 242.806 30H254.29C254.407 29.2188 254.29 27.5783 254.134 26.9533C253.47 26.6408 252.181 26.3674 251.361 26.2502V1.64244C250.697 1.36902 249.29 1.21278 248.314 1.21278C246.634 1.21278 244.916 1.52526 243.9 1.99398C243.431 2.81424 243.002 4.49382 242.963 5.5875H245.697ZM259.092 14.9619V26.0549C258.311 26.3284 257.373 26.719 256.827 27.1486C256.553 27.7736 256.28 29.0626 256.202 30H267.685C267.802 29.2188 267.685 27.5783 267.529 26.9533C266.865 26.6408 265.576 26.3674 264.756 26.2502V11.0168C264.092 10.7434 262.686 10.5872 261.67 10.5872C259.99 10.5872 258.233 10.8997 257.217 11.3684C256.748 12.1886 256.319 13.8682 256.28 14.9619H259.092ZM262.022 0.119097C259.99 0.119097 258.545 1.44714 258.545 3.47826C258.545 5.82186 259.756 7.07178 262.022 7.07178C264.014 7.07178 265.42 5.7828 265.42 3.47826C265.42 1.32996 264.014 0.119097 262.022 0.119097ZM277.871 21.4068H279.746C282.129 25.0003 285.761 30.3906 287.714 30.8593C289.081 30.7421 290.331 30.4687 291.503 30.0391C292.011 29.0235 292.44 27.1096 292.362 25.8206L290.058 26.1721C289.042 25.3128 286.503 22.4614 284.316 18.907L288.378 14.9619C289.081 14.8838 290.292 14.6494 290.839 14.4151C291.23 13.5167 291.542 11.9933 291.542 10.9387H280.918C280.918 11.9933 281.074 13.1261 281.425 14.1026C281.855 14.3369 282.832 14.6494 283.457 14.7666C282.675 15.1181 281.816 15.8603 281.425 16.2899L279.824 18.0086H277.871V1.64244C277.207 1.36902 275.801 1.21278 274.824 1.21278C273.145 1.21278 271.426 1.52526 270.411 1.99398C269.942 2.81424 269.512 4.49382 269.473 5.5875H272.207V26.0549C271.465 26.3284 270.489 26.719 269.942 27.1486C269.668 27.7736 269.395 29.0626 269.317 30H280.527C280.644 29.2188 280.527 27.5783 280.371 26.9533C279.785 26.6408 278.613 26.3674 277.871 26.2502V21.4068ZM311.544 21.6802C312.13 14.8057 310.138 10.2747 304.162 10.2747C298.069 10.2747 294.124 14.6885 294.124 20.86C294.124 26.4846 297.639 30.664 303.85 30.664C306.623 30.664 309.045 29.9609 310.49 29.1797C311.115 28.2032 311.583 26.4455 311.466 25.3909C310.06 25.8987 307.092 26.4065 305.334 26.4065C302.248 26.4065 300.334 24.7269 300.022 21.6802H311.544ZM299.826 18.0867C300.022 15.5087 301.428 13.6729 303.42 13.6729C305.724 13.6729 306.388 16.0556 306.154 18.0867H299.826ZM11.718 76.7425C11.6008 75.6488 11.1321 73.9301 10.8196 73.1099L9.14004 68.6961C8.7885 67.8368 8.2026 66.8212 7.6167 66.04C8.24166 65.9228 9.33534 65.6494 9.80406 65.4151C10.1556 64.4776 10.429 63.0715 10.429 61.9387H0.15624C0.1953 62.9543 0.35154 64.3214 0.62496 65.1807C0.93744 65.4541 1.67958 65.8838 2.18736 66.04L8.82756 81.625C7.49952 83.8123 4.76532 85.7653 1.79676 86.5465C1.953 87.8746 3.04668 89.7885 3.94506 90.6869C7.38234 89.6713 10.7415 86.4293 12.4992 83.0702C14.1007 80.0235 15.9365 75.2191 17.1473 72.0162L19.4128 65.9619C19.8034 65.9228 20.5846 65.7275 20.9362 65.5713C21.2486 64.751 21.6002 63.0324 21.6002 61.9387H13.2023C13.2023 63.0324 13.3195 64.3214 13.671 65.2588C14.0616 65.5322 14.8037 65.8057 15.3115 65.9619C14.8428 66.8212 14.4522 67.8368 14.1788 68.8523L12.9679 73.1099C12.6945 73.9692 12.3039 75.6097 12.1867 76.7425H11.718ZM32.6066 61.2747C26.9819 61.2747 22.7634 65.0245 22.7634 71.1569C22.7634 78.0705 26.3179 81.664 32.6066 81.664C38.5437 81.664 42.4106 77.8752 42.4106 71.1569C42.4106 64.7901 38.4656 61.2747 32.6066 61.2747ZM28.5834 71.1569C28.5834 67.4071 29.9895 64.9073 32.6066 64.9073C35.0283 64.9073 36.5516 67.5634 36.5516 71.1569C36.5516 75.3754 35.3017 77.9924 32.6066 77.9924C30.1067 77.9924 28.5834 75.2972 28.5834 71.1569ZM59.1695 75.4535C58.3102 76.469 57.0993 77.2893 55.8885 77.2893C53.5058 77.2893 52.8027 75.9613 52.8027 73.4224V62.0168C52.1387 61.7434 50.7716 61.5872 49.756 61.5872C48.0765 61.5872 46.3188 61.8997 45.3032 62.3684C44.8345 63.1886 44.4048 64.8682 44.3658 65.9619H47.2562C47.1 68.657 47.0218 71.9381 47.0218 74.3989C47.0218 80.5313 49.9513 81.664 53.1933 81.664C56.3181 81.664 58.1149 80.0626 59.1695 78.0705H59.521C59.7163 79.3204 60.1069 80.4922 60.6538 81.4687C62.724 81.4687 65.9269 81.1953 67.3721 80.6875C67.7627 79.8673 68.1142 78.422 68.0361 77.4065H65.1847C64.9504 76.5081 64.8723 75.4925 64.8723 74.516V62.0168C64.2082 61.7434 62.8411 61.5872 61.8256 61.5872C60.146 61.5872 58.3883 61.8997 57.3727 62.3684C56.904 63.2668 56.4744 64.8682 56.4353 65.9619H59.1695V75.4535ZM86.4682 67.7196C87.3275 66.5869 88.6555 65.6104 90.1789 65.6104C92.4443 65.6104 93.2255 67.2118 93.2255 69.4773V77.0549C92.6396 77.3284 91.8194 77.719 91.3897 78.1486C91.1554 78.7736 90.9601 80.0626 90.8819 81H101.584C101.702 80.2188 101.584 78.5783 101.428 77.9533C100.725 77.6408 99.4751 77.3284 98.6549 77.2112C98.8502 74.516 98.9674 71.235 98.9674 68.4227C98.9674 62.2512 95.8426 61.2747 92.5615 61.2747C89.2024 61.2747 87.2494 62.9933 86.1947 65.1026H85.6088V62.0168C85.0229 61.7434 83.8511 61.5872 82.9137 61.5872C81.3904 61.5872 79.867 61.8997 78.9296 62.3684C78.4609 63.1886 78.0312 64.8682 77.9921 65.9619H80.8045V77.0549C80.0623 77.3284 79.0858 77.719 78.539 78.1486C78.2656 78.7736 77.9921 80.0626 77.914 81H89.1633C89.2805 80.2188 89.1633 78.5783 89.0071 77.9533C88.4212 77.6408 87.2103 77.3674 86.4682 77.2502V67.7196ZM120.631 72.6802C121.217 65.8057 119.225 61.2747 113.249 61.2747C107.155 61.2747 103.21 65.6885 103.21 71.86C103.21 77.4846 106.726 81.664 112.936 81.664C115.709 81.664 118.131 80.9609 119.576 80.1797C120.201 79.2032 120.67 77.4455 120.553 76.3909C119.147 76.8987 116.178 77.4065 114.42 77.4065C111.335 77.4065 109.421 75.7269 109.108 72.6802H120.631ZM108.913 69.0867C109.108 66.5087 110.514 64.6729 112.507 64.6729C114.811 64.6729 115.475 67.0556 115.241 69.0867H108.913ZM133.81 76.8206C133.615 75.5316 133.107 73.6958 132.756 72.6802L131.467 68.8914C131.154 67.9149 130.568 66.704 130.022 66.001C130.607 65.9228 131.623 65.6494 132.131 65.4151C132.482 64.4776 132.756 63.0715 132.756 61.9387H122.6C122.639 62.9543 122.756 64.3214 123.03 65.1807C123.303 65.4541 123.967 65.8838 124.397 66.04L130.49 81.5859L136.154 81.0781L142.13 65.9619C142.521 65.9228 143.302 65.7275 143.693 65.5713C144.005 64.751 144.357 63.0324 144.357 61.9387H135.646C135.646 63.0324 135.763 64.3214 136.115 65.2588C136.545 65.5322 137.287 65.8057 137.834 65.9619C137.287 66.7431 136.74 68.0321 136.388 69.1258L135.256 72.7193C134.943 73.7348 134.435 75.6097 134.279 76.8206H133.81ZM162.819 72.6802C163.405 65.8057 161.413 61.2747 155.437 61.2747C149.343 61.2747 145.398 65.6885 145.398 71.86C145.398 77.4846 148.914 81.664 155.124 81.664C157.897 81.664 160.319 80.9609 161.764 80.1797C162.389 79.2032 162.858 77.4455 162.741 76.3909C161.335 76.8987 158.366 77.4065 156.608 77.4065C153.523 77.4065 151.609 75.7269 151.296 72.6802H162.819ZM151.101 69.0867C151.296 66.5087 152.702 64.6729 154.694 64.6729C156.999 64.6729 157.663 67.0556 157.429 69.0867H151.101ZM173.303 65.6885V62.0168C172.717 61.7434 171.545 61.5872 170.608 61.5872C169.085 61.5872 167.561 61.8997 166.624 62.3684C166.116 63.2277 165.765 64.8682 165.765 65.9619H168.499V77.0549C167.757 77.3284 166.78 77.719 166.233 78.1486C165.96 78.7736 165.686 80.0626 165.608 81H178.225C178.342 80.2188 178.225 78.5783 177.99 77.9533C177.131 77.6018 175.334 77.2502 174.162 77.1331V68.8133C175.178 67.1728 176.779 66.2353 178.498 66.2353C179.24 66.2353 180.646 66.4306 181.467 66.8993C181.623 66.3916 181.701 65.7275 181.701 65.0635C181.701 63.7355 181.428 62.3684 180.92 61.6653C180.451 61.4309 179.631 61.2747 178.928 61.2747C176.194 61.2747 174.319 63.6183 173.889 65.6885H173.303ZM204.601 62.2903C203.702 61.6653 202.492 61.2747 200.968 61.2747C195.344 61.2747 191.477 65.6494 191.477 72.3287C191.477 79.3595 195.461 81.664 198.859 81.664C202.179 81.664 203.898 79.9454 204.757 78.383H205.109C205.304 79.5157 205.655 80.5703 206.163 81.4687C208.155 81.4687 211.163 81.1953 212.764 80.6875C213.155 79.8673 213.507 78.422 213.428 77.4065H210.655C210.421 76.6253 210.265 75.3363 210.265 74.2426V52.6424C209.601 52.369 208.194 52.2128 207.218 52.2128C205.538 52.2128 203.82 52.5253 202.804 52.994C202.335 53.8142 201.906 55.4938 201.867 56.5875H204.601V62.2903ZM204.718 75.7269C204.054 76.5862 202.843 77.5237 201.281 77.5237C199.015 77.5237 197.414 75.4925 197.414 71.5084C197.414 67.6415 198.976 65.1026 202.374 65.1026C203.195 65.1026 204.054 65.2979 204.718 65.6494V75.7269ZM217.82 65.9619V77.0549C217.038 77.3284 216.101 77.719 215.554 78.1486C215.281 78.7736 215.007 80.0626 214.929 81H226.413C226.53 80.2188 226.413 78.5783 226.257 77.9533C225.593 77.6408 224.304 77.3674 223.483 77.2502V62.0168C222.819 61.7434 221.413 61.5872 220.398 61.5872C218.718 61.5872 216.96 61.8997 215.945 62.3684C215.476 63.1886 215.046 64.8682 215.007 65.9619H217.82ZM220.749 51.1191C218.718 51.1191 217.273 52.4471 217.273 54.4783C217.273 56.8219 218.484 58.0718 220.749 58.0718C222.741 58.0718 224.147 56.7828 224.147 54.4783C224.147 52.33 222.741 51.1191 220.749 51.1191ZM241.258 62.2903C240.359 61.6653 239.149 61.2747 237.625 61.2747C232.001 61.2747 228.134 65.6494 228.134 72.3287C228.134 79.3595 232.118 81.664 235.516 81.664C238.836 81.664 240.555 79.9454 241.414 78.383H241.766C241.961 79.5157 242.312 80.5703 242.82 81.4687C244.812 81.4687 247.82 81.1953 249.421 80.6875C249.812 79.8673 250.163 78.422 250.085 77.4065H247.312C247.078 76.6253 246.921 75.3363 246.921 74.2426V52.6424C246.257 52.369 244.851 52.2128 243.875 52.2128C242.195 52.2128 240.477 52.5253 239.461 52.994C238.992 53.8142 238.563 55.4938 238.524 56.5875H241.258V62.2903ZM241.375 75.7269C240.711 76.5862 239.5 77.5237 237.938 77.5237C235.672 77.5237 234.071 75.4925 234.071 71.5084C234.071 67.6415 235.633 65.1026 239.031 65.1026C239.852 65.1026 240.711 65.2979 241.375 65.6494V75.7269Z" fill="white"/>
</svg>
