<svg width="1440" height="793" viewBox="0 0 1440 793" fill="none" xmlns="http://www.w3.org/2000/svg">
<mask id="mask0" mask-type="alpha" maskUnits="userSpaceOnUse" x="0" y="0" width="1441" height="793">
<path d="M0 41C0 41 225.912 -47.3758 716.478 35.9995C1216.6 121 1440 33 1440 33V793H0L0 41Z" fill="url(#paint0_linear)"/>
</mask>
<g mask="url(#mask0)">
<path opacity="0.161644" fill-rule="evenodd" clip-rule="evenodd" d="M1317 290.231C1298.96 290.231 1281.49 288.016 1264.93 283.875C1243.95 303.456 1210.42 315.164 1164.33 319C1191.21 276.805 1201.36 254.207 1194.77 251.205C1151.57 219.549 1124 171.461 1124 117.615C1124 22.2825 1210.41 -55 1317 -55C1423.59 -55 1510 22.2825 1510 117.615C1510 212.948 1423.59 290.231 1317 290.231ZM-1.52588e-05 588.154C23.0914 588.154 45.4428 585.318 66.643 580.013C93.4879 605.092 136.403 620.087 195.388 625C160.98 570.959 147.996 542.016 156.434 538.171C211.721 497.628 247 436.04 247 367.077C247 244.979 136.414 146 -1.52588e-05 146C-136.414 146 -247 244.979 -247 367.077C-247 489.174 -136.414 588.154 -1.52588e-05 588.154ZM1439.93 915.875C1456.49 920.016 1473.96 922.231 1492 922.231C1598.59 922.231 1685 844.948 1685 749.615C1685 654.283 1598.59 577 1492 577C1385.41 577 1299 654.283 1299 749.615C1299 803.461 1326.57 851.549 1369.77 883.205C1376.36 886.207 1366.21 908.805 1339.33 951C1385.42 947.164 1418.95 935.456 1439.93 915.875Z" fill="url(#paint1_linear)"/>
</g>
<defs>
<linearGradient id="paint0_linear" x1="-1.01024e-05" y1="44.1797" x2="1502.08" y2="554.163" gradientUnits="userSpaceOnUse">
<stop stop-color="#5685EA"/>
<stop offset="1" stop-color="#574DE8"/>
</linearGradient>
<linearGradient id="paint1_linear" x1="1644.22" y1="812.939" x2="1145.03" y2="683.834" gradientUnits="userSpaceOnUse">
<stop stop-color="#51ADF9"/>
<stop offset="1" stop-color="#5BCFF7"/>
</linearGradient>
</defs>
</svg>
