<svg width="114" height="43" viewBox="0 0 114 43" fill="none" xmlns="http://www.w3.org/2000/svg">
<path d="M100.326 1H1.00073V34.7452H100.326V1Z" stroke="#3B4147" stroke-width="1.66406" stroke-linejoin="round"/>
<path fill-rule="evenodd" clip-rule="evenodd" d="M112.601 11.0526L100.325 1V34.4001L112.601 42.1V11.0526Z" stroke="#3B4147" stroke-width="1.66406" stroke-linejoin="round"/>
<path fill-rule="evenodd" clip-rule="evenodd" d="M13.24 42.1L1.00005 34.7452H100.325L112.565 42.1H13.24Z" stroke="#3B4147" stroke-width="1.66406" stroke-linejoin="round"/>
<path d="M11.8573 20.7036C11.9987 22.7745 13.7452 24.1218 16.365 24.1218C19.0513 24.1218 20.7979 22.7329 20.7979 20.5123C20.7979 18.8157 19.8082 17.8177 17.3048 17.2688L15.9741 16.9777C14.3357 16.62 13.6953 15.9713 13.6953 15.0232C13.6953 13.8007 14.8514 13.0688 16.3484 13.0688C17.9119 13.0688 18.9515 13.8755 19.0846 15.1896H20.5816C20.5151 13.1519 18.7852 11.7215 16.39 11.7215C13.9033 11.7215 12.1567 13.1104 12.1567 15.0898C12.1567 16.7947 13.1963 17.8842 15.5999 18.4082L16.9306 18.6992C18.5939 19.0652 19.2593 19.7305 19.2593 20.7369C19.2593 21.9178 18.0783 22.7745 16.4482 22.7745C14.7266 22.7745 13.529 21.9927 13.3543 20.7036H11.8573ZM22.7939 13.1852V15.2727H21.5048V16.462H22.7939V21.6766C22.7939 23.34 23.4093 23.9887 24.9978 23.9887C25.3388 23.9887 25.738 23.9638 25.9127 23.9222V22.7079C25.8129 22.7246 25.4802 22.7495 25.3139 22.7495C24.5737 22.7495 24.241 22.3919 24.241 21.6018V16.462H25.921V15.2727H24.241V13.1852H22.7939ZM30.1543 22.841C29.1147 22.841 28.4244 22.3004 28.4244 21.477C28.4244 20.662 29.0897 20.1464 30.2541 20.0715L32.5661 19.9301V20.637C32.5661 21.8846 31.5182 22.841 30.1543 22.841ZM29.8299 24.0719C30.9942 24.0719 32.0921 23.4232 32.6077 22.4335H32.641V23.9222H34.0132V17.9424C34.0132 16.2208 32.7325 15.123 30.7032 15.123C28.6572 15.123 27.3764 16.2707 27.2766 17.7678H28.6739C28.8568 16.9194 29.5554 16.3955 30.6699 16.3955C31.8675 16.3955 32.5661 17.0276 32.5661 18.0838V18.8074L30.0877 18.9487C28.0917 19.0652 26.9523 19.9967 26.9523 21.477C26.9523 23.0323 28.1083 24.0719 29.8299 24.0719ZM36.5748 27.1574C38.1384 27.1574 38.8536 26.5503 39.5938 24.5293L42.9954 15.2727H41.4734L39.0782 22.4751H39.0532L36.658 15.2727H35.1111L38.3047 23.9305L38.1051 24.5376C37.7724 25.544 37.3233 25.9348 36.5166 25.9348C36.3336 25.9348 36.1091 25.9265 35.9511 25.8933V27.1075C36.1091 27.1408 36.4002 27.1574 36.5748 27.1574ZM47.2702 20.7036C47.4116 22.7745 49.1581 24.1218 51.7779 24.1218C54.4642 24.1218 56.2107 22.7329 56.2107 20.5123C56.2107 18.8157 55.221 17.8177 52.7177 17.2688L51.387 16.9777C49.7486 16.62 49.1082 15.9713 49.1082 15.0232C49.1082 13.8007 50.2642 13.0688 51.7613 13.0688C53.3248 13.0688 54.3644 13.8755 54.4975 15.1896H55.9945C55.928 13.1519 54.1981 11.7215 51.8029 11.7215C49.3161 11.7215 47.5696 13.1104 47.5696 15.0898C47.5696 16.7947 48.6092 17.8842 51.0128 18.4082L52.3434 18.6992C54.0068 19.0652 54.6721 19.7305 54.6721 20.7369C54.6721 21.9178 53.4912 22.7745 51.8611 22.7745C50.1395 22.7745 48.9419 21.9927 48.7672 20.7036H47.2702ZM57.741 23.9222H59.1882V18.4996C59.1882 17.302 60.0198 16.4038 61.1676 16.4038C62.2404 16.4038 62.939 17.0858 62.939 18.1254V23.9222H64.3861V18.4248C64.3861 17.2521 65.1929 16.4038 66.3406 16.4038C67.48 16.4038 68.137 17.1024 68.137 18.2834V23.9222H69.5841V17.9507C69.5841 16.2375 68.478 15.123 66.7647 15.123C65.5505 15.123 64.5359 15.7385 64.0535 16.7697H64.0202C63.646 15.7218 62.7727 15.123 61.5917 15.123C60.4274 15.123 59.5458 15.7385 59.1383 16.6533H59.105V15.2727H57.741V23.9222ZM74.2831 22.841C73.2435 22.841 72.5532 22.3004 72.5532 21.477C72.5532 20.662 73.2186 20.1464 74.3829 20.0715L76.695 19.9301V20.637C76.695 21.8846 75.6471 22.841 74.2831 22.841ZM73.9588 24.0719C75.1231 24.0719 76.2209 23.4232 76.7366 22.4335H76.7698V23.9222H78.1421V17.9424C78.1421 16.2208 76.8613 15.123 74.832 15.123C72.7861 15.123 71.5053 16.2707 71.4055 17.7678H72.8027C72.9857 16.9194 73.6843 16.3955 74.7988 16.3955C75.9964 16.3955 76.695 17.0276 76.695 18.0838V18.8074L74.2166 18.9487C72.2206 19.0652 71.0812 19.9967 71.0812 21.477C71.0812 23.0323 72.2372 24.0719 73.9588 24.0719ZM79.9801 23.9222H81.4272V18.5329C81.4272 17.3103 82.1591 16.5036 83.2819 16.5036C83.6312 16.5036 83.9389 16.5452 84.0554 16.5868V15.1812C83.9389 15.1646 83.7227 15.123 83.4732 15.123C82.4585 15.123 81.6601 15.7301 81.3773 16.6866H81.3441V15.2727H79.9801V23.9222ZM85.7021 13.1852V15.2727H84.413V16.462H85.7021V21.6766C85.7021 23.34 86.3175 23.9887 87.906 23.9887C88.247 23.9887 88.6462 23.9638 88.8209 23.9222V22.7079C88.7211 22.7246 88.3884 22.7495 88.2221 22.7495C87.4819 22.7495 87.1492 22.3919 87.1492 21.6018V16.462H88.8292V15.2727H87.1492V13.1852H85.7021Z" fill="#3B4147"/>
</svg>
