<svg width="1106" height="1106" viewBox="0 0 1106 1106" fill="none" xmlns="http://www.w3.org/2000/svg">
<g filter="url(#filter0_f)">
<path d="M553 806C692.728 806 806 692.728 806 553C806 413.272 692.728 300 553 300C413.272 300 300 413.272 300 553C300 692.728 413.272 806 553 806Z" fill="#FF0000" fill-opacity="0.1"/>
</g>
<path d="M550 780C664.875 780 758 686.875 758 572C758 457.125 664.875 364 550 364C435.125 364 342 457.125 342 572C342 686.875 435.125 780 550 780Z" fill="url(#paint0_linear)" fill-opacity="0.05" stroke="#28ADFF" stroke-opacity="0.2"/>
<path d="M550 707C624.558 707 685 646.558 685 572C685 497.442 624.558 437 550 437C475.442 437 415 497.442 415 572C415 646.558 475.442 707 550 707Z" fill="url(#paint1_linear)" fill-opacity="0.1" stroke="#28ADFF" stroke-opacity="0.3"/>
<path d="M550 643C589.212 643 621 611.212 621 572C621 532.788 589.212 501 550 501C510.788 501 479 532.788 479 572C479 611.212 510.788 643 550 643Z" fill="url(#paint2_linear)" fill-opacity="0.2" stroke="#28ADFF" stroke-opacity="0.4"/>
<path d="M550 601C566.016 601 579 588.016 579 572C579 555.984 566.016 543 550 543C533.984 543 521 555.984 521 572C521 588.016 533.984 601 550 601Z" fill="url(#paint3_linear)"/>
<path d="M538 574.625L558.625 554L551.875 570.125H561.25L540.25 590.75L547.375 574.625H538Z" fill="white"/>
<path opacity="0.180315" fill-rule="evenodd" clip-rule="evenodd" d="M317 437H453.924C459.999 437 464.924 441.925 464.924 448V480.054C464.924 481.526 465.22 482.984 465.793 484.34L469.623 493.392L449.273 483.409C447.765 482.669 446.108 482.285 444.428 482.285H317C310.925 482.285 306 477.36 306 471.285V448C306 441.925 310.925 437 317 437Z" fill="black" fill-opacity="0.5" stroke="#21A9FF" stroke-linejoin="round"/>
<path fill-rule="evenodd" clip-rule="evenodd" d="M461.38 431C466.099 431 469.924 434.825 469.924 439.544V474.552C469.924 475.695 470.154 476.828 470.599 477.881L474.623 487.392L451.981 476.285H319.544C314.825 476.285 311 472.459 311 467.741V439.544C311 434.825 314.825 431 319.544 431H461.38ZM331.753 451C330.096 451 328.753 452.343 328.753 454C328.753 455.657 330.096 457 331.753 457C333.41 457 334.753 455.657 334.753 454C334.753 452.343 333.41 451 331.753 451ZM343.753 451C342.096 451 340.753 452.343 340.753 454C340.753 455.657 342.096 457 343.753 457C345.41 457 346.753 455.657 346.753 454C346.753 452.343 345.41 451 343.753 451ZM355.753 451C354.096 451 352.753 452.343 352.753 454C352.753 455.657 354.096 457 355.753 457C357.41 457 358.753 455.657 358.753 454C358.753 452.343 357.41 451 355.753 451Z" fill="url(#paint4_linear)"/>
<path fill-rule="evenodd" clip-rule="evenodd" d="M331.753 451C330.096 451 328.753 452.343 328.753 454C328.753 455.657 330.096 457 331.753 457C333.41 457 334.753 455.657 334.753 454C334.753 452.343 333.41 451 331.753 451ZM343.753 451C342.096 451 340.753 452.343 340.753 454C340.753 455.657 342.096 457 343.753 457C345.41 457 346.753 455.657 346.753 454C346.753 452.343 345.41 451 343.753 451ZM355.753 451C354.096 451 352.753 452.343 352.753 454C352.753 455.657 354.096 457 355.753 457C357.41 457 358.753 455.657 358.753 454C358.753 452.343 357.41 451 355.753 451Z" fill="white"/>
<path opacity="0.180315" fill-rule="evenodd" clip-rule="evenodd" d="M323 662H459.924C465.999 662 470.924 657.075 470.924 651V618.946C470.924 617.474 471.22 616.016 471.793 614.66L475.623 605.608L455.273 615.591C453.765 616.331 452.108 616.715 450.428 616.715H323C316.925 616.715 312 621.64 312 627.715V651C312 657.075 316.925 662 323 662Z" fill="black" fill-opacity="0.5" stroke="#21A9FF" stroke-linejoin="round"/>
<path fill-rule="evenodd" clip-rule="evenodd" d="M467.38 668C472.099 668 475.924 664.175 475.924 659.456V624.448C475.924 623.305 476.154 622.172 476.599 621.119L480.623 611.608L457.981 622.715H325.544C320.825 622.715 317 626.541 317 631.259V659.456C317 664.175 320.825 668 325.544 668H467.38ZM337.753 648C336.096 648 334.753 646.657 334.753 645C334.753 643.343 336.096 642 337.753 642C339.41 642 340.753 643.343 340.753 645C340.753 646.657 339.41 648 337.753 648ZM349.753 648C348.096 648 346.753 646.657 346.753 645C346.753 643.343 348.096 642 349.753 642C351.41 642 352.753 643.343 352.753 645C352.753 646.657 351.41 648 349.753 648ZM361.753 648C360.096 648 358.753 646.657 358.753 645C358.753 643.343 360.096 642 361.753 642C363.41 642 364.753 643.343 364.753 645C364.753 646.657 363.41 648 361.753 648Z" fill="url(#paint5_linear)"/>
<path opacity="0.180315" fill-rule="evenodd" clip-rule="evenodd" d="M791 511H654.076C648.001 511 643.076 515.925 643.076 522V554.054C643.076 555.526 642.78 556.984 642.207 558.34L638.377 567.392L658.727 557.409C660.235 556.669 661.892 556.285 663.572 556.285H791C797.075 556.285 802 551.36 802 545.285V522C802 515.925 797.075 511 791 511Z" fill="black" fill-opacity="0.321405" stroke="white" stroke-linejoin="round"/>
<path fill-rule="evenodd" clip-rule="evenodd" d="M646.62 505C641.901 505 638.076 508.825 638.076 513.544V548.552C638.076 549.695 637.846 550.828 637.401 551.881L633.377 561.392L656.019 550.285H788.456C793.175 550.285 797 546.459 797 541.741V513.544C797 508.825 793.175 505 788.456 505H646.62ZM776.247 525C777.904 525 779.247 526.343 779.247 528C779.247 529.657 777.904 531 776.247 531C774.59 531 773.247 529.657 773.247 528C773.247 526.343 774.59 525 776.247 525ZM764.247 525C765.904 525 767.247 526.343 767.247 528C767.247 529.657 765.904 531 764.247 531C762.59 531 761.247 529.657 761.247 528C761.247 526.343 762.59 525 764.247 525ZM752.247 525C753.904 525 755.247 526.343 755.247 528C755.247 529.657 753.904 531 752.247 531C750.59 531 749.247 529.657 749.247 528C749.247 526.343 750.59 525 752.247 525Z" fill="url(#paint6_linear)"/>
<path opacity="0.180315" fill-rule="evenodd" clip-rule="evenodd" d="M748 711H611.076C605.001 711 600.076 706.075 600.076 700V667.946C600.076 666.474 599.78 665.016 599.207 663.66L595.377 654.608L615.727 664.591C617.235 665.331 618.892 665.715 620.572 665.715H748C754.075 665.715 759 670.64 759 676.715V700C759 706.075 754.075 711 748 711Z" fill="black" fill-opacity="0.321405" stroke="white" stroke-linejoin="round"/>
<path fill-rule="evenodd" clip-rule="evenodd" d="M603.244 717C598.525 717 594.699 713.175 594.699 708.456V673.448C594.699 672.305 594.47 671.172 594.024 670.119L590 660.608L612.643 671.715H745.079C749.798 671.715 753.624 675.541 753.624 680.259V708.456C753.624 713.175 749.798 717 745.079 717H603.244ZM732.87 697C734.527 697 735.87 695.657 735.87 694C735.87 692.343 734.527 691 732.87 691C731.214 691 729.87 692.343 729.87 694C729.87 695.657 731.214 697 732.87 697ZM720.87 697C722.527 697 723.87 695.657 723.87 694C723.87 692.343 722.527 691 720.87 691C719.214 691 717.87 692.343 717.87 694C717.87 695.657 719.214 697 720.87 697ZM708.87 697C710.527 697 711.87 695.657 711.87 694C711.87 692.343 710.527 691 708.87 691C707.214 691 705.87 692.343 705.87 694C705.87 695.657 707.214 697 708.87 697Z" fill="url(#paint7_linear)"/>
<path d="M334 415.226C332.364 415.943 330.62 416.418 328.803 416.649C330.673 415.534 332.1 413.782 332.771 411.67C331.027 412.708 329.102 413.441 327.051 413.85C325.395 412.09 323.036 411 320.462 411C315.468 411 311.447 415.048 311.447 420.01C311.447 420.724 311.508 421.41 311.656 422.064C304.157 421.698 297.521 418.109 293.063 412.642C292.285 413.99 291.829 415.534 291.829 417.195C291.829 420.314 293.438 423.08 295.836 424.681C294.386 424.653 292.964 424.233 291.76 423.571C291.76 423.599 291.76 423.634 291.76 423.67C291.76 428.047 294.887 431.683 298.987 432.52C298.253 432.721 297.453 432.817 296.622 432.817C296.045 432.817 295.462 432.784 294.914 432.663C296.083 436.23 299.4 438.853 303.343 438.938C300.274 441.335 296.377 442.78 292.159 442.78C291.419 442.78 290.71 442.747 290 442.656C293.996 445.229 298.731 446.698 303.838 446.698C320.437 446.698 329.512 432.968 329.512 421.067C329.512 420.669 329.498 420.284 329.479 419.903C331.269 418.634 332.774 417.049 334 415.226Z" fill="#64FFF6"/>
<path d="M312 595C299.916 595 290 604.916 290 617C290 620.988 291.075 624.87 293.114 628.267L290 639L300.733 635.886C304.13 637.925 308.012 639 312 639C324.084 639 334 629.084 334 617C334 604.916 324.084 595 312 595Z" fill="#80E290"/>
<path d="M325.754 626.296L324.731 627.319C323.283 628.767 319.952 628.653 317.812 628.239C310.697 626.865 302.401 618.824 300.801 611.86C300.008 608.411 300.446 605.412 301.59 604.267L302.613 603.244C303.178 602.679 304.096 602.68 304.661 603.244L308.755 607.339C309.029 607.612 309.178 607.974 309.178 608.362C309.178 608.75 309.029 609.112 308.755 609.384L307.732 610.409C306.604 611.54 306.604 613.376 307.732 614.504L314.494 621.177C315.625 622.308 317.456 622.31 318.589 621.177L319.613 620.154C320.141 619.622 321.128 619.621 321.661 620.154L325.754 624.248C326.31 624.801 326.332 625.718 325.754 626.296Z" fill="white"/>
<circle cx="760" cy="664" r="22" fill="url(#paint8_linear)"/>
<mask id="mask0" mask-type="alpha" maskUnits="userSpaceOnUse" x="738" y="642" width="44" height="44">
<circle cx="760" cy="664" r="22" fill="url(#paint9_linear)"/>
</mask>
<g mask="url(#mask0)">
<path d="M755.627 686.605C758.116 686.593 760.605 686.508 763.093 686.352V669.007H768.047L768.645 662.774H763.093V658.816C763.093 657.942 763.802 657.233 764.676 657.233H768.645V651H762.367C758.644 651 755.627 654.018 755.627 657.74V662.774H752V669.007H755.627V686.605Z" fill="white"/>
</g>
<circle cx="804" cy="495" r="22" fill="url(#paint10_linear)"/>
<path d="M804 481.013C798.266 481.013 792.821 480.504 790.741 485.838C789.882 488.04 790.006 490.901 790.006 494.998C790.006 498.593 789.891 501.971 790.741 504.157C792.816 509.494 798.305 508.983 803.997 508.983C809.488 508.983 815.15 509.554 817.255 504.157C818.116 501.932 817.99 499.114 817.99 494.998C817.99 489.535 818.291 486.008 815.64 483.36C812.955 480.677 809.324 481.013 803.994 481.013H804ZM802.746 483.534C814.708 483.515 816.23 482.186 815.39 500.644C815.092 507.173 810.117 506.456 804.002 506.456C792.852 506.456 792.532 506.137 792.532 494.992C792.532 483.717 793.416 483.54 802.746 483.53V483.534ZM811.47 485.855C810.543 485.855 809.792 486.606 809.792 487.532C809.792 488.459 810.543 489.21 811.47 489.21C812.397 489.21 813.149 488.459 813.149 487.532C813.149 486.606 812.397 485.855 811.47 485.855ZM804 487.816C800.032 487.816 796.815 491.032 796.815 494.998C796.815 498.964 800.032 502.178 804 502.178C807.969 502.178 811.185 498.964 811.185 494.998C811.185 491.032 807.969 487.816 804 487.816ZM804 490.337C810.167 490.337 810.175 499.66 804 499.66C797.835 499.66 797.825 490.337 804 490.337Z" fill="white"/>
<defs>
<filter id="filter0_f" x="0" y="0" width="1106" height="1106" filterUnits="userSpaceOnUse" color-interpolation-filters="sRGB">
<feFlood flood-opacity="0" result="BackgroundImageFix"/>
<feBlend mode="normal" in="SourceGraphic" in2="BackgroundImageFix" result="shape"/>
<feGaussianBlur stdDeviation="150" result="effect1_foregroundBlur"/>
</filter>
<linearGradient id="paint0_linear" x1="342" y1="364" x2="758" y2="780" gradientUnits="userSpaceOnUse">
<stop stop-color="#099BFF"/>
<stop offset="1" stop-color="#40BBFF"/>
</linearGradient>
<linearGradient id="paint1_linear" x1="415" y1="437" x2="685" y2="707" gradientUnits="userSpaceOnUse">
<stop stop-color="#099BFF"/>
<stop offset="1" stop-color="#40BBFF"/>
</linearGradient>
<linearGradient id="paint2_linear" x1="479" y1="501" x2="621" y2="643" gradientUnits="userSpaceOnUse">
<stop stop-color="#099BFF"/>
<stop offset="1" stop-color="#40BBFF"/>
</linearGradient>
<linearGradient id="paint3_linear" x1="528.5" y1="546" x2="567.5" y2="598" gradientUnits="userSpaceOnUse">
<stop stop-color="#00A3FF"/>
<stop offset="1" stop-color="#43D2FF"/>
</linearGradient>
<linearGradient id="paint4_linear" x1="283" y1="415.5" x2="475.096" y2="533.889" gradientUnits="userSpaceOnUse">
<stop stop-color="#8DD3C7"/>
<stop offset="0.990408" stop-color="#8B81FF"/>
</linearGradient>
<linearGradient id="paint5_linear" x1="481" y1="616" x2="330.575" y2="727.808" gradientUnits="userSpaceOnUse">
<stop stop-color="#82CFE8"/>
<stop offset="0.990408" stop-color="#C781FF"/>
</linearGradient>
<linearGradient id="paint6_linear" x1="825" y1="489.5" x2="671.118" y2="594.268" gradientUnits="userSpaceOnUse">
<stop stop-color="#CCA3ED"/>
<stop offset="0.990408" stop-color="#8195FF"/>
</linearGradient>
<linearGradient id="paint7_linear" x1="788.5" y1="775" x2="633.108" y2="589.312" gradientUnits="userSpaceOnUse">
<stop stop-color="#A3DBED"/>
<stop offset="0.990408" stop-color="#A981FF"/>
</linearGradient>
<linearGradient id="paint8_linear" x1="775" y1="645" x2="752" y2="686" gradientUnits="userSpaceOnUse">
<stop stop-color="#5BC4FF"/>
<stop offset="1" stop-color="#456BF3"/>
</linearGradient>
<linearGradient id="paint9_linear" x1="764" y1="653" x2="749" y2="686" gradientUnits="userSpaceOnUse">
<stop stop-color="#78E5FD"/>
<stop offset="1" stop-color="#3E7BFB"/>
</linearGradient>
<linearGradient id="paint10_linear" x1="784.962" y1="514.133" x2="823.18" y2="475.912" gradientUnits="userSpaceOnUse">
<stop stop-color="#FFD83A"/>
<stop offset="0.5" stop-color="#FF6855"/>
<stop offset="1" stop-color="#CB17A7"/>
</linearGradient>
</defs>
</svg>
