<svg width="263" height="133" viewBox="0 0 263 133" fill="none" xmlns="http://www.w3.org/2000/svg">
<path d="M14.1397 25.0394C14.1397 22.8911 13.5148 19.571 13.007 17.618L11.054 10.4309C10.6243 8.9076 9.9603 7.3452 9.33534 6.3687C9.92124 6.3687 11.4446 6.25152 11.9133 6.05622C12.2648 5.0016 12.5773 3.28296 12.5773 2.30646H1.09368C1.21086 3.4392 1.40616 4.92348 1.71864 5.86092C2.22642 6.05622 3.08574 6.21246 3.67164 6.32964L10.8587 30.4687H16.4833L20.7799 14.1026C21.2486 12.3449 21.5221 9.61068 21.6392 7.5405H22.108C22.2251 9.6888 22.4595 12.3058 22.8892 14.0635L26.8733 30.4297H31.9511L39.7631 6.3687C40.388 6.32964 41.1692 6.21246 41.7551 6.05622C42.0676 5.15784 42.302 3.36108 42.302 2.30646H32.6932C32.6932 3.28296 32.9276 5.04066 33.201 5.93904C33.865 6.13434 34.8415 6.29058 35.5055 6.32964C34.8415 7.38426 34.1775 9.02478 33.7478 10.4309L31.5995 17.618C31.0918 19.3366 30.5059 22.4224 30.5059 24.7269H30.0371C30.0371 22.4614 29.6075 19.4147 29.1778 17.657L25.1937 1.95492H19.7253L15.5849 17.618C15.0772 19.571 14.6084 22.9692 14.6084 25.0394H14.1397ZM57.5781 21.6802C58.164 14.8057 56.1719 10.2747 50.1958 10.2747C44.1024 10.2747 40.1573 14.6885 40.1573 20.86C40.1573 26.4846 43.6727 30.664 49.8833 30.664C52.6565 30.664 55.0783 29.9609 56.5235 29.1797C57.1484 28.2032 57.6172 26.4455 57.5 25.3909C56.0938 25.8987 53.1253 26.4065 51.3676 26.4065C48.2818 26.4065 46.3679 24.7269 46.0554 21.6802H57.5781ZM45.8601 18.0867C46.0554 15.5087 47.4616 13.6729 49.4536 13.6729C51.7582 13.6729 52.4222 16.0556 52.1878 18.0867H45.8601ZM62.9846 5.5875V26.0549C62.2034 26.3284 61.2659 26.719 60.7191 27.1486C60.4457 27.7736 60.1722 29.0626 60.0941 30H71.5778C71.6949 29.2188 71.5778 27.5783 71.4215 26.9533C70.7575 26.6408 69.4685 26.3674 68.6483 26.2502V1.64244C67.9842 1.36902 66.5781 1.21278 65.6016 1.21278C63.922 1.21278 62.2034 1.52526 61.1878 1.99398C60.7191 2.81424 60.2894 4.49382 60.2504 5.5875H62.9846ZM77.3651 5.5875V26.0549C76.5839 26.3284 75.6464 26.719 75.0996 27.1486C74.8262 27.7736 74.5527 29.0626 74.4746 30H85.9583C86.0754 29.2188 85.9583 27.5783 85.802 26.9533C85.138 26.6408 83.849 26.3674 83.0288 26.2502V1.64244C82.3647 1.36902 80.9586 1.21278 79.9821 1.21278C78.3025 1.21278 76.5839 1.52526 75.5683 1.99398C75.0996 2.81424 74.6699 4.49382 74.6309 5.5875H77.3651ZM91.4132 29.4532C91.1007 31.6015 90.2805 34.531 89.4602 36.8355C89.968 37.3042 91.3351 38.0073 92.3507 38.2807C94.0302 35.5465 96.5301 29.7266 97.1941 25.6643C96.0223 25.2737 94.3427 25.0003 93.0537 25.0003C92.3507 25.0003 91.4523 25.0784 90.8664 25.2347C90.1242 26.0159 89.3821 27.7345 89.0696 28.9454L91.4132 29.4532ZM110.748 14.9619V26.0549C109.967 26.3284 109.029 26.719 108.482 27.1486C108.209 27.7736 107.936 29.0626 107.857 30H119.341C119.458 29.2188 119.341 27.5783 119.185 26.9533C118.521 26.6408 117.232 26.3674 116.412 26.2502V11.0168C115.748 10.7434 114.341 10.5872 113.326 10.5872C111.646 10.5872 109.889 10.8997 108.873 11.3684C108.404 12.1886 107.975 13.8682 107.936 14.9619H110.748ZM113.677 0.119097C111.646 0.119097 110.201 1.44714 110.201 3.47826C110.201 5.82186 111.412 7.07178 113.677 7.07178C115.669 7.07178 117.076 5.7828 117.076 3.47826C117.076 1.32996 115.669 0.119097 113.677 0.119097ZM122.786 10.3528C122.161 10.5091 121.224 10.8606 120.638 11.2121C120.247 12.0324 119.935 13.8682 119.935 14.8057H122.864C122.591 17.8914 122.474 21.7193 122.474 24.2582C122.474 28.8282 124.348 30.664 128.098 30.664C129.543 30.664 131.926 30.2344 133.41 29.4141C133.996 28.4767 134.426 26.758 134.348 25.7425C133.332 26.0159 131.692 26.2502 130.715 26.2502C129.114 26.2502 128.215 25.5862 128.215 23.4379V14.8057H133.84C133.996 13.6729 133.84 11.7199 133.645 10.9387H128.215V4.96254C126.731 4.96254 124.505 5.35314 123.489 5.89998L122.786 10.3528ZM140.767 5.74374C140.455 7.89204 139.634 10.8215 138.814 13.1261C139.283 13.5948 140.494 14.2979 141.47 14.5713C143.15 11.8371 145.65 6.01716 146.314 1.95492C145.181 1.56432 143.618 1.2909 142.369 1.2909C141.705 1.2909 140.884 1.36902 140.298 1.52526C139.556 2.30646 138.814 4.0251 138.502 5.23596L140.767 5.74374ZM159.066 15.704C160.12 16.1728 161.878 16.5634 163.519 16.5634C163.792 15.6259 163.948 14.2198 163.948 12.9698C163.948 12.5011 163.909 11.9933 163.87 11.6027C161.761 10.6653 159.456 10.2747 157.308 10.2747C152.465 10.2747 149.613 12.6574 149.613 16.1337C149.613 23.7895 158.91 21.8365 158.91 25.3909C158.91 26.6408 158.089 27.1877 156.644 27.1877C155.785 27.1877 154.73 26.9143 154.027 26.5237V24.3754C152.66 23.9066 151.176 23.7504 149.535 23.7504C149.301 24.5316 149.145 25.8206 149.145 27.0705C149.145 27.8517 149.223 28.5938 149.34 29.1797C151.371 30.2734 153.754 30.664 156.371 30.664C160.706 30.664 164.456 29.0235 164.456 24.3363C164.456 17.0711 155.277 19.0632 155.277 15.2353C155.277 14.1026 155.98 13.5167 157.347 13.5167C158.011 13.5167 158.636 13.712 159.066 13.9463V15.704ZM183.387 17.2274C184.207 15.8603 185.496 14.6104 187.371 14.6104C189.598 14.6104 190.379 16.2118 190.379 18.4773V26.0549C189.793 26.3284 188.973 26.719 188.543 27.1486C188.309 27.7736 188.113 29.0626 188.035 30H198.738C198.855 29.2188 198.738 27.5783 198.581 26.9533C197.878 26.6408 196.628 26.3284 195.808 26.2112C196.003 23.6332 196.121 20.235 196.121 17.4227C196.121 11.2512 192.996 10.2747 189.754 10.2747C186.473 10.2747 184.52 11.759 183.582 14.1026H182.996C183.231 11.9933 183.387 9.45444 183.387 7.5405V1.64244C182.723 1.36902 181.317 1.21278 180.34 1.21278C178.661 1.21278 176.942 1.52526 175.927 1.99398C175.458 2.81424 175.028 4.49382 174.989 5.5875H177.723V26.0549C176.981 26.3284 176.005 26.719 175.458 27.1486C175.184 27.7736 174.911 29.0626 174.833 30H186.082C186.199 29.2188 186.082 27.5783 185.926 26.9533C185.34 26.6408 184.129 26.3674 183.387 26.2502V17.2274ZM213.106 27.8517C213.418 29.1016 214.121 30.2344 214.981 30.664C217.09 30.664 219.473 30.1172 220.527 29.4922C220.918 28.711 221.269 27.2658 221.191 26.2502C220.527 26.4065 219.355 26.5627 218.613 26.5627C218.301 25.9768 218.066 24.8831 218.066 23.6723V17.1102C218.066 12.1496 215.371 10.2747 210.45 10.2747C208.067 10.2747 204.864 10.7434 203.419 11.2903C202.989 12.1105 202.638 13.5948 202.638 14.9228C202.638 15.2744 202.716 15.9775 202.794 16.2899C204.239 15.5087 207.325 14.6494 209.122 14.6494C211.387 14.6494 212.559 15.5087 212.559 17.5399V18.9851C211.622 18.5945 210.489 18.3601 209.356 18.3601C204.981 18.3601 201.388 20.5084 201.388 24.8441C201.388 28.7501 204.161 30.664 207.013 30.664C209.903 30.664 211.661 29.6094 212.754 27.8517H213.106ZM212.676 25.3519C212.051 26.0549 210.997 26.758 209.473 26.758C208.184 26.758 207.052 25.9768 207.052 24.2191C207.052 22.5395 208.262 21.4459 210.528 21.4459C211.036 21.4459 211.973 21.524 212.676 21.6802V25.3519ZM230.215 14.6885V11.0168C229.629 10.7434 228.457 10.5872 227.52 10.5872C225.996 10.5872 224.473 10.8997 223.536 11.3684C223.028 12.2277 222.676 13.8682 222.676 14.9619H225.41V26.0549C224.668 26.3284 223.692 26.719 223.145 27.1486C222.871 27.7736 222.598 29.0626 222.52 30H235.136C235.254 29.2188 235.136 27.5783 234.902 26.9533C234.043 26.6018 232.246 26.2502 231.074 26.1331V17.8133C232.09 16.1728 233.691 15.2353 235.41 15.2353C236.152 15.2353 237.558 15.4306 238.378 15.8993C238.535 15.3916 238.613 14.7275 238.613 14.0635C238.613 12.7355 238.339 11.3684 237.831 10.6653C237.363 10.4309 236.542 10.2747 235.839 10.2747C233.105 10.2747 231.23 12.6183 230.801 14.6885H230.215ZM253.578 11.2903C252.68 10.6653 251.469 10.2747 249.946 10.2747C244.321 10.2747 240.454 14.6494 240.454 21.3287C240.454 28.3595 244.438 30.664 247.837 30.664C251.157 30.664 252.875 28.9454 253.735 27.383H254.086C254.282 28.5157 254.633 29.5703 255.141 30.4687C257.133 30.4687 260.141 30.1953 261.742 29.6875C262.133 28.8673 262.484 27.422 262.406 26.4065H259.633C259.398 25.6253 259.242 24.3363 259.242 23.2426V1.64244C258.578 1.36902 257.172 1.21278 256.195 1.21278C254.516 1.21278 252.797 1.52526 251.782 1.99398C251.313 2.81424 250.883 4.49382 250.844 5.5875H253.578V11.2903ZM253.696 24.7269C253.032 25.5862 251.821 26.5237 250.258 26.5237C247.993 26.5237 246.391 24.4925 246.391 20.5084C246.391 16.6415 247.954 14.1026 251.352 14.1026C252.172 14.1026 253.032 14.2979 253.696 14.6494V24.7269ZM3.20292 61.3528C2.57796 61.5091 1.64052 61.8606 1.05462 62.2121C0.66402 63.0324 0.35154 64.8682 0.35154 65.8057H3.28104C3.00762 68.8914 2.89044 72.7193 2.89044 75.2582C2.89044 79.8282 4.76532 81.664 8.51508 81.664C9.9603 81.664 12.343 81.2344 13.8272 80.4141C14.4131 79.4767 14.8428 77.758 14.7647 76.7425C13.7491 77.0159 12.1086 77.2502 11.1321 77.2502C9.53064 77.2502 8.63226 76.5862 8.63226 74.4379V65.8057H14.2569C14.4131 64.6729 14.2569 62.7199 14.0616 61.9387H8.63226V55.9625C7.14798 55.9625 4.92156 56.3531 3.906 56.9L3.20292 61.3528ZM26.8086 61.2747C21.1839 61.2747 16.9655 65.0245 16.9655 71.1569C16.9655 78.0705 20.5199 81.664 26.8086 81.664C32.7457 81.664 36.6126 77.8752 36.6126 71.1569C36.6126 64.7901 32.6676 61.2747 26.8086 61.2747ZM22.7854 71.1569C22.7854 67.4071 24.1916 64.9073 26.8086 64.9073C29.2303 64.9073 30.7536 67.5634 30.7536 71.1569C30.7536 75.3754 29.5037 77.9924 26.8086 77.9924C24.3087 77.9924 22.7854 75.2972 22.7854 71.1569ZM49.9019 81.4687C48.3786 81.8203 46.7771 83.1483 46.7771 85.4919C46.7771 89.1635 50.9175 91.1165 56.6593 91.1165C62.9479 91.1165 67.9086 88.9682 67.9086 83.9295C67.9086 79.3985 64.0026 78.2267 58.6513 78.2267C55.2531 78.2267 53.886 77.8361 53.886 76.7034C53.886 76.3909 54.0032 76.0394 54.1594 75.7269C54.8625 75.8831 55.7609 75.9613 56.5812 75.9613C61.8152 75.9613 65.0572 73.2661 65.0572 68.618C65.0572 67.4852 64.8619 66.5087 64.5103 65.6104H68.4945C68.4945 64.3995 68.1039 62.5637 67.6742 61.5872C66.9711 61.3919 66.229 61.2747 65.4087 61.2747C63.9244 61.2747 62.4011 61.6262 61.3465 62.2512C59.9403 61.5481 58.2998 61.2747 56.5812 61.2747C51.7377 61.2747 48.0661 64.048 48.0661 68.618C48.0661 71.4694 49.1598 73.188 50.7222 74.2036V74.5551C49.4332 75.141 48.2614 76.3909 48.2614 78.2267C48.2614 79.5157 49.1598 80.7266 49.9019 81.1172V81.4687ZM53.1439 82.3671C54.55 82.6405 56.1906 82.7577 57.3624 82.7577C61.2684 82.7577 62.5573 83.4608 62.5573 84.7107C62.5573 86.6246 60.0575 87.6402 57.3233 87.6402C54.7063 87.6402 52.0893 86.6637 52.0893 84.5154C52.0893 83.6561 52.4799 82.953 53.1439 82.3671ZM53.7298 68.618C53.7298 65.9228 54.6282 64.3995 56.5812 64.3995C58.2998 64.3995 59.3544 66.1572 59.3544 68.618C59.3544 71.1959 58.456 72.8755 56.5812 72.8755C54.7844 72.8755 53.7298 71.1569 53.7298 68.618ZM87.4834 72.6802C88.0693 65.8057 86.0773 61.2747 80.1011 61.2747C74.0077 61.2747 70.0627 65.6885 70.0627 71.86C70.0627 77.4846 73.5781 81.664 79.7886 81.664C82.5619 81.664 84.9836 80.9609 86.4288 80.1797C87.0538 79.2032 87.5225 77.4455 87.4053 76.3909C85.9991 76.8987 83.0306 77.4065 81.2729 77.4065C78.1871 77.4065 76.2732 75.7269 75.9607 72.6802H87.4834ZM75.7654 69.0867C75.9607 66.5087 77.3669 64.6729 79.3589 64.6729C81.6635 64.6729 82.3275 67.0556 82.0931 69.0867H75.7654ZM92.8807 61.3528C92.2558 61.5091 91.3183 61.8606 90.7324 62.2121C90.3418 63.0324 90.0293 64.8682 90.0293 65.8057H92.9588C92.6854 68.8914 92.5682 72.7193 92.5682 75.2582C92.5682 79.8282 94.4431 81.664 98.1929 81.664C99.6381 81.664 102.021 81.2344 103.505 80.4141C104.091 79.4767 104.521 77.758 104.442 76.7425C103.427 77.0159 101.786 77.2502 100.81 77.2502C99.2084 77.2502 98.3101 76.5862 98.3101 74.4379V65.8057H103.935C104.091 64.6729 103.935 62.7199 103.739 61.9387H98.3101V55.9625C96.8258 55.9625 94.5994 56.3531 93.5838 56.9L92.8807 61.3528ZM116.715 79.9454C119.058 81.1172 121.871 81.664 124.839 81.664C131.167 81.664 135.503 77.4065 135.503 70.9616C135.503 63.7355 131.401 61.2747 127.651 61.2747C124.956 61.2747 123.238 62.759 122.535 64.1651H121.949C122.144 62.759 122.378 60.3763 122.378 58.6186V52.6424C121.714 52.369 120.308 52.2128 119.332 52.2128C117.652 52.2128 115.933 52.5253 114.918 52.994C114.449 53.8142 114.02 55.4938 113.98 56.5875H116.715V79.9454ZM122.261 67.2899C123.003 66.1572 124.409 65.3369 125.816 65.3369C128.003 65.3369 129.565 67.5243 129.565 71.5084C129.565 75.3363 127.964 77.8752 124.37 77.8752C123.706 77.8752 122.808 77.758 122.261 77.6018V67.2899ZM147.841 61.2747C142.217 61.2747 137.998 65.0245 137.998 71.1569C137.998 78.0705 141.553 81.664 147.841 81.664C153.778 81.664 157.645 77.8752 157.645 71.1569C157.645 64.7901 153.7 61.2747 147.841 61.2747ZM143.818 71.1569C143.818 67.4071 145.224 64.9073 147.841 64.9073C150.263 64.9073 151.786 67.5634 151.786 71.1569C151.786 75.3754 150.536 77.9924 147.841 77.9924C145.341 77.9924 143.818 75.2972 143.818 71.1569ZM167.581 65.6885V62.0168C166.996 61.7434 165.824 61.5872 164.886 61.5872C163.363 61.5872 161.84 61.8997 160.902 62.3684C160.394 63.2277 160.043 64.8682 160.043 65.9619H162.777V77.0549C162.035 77.3284 161.058 77.719 160.512 78.1486C160.238 78.7736 159.965 80.0626 159.887 81H172.503C172.62 80.2188 172.503 78.5783 172.269 77.9533C171.409 77.6018 169.613 77.2502 168.441 77.1331V68.8133C169.456 67.1728 171.058 66.2353 172.776 66.2353C173.519 66.2353 174.925 66.4306 175.745 66.8993C175.901 66.3916 175.979 65.7275 175.979 65.0635C175.979 63.7355 175.706 62.3684 175.198 61.6653C174.729 61.4309 173.909 61.2747 173.206 61.2747C170.472 61.2747 168.597 63.6183 168.167 65.6885H167.581ZM195.318 72.6802C195.904 65.8057 193.912 61.2747 187.936 61.2747C181.842 61.2747 177.897 65.6885 177.897 71.86C177.897 77.4846 181.413 81.664 187.623 81.664C190.396 81.664 192.818 80.9609 194.263 80.1797C194.888 79.2032 195.357 77.4455 195.24 76.3909C193.834 76.8987 190.865 77.4065 189.107 77.4065C186.022 77.4065 184.108 75.7269 183.795 72.6802H195.318ZM183.6 69.0867C183.795 66.5087 185.201 64.6729 187.194 64.6729C189.498 64.6729 190.162 67.0556 189.928 69.0867H183.6ZM211.505 62.2903C210.607 61.6653 209.396 61.2747 207.872 61.2747C202.248 61.2747 198.381 65.6494 198.381 72.3287C198.381 79.3595 202.365 81.664 205.763 81.664C209.083 81.664 210.802 79.9454 211.661 78.383H212.013C212.208 79.5157 212.56 80.5703 213.067 81.4687C215.059 81.4687 218.067 81.1953 219.669 80.6875C220.059 79.8673 220.411 78.422 220.333 77.4065H217.559C217.325 76.6253 217.169 75.3363 217.169 74.2426V52.6424C216.505 52.369 215.099 52.2128 214.122 52.2128C212.442 52.2128 210.724 52.5253 209.708 52.994C209.24 53.8142 208.81 55.4938 208.771 56.5875H211.505V62.2903ZM211.622 75.7269C210.958 76.5862 209.747 77.5237 208.185 77.5237C205.919 77.5237 204.318 75.4925 204.318 71.5084C204.318 67.6415 205.88 65.1026 209.279 65.1026C210.099 65.1026 210.958 65.2979 211.622 65.6494V75.7269ZM9.84312 127.821C9.765 126.532 9.41346 124.657 9.06192 123.368L8.12448 119.774C7.96824 119.149 7.46046 117.821 6.99174 117.001C7.57764 116.923 8.5932 116.649 9.06192 116.415C9.41346 115.478 9.68688 114.071 9.68688 112.939H0.15624C0.1953 113.954 0.31248 115.321 0.5859 116.181C0.85932 116.454 1.52334 116.884 1.953 117.04L6.32772 132.586L12.6554 132L15.0381 122.626C15.3506 121.337 15.7412 119.032 15.7802 117.665H16.249C16.288 118.993 16.6005 121.298 16.913 122.626L19.2956 132.586L25.5843 132L30.1934 116.923C30.623 116.884 31.3652 116.688 31.7558 116.532C32.0683 115.673 32.4198 114.032 32.4198 112.939H24.0219C24.0219 114.032 24.1781 115.399 24.4906 116.22C24.8812 116.493 25.6234 116.767 26.1702 116.923C25.8187 117.548 25.3109 119.032 25.0765 119.97L24.1391 123.329C23.8266 124.5 23.3188 126.649 23.2016 127.86H22.772C22.6939 126.61 22.3814 124.579 22.108 123.29L19.6862 112.392L13.4366 112.978L11.0149 123.407C10.7415 124.579 10.429 126.414 10.3118 127.821H9.84312ZM36.4424 116.962V128.055C35.6612 128.328 34.7237 128.719 34.1769 129.149C33.9035 129.774 33.6301 131.063 33.5519 132H45.0356C45.1528 131.219 45.0356 129.578 44.8793 128.953C44.2153 128.641 42.9263 128.367 42.1061 128.25V113.017C41.4421 112.743 40.0359 112.587 39.0203 112.587C37.3408 112.587 35.5831 112.9 34.5675 113.368C34.0988 114.189 33.6691 115.868 33.6301 116.962H36.4424ZM39.3719 102.119C37.3408 102.119 35.8955 103.447 35.8955 105.478C35.8955 107.822 37.1064 109.072 39.3719 109.072C41.3639 109.072 42.7701 107.783 42.7701 105.478C42.7701 103.33 41.3639 102.119 39.3719 102.119ZM48.4805 112.353C47.8555 112.509 46.9181 112.861 46.3322 113.212C45.9416 114.032 45.6291 115.868 45.6291 116.806H48.5586C48.2852 119.891 48.168 123.719 48.168 126.258C48.168 130.828 50.0429 132.664 53.7926 132.664C55.2379 132.664 57.6205 132.234 59.1048 131.414C59.6907 130.477 60.1204 128.758 60.0422 127.742C59.0267 128.016 57.3862 128.25 56.4097 128.25C54.8082 128.25 53.9098 127.586 53.9098 125.438V116.806H59.5345C59.6907 115.673 59.5345 113.72 59.3392 112.939H53.9098V106.963C52.4255 106.963 50.1991 107.353 49.1836 107.9L48.4805 112.353ZM70.2503 119.227C71.0706 117.86 72.3596 116.61 74.2345 116.61C76.4609 116.61 77.2421 118.212 77.2421 120.477V128.055C76.6562 128.328 75.8359 128.719 75.4063 129.149C75.1719 129.774 74.9766 131.063 74.8985 132H85.6009C85.7181 131.219 85.6009 129.578 85.4447 128.953C84.7416 128.641 83.4917 128.328 82.6714 128.211C82.8667 125.633 82.9839 122.235 82.9839 119.423C82.9839 113.251 79.8591 112.275 76.6171 112.275C73.3361 112.275 71.3831 113.759 70.4456 116.103H69.8597C70.0941 113.993 70.2503 111.454 70.2503 109.54V103.642C69.5863 103.369 68.1802 103.213 67.2037 103.213C65.5241 103.213 63.8054 103.525 62.7899 103.994C62.3212 104.814 61.8915 106.494 61.8524 107.587H64.5866V128.055C63.8445 128.328 62.868 128.719 62.3212 129.149C62.0477 129.774 61.7743 131.063 61.6962 132H72.9455C73.0627 131.219 72.9455 129.578 72.7892 128.953C72.2033 128.641 70.9925 128.367 70.2503 128.25V119.227ZM110.016 126.453C109.157 127.469 107.946 128.289 106.735 128.289C104.352 128.289 103.649 126.961 103.649 124.422V113.017C102.985 112.743 101.618 112.587 100.603 112.587C98.9231 112.587 97.1654 112.9 96.1499 113.368C95.6811 114.189 95.2515 115.868 95.2124 116.962H98.1029C97.9466 119.657 97.8685 122.938 97.8685 125.399C97.8685 131.531 100.798 132.664 104.04 132.664C107.165 132.664 108.962 131.063 110.016 129.07H110.368C110.563 130.32 110.954 131.492 111.5 132.469C113.571 132.469 116.774 132.195 118.219 131.688C118.609 130.867 118.961 129.422 118.883 128.406H116.031C115.797 127.508 115.719 126.493 115.719 125.516V113.017C115.055 112.743 113.688 112.587 112.672 112.587C110.993 112.587 109.235 112.9 108.219 113.368C107.751 114.267 107.321 115.868 107.282 116.962H110.016V126.453ZM131.792 117.704C132.847 118.173 134.605 118.563 136.245 118.563C136.519 117.626 136.675 116.22 136.675 114.97C136.675 114.501 136.636 113.993 136.597 113.603C134.488 112.665 132.183 112.275 130.035 112.275C125.191 112.275 122.34 114.657 122.34 118.134C122.34 125.789 131.636 123.836 131.636 127.391C131.636 128.641 130.816 129.188 129.371 129.188C128.511 129.188 127.457 128.914 126.754 128.524V126.375C125.387 125.907 123.902 125.75 122.262 125.75C122.027 126.532 121.871 127.821 121.871 129.07C121.871 129.852 121.949 130.594 122.066 131.18C124.098 132.273 126.48 132.664 129.097 132.664C133.433 132.664 137.183 131.023 137.183 126.336C137.183 119.071 128.004 121.063 128.004 117.235C128.004 116.103 128.707 115.517 130.074 115.517C130.738 115.517 131.363 115.712 131.792 115.946V117.704Z" fill="#3B4147"/>
<path d="M14.1397 25.0394C14.1397 22.8911 13.5148 19.571 13.007 17.618L11.054 10.4309C10.6243 8.9076 9.9603 7.3452 9.33534 6.3687C9.92124 6.3687 11.4446 6.25152 11.9133 6.05622C12.2648 5.0016 12.5773 3.28296 12.5773 2.30646H1.09368C1.21086 3.4392 1.40616 4.92348 1.71864 5.86092C2.22642 6.05622 3.08574 6.21246 3.67164 6.32964L10.8587 30.4687H16.4833L20.7799 14.1026C21.2486 12.3449 21.5221 9.61068 21.6392 7.5405H22.108C22.2251 9.6888 22.4595 12.3058 22.8892 14.0635L26.8733 30.4297H31.9511L39.7631 6.3687C40.388 6.32964 41.1692 6.21246 41.7551 6.05622C42.0676 5.15784 42.302 3.36108 42.302 2.30646H32.6932C32.6932 3.28296 32.9276 5.04066 33.201 5.93904C33.865 6.13434 34.8415 6.29058 35.5055 6.32964C34.8415 7.38426 34.1775 9.02478 33.7478 10.4309L31.5995 17.618C31.0918 19.3366 30.5059 22.4224 30.5059 24.7269H30.0371C30.0371 22.4614 29.6075 19.4147 29.1778 17.657L25.1937 1.95492H19.7253L15.5849 17.618C15.0772 19.571 14.6084 22.9692 14.6084 25.0394H14.1397ZM57.5781 21.6802C58.164 14.8057 56.1719 10.2747 50.1958 10.2747C44.1024 10.2747 40.1573 14.6885 40.1573 20.86C40.1573 26.4846 43.6727 30.664 49.8833 30.664C52.6565 30.664 55.0783 29.9609 56.5235 29.1797C57.1484 28.2032 57.6172 26.4455 57.5 25.3909C56.0938 25.8987 53.1253 26.4065 51.3676 26.4065C48.2818 26.4065 46.3679 24.7269 46.0554 21.6802H57.5781ZM45.8601 18.0867C46.0554 15.5087 47.4616 13.6729 49.4536 13.6729C51.7582 13.6729 52.4222 16.0556 52.1878 18.0867H45.8601ZM62.9846 5.5875V26.0549C62.2034 26.3284 61.2659 26.719 60.7191 27.1486C60.4457 27.7736 60.1722 29.0626 60.0941 30H71.5778C71.6949 29.2188 71.5778 27.5783 71.4215 26.9533C70.7575 26.6408 69.4685 26.3674 68.6483 26.2502V1.64244C67.9842 1.36902 66.5781 1.21278 65.6016 1.21278C63.922 1.21278 62.2034 1.52526 61.1878 1.99398C60.7191 2.81424 60.2894 4.49382 60.2504 5.5875H62.9846ZM77.3651 5.5875V26.0549C76.5839 26.3284 75.6464 26.719 75.0996 27.1486C74.8262 27.7736 74.5527 29.0626 74.4746 30H85.9583C86.0754 29.2188 85.9583 27.5783 85.802 26.9533C85.138 26.6408 83.849 26.3674 83.0288 26.2502V1.64244C82.3647 1.36902 80.9586 1.21278 79.9821 1.21278C78.3025 1.21278 76.5839 1.52526 75.5683 1.99398C75.0996 2.81424 74.6699 4.49382 74.6309 5.5875H77.3651ZM91.4132 29.4532C91.1007 31.6015 90.2805 34.531 89.4602 36.8355C89.968 37.3042 91.3351 38.0073 92.3507 38.2807C94.0302 35.5465 96.5301 29.7266 97.1941 25.6643C96.0223 25.2737 94.3427 25.0003 93.0537 25.0003C92.3507 25.0003 91.4523 25.0784 90.8664 25.2347C90.1242 26.0159 89.3821 27.7345 89.0696 28.9454L91.4132 29.4532ZM110.748 14.9619V26.0549C109.967 26.3284 109.029 26.719 108.482 27.1486C108.209 27.7736 107.936 29.0626 107.857 30H119.341C119.458 29.2188 119.341 27.5783 119.185 26.9533C118.521 26.6408 117.232 26.3674 116.412 26.2502V11.0168C115.748 10.7434 114.341 10.5872 113.326 10.5872C111.646 10.5872 109.889 10.8997 108.873 11.3684C108.404 12.1886 107.975 13.8682 107.936 14.9619H110.748ZM113.677 0.119097C111.646 0.119097 110.201 1.44714 110.201 3.47826C110.201 5.82186 111.412 7.07178 113.677 7.07178C115.669 7.07178 117.076 5.7828 117.076 3.47826C117.076 1.32996 115.669 0.119097 113.677 0.119097ZM122.786 10.3528C122.161 10.5091 121.224 10.8606 120.638 11.2121C120.247 12.0324 119.935 13.8682 119.935 14.8057H122.864C122.591 17.8914 122.474 21.7193 122.474 24.2582C122.474 28.8282 124.348 30.664 128.098 30.664C129.543 30.664 131.926 30.2344 133.41 29.4141C133.996 28.4767 134.426 26.758 134.348 25.7425C133.332 26.0159 131.692 26.2502 130.715 26.2502C129.114 26.2502 128.215 25.5862 128.215 23.4379V14.8057H133.84C133.996 13.6729 133.84 11.7199 133.645 10.9387H128.215V4.96254C126.731 4.96254 124.505 5.35314 123.489 5.89998L122.786 10.3528ZM140.767 5.74374C140.455 7.89204 139.634 10.8215 138.814 13.1261C139.283 13.5948 140.494 14.2979 141.47 14.5713C143.15 11.8371 145.65 6.01716 146.314 1.95492C145.181 1.56432 143.618 1.2909 142.369 1.2909C141.705 1.2909 140.884 1.36902 140.298 1.52526C139.556 2.30646 138.814 4.0251 138.502 5.23596L140.767 5.74374ZM159.066 15.704C160.12 16.1728 161.878 16.5634 163.519 16.5634C163.792 15.6259 163.948 14.2198 163.948 12.9698C163.948 12.5011 163.909 11.9933 163.87 11.6027C161.761 10.6653 159.456 10.2747 157.308 10.2747C152.465 10.2747 149.613 12.6574 149.613 16.1337C149.613 23.7895 158.91 21.8365 158.91 25.3909C158.91 26.6408 158.089 27.1877 156.644 27.1877C155.785 27.1877 154.73 26.9143 154.027 26.5237V24.3754C152.66 23.9066 151.176 23.7504 149.535 23.7504C149.301 24.5316 149.145 25.8206 149.145 27.0705C149.145 27.8517 149.223 28.5938 149.34 29.1797C151.371 30.2734 153.754 30.664 156.371 30.664C160.706 30.664 164.456 29.0235 164.456 24.3363C164.456 17.0711 155.277 19.0632 155.277 15.2353C155.277 14.1026 155.98 13.5167 157.347 13.5167C158.011 13.5167 158.636 13.712 159.066 13.9463V15.704ZM183.387 17.2274C184.207 15.8603 185.496 14.6104 187.371 14.6104C189.598 14.6104 190.379 16.2118 190.379 18.4773V26.0549C189.793 26.3284 188.973 26.719 188.543 27.1486C188.309 27.7736 188.113 29.0626 188.035 30H198.738C198.855 29.2188 198.738 27.5783 198.581 26.9533C197.878 26.6408 196.628 26.3284 195.808 26.2112C196.003 23.6332 196.121 20.235 196.121 17.4227C196.121 11.2512 192.996 10.2747 189.754 10.2747C186.473 10.2747 184.52 11.759 183.582 14.1026H182.996C183.231 11.9933 183.387 9.45444 183.387 7.5405V1.64244C182.723 1.36902 181.317 1.21278 180.34 1.21278C178.661 1.21278 176.942 1.52526 175.927 1.99398C175.458 2.81424 175.028 4.49382 174.989 5.5875H177.723V26.0549C176.981 26.3284 176.005 26.719 175.458 27.1486C175.184 27.7736 174.911 29.0626 174.833 30H186.082C186.199 29.2188 186.082 27.5783 185.926 26.9533C185.34 26.6408 184.129 26.3674 183.387 26.2502V17.2274ZM213.106 27.8517C213.418 29.1016 214.121 30.2344 214.981 30.664C217.09 30.664 219.473 30.1172 220.527 29.4922C220.918 28.711 221.269 27.2658 221.191 26.2502C220.527 26.4065 219.355 26.5627 218.613 26.5627C218.301 25.9768 218.066 24.8831 218.066 23.6723V17.1102C218.066 12.1496 215.371 10.2747 210.45 10.2747C208.067 10.2747 204.864 10.7434 203.419 11.2903C202.989 12.1105 202.638 13.5948 202.638 14.9228C202.638 15.2744 202.716 15.9775 202.794 16.2899C204.239 15.5087 207.325 14.6494 209.122 14.6494C211.387 14.6494 212.559 15.5087 212.559 17.5399V18.9851C211.622 18.5945 210.489 18.3601 209.356 18.3601C204.981 18.3601 201.388 20.5084 201.388 24.8441C201.388 28.7501 204.161 30.664 207.013 30.664C209.903 30.664 211.661 29.6094 212.754 27.8517H213.106ZM212.676 25.3519C212.051 26.0549 210.997 26.758 209.473 26.758C208.184 26.758 207.052 25.9768 207.052 24.2191C207.052 22.5395 208.262 21.4459 210.528 21.4459C211.036 21.4459 211.973 21.524 212.676 21.6802V25.3519ZM230.215 14.6885V11.0168C229.629 10.7434 228.457 10.5872 227.52 10.5872C225.996 10.5872 224.473 10.8997 223.536 11.3684C223.028 12.2277 222.676 13.8682 222.676 14.9619H225.41V26.0549C224.668 26.3284 223.692 26.719 223.145 27.1486C222.871 27.7736 222.598 29.0626 222.52 30H235.136C235.254 29.2188 235.136 27.5783 234.902 26.9533C234.043 26.6018 232.246 26.2502 231.074 26.1331V17.8133C232.09 16.1728 233.691 15.2353 235.41 15.2353C236.152 15.2353 237.558 15.4306 238.378 15.8993C238.535 15.3916 238.613 14.7275 238.613 14.0635C238.613 12.7355 238.339 11.3684 237.831 10.6653C237.363 10.4309 236.542 10.2747 235.839 10.2747C233.105 10.2747 231.23 12.6183 230.801 14.6885H230.215ZM253.578 11.2903C252.68 10.6653 251.469 10.2747 249.946 10.2747C244.321 10.2747 240.454 14.6494 240.454 21.3287C240.454 28.3595 244.438 30.664 247.837 30.664C251.157 30.664 252.875 28.9454 253.735 27.383H254.086C254.282 28.5157 254.633 29.5703 255.141 30.4687C257.133 30.4687 260.141 30.1953 261.742 29.6875C262.133 28.8673 262.484 27.422 262.406 26.4065H259.633C259.398 25.6253 259.242 24.3363 259.242 23.2426V1.64244C258.578 1.36902 257.172 1.21278 256.195 1.21278C254.516 1.21278 252.797 1.52526 251.782 1.99398C251.313 2.81424 250.883 4.49382 250.844 5.5875H253.578V11.2903ZM253.696 24.7269C253.032 25.5862 251.821 26.5237 250.258 26.5237C247.993 26.5237 246.391 24.4925 246.391 20.5084C246.391 16.6415 247.954 14.1026 251.352 14.1026C252.172 14.1026 253.032 14.2979 253.696 14.6494V24.7269ZM3.20292 61.3528C2.57796 61.5091 1.64052 61.8606 1.05462 62.2121C0.66402 63.0324 0.35154 64.8682 0.35154 65.8057H3.28104C3.00762 68.8914 2.89044 72.7193 2.89044 75.2582C2.89044 79.8282 4.76532 81.664 8.51508 81.664C9.9603 81.664 12.343 81.2344 13.8272 80.4141C14.4131 79.4767 14.8428 77.758 14.7647 76.7425C13.7491 77.0159 12.1086 77.2502 11.1321 77.2502C9.53064 77.2502 8.63226 76.5862 8.63226 74.4379V65.8057H14.2569C14.4131 64.6729 14.2569 62.7199 14.0616 61.9387H8.63226V55.9625C7.14798 55.9625 4.92156 56.3531 3.906 56.9L3.20292 61.3528ZM26.8086 61.2747C21.1839 61.2747 16.9655 65.0245 16.9655 71.1569C16.9655 78.0705 20.5199 81.664 26.8086 81.664C32.7457 81.664 36.6126 77.8752 36.6126 71.1569C36.6126 64.7901 32.6676 61.2747 26.8086 61.2747ZM22.7854 71.1569C22.7854 67.4071 24.1916 64.9073 26.8086 64.9073C29.2303 64.9073 30.7536 67.5634 30.7536 71.1569C30.7536 75.3754 29.5037 77.9924 26.8086 77.9924C24.3087 77.9924 22.7854 75.2972 22.7854 71.1569ZM49.9019 81.4687C48.3786 81.8203 46.7771 83.1483 46.7771 85.4919C46.7771 89.1635 50.9175 91.1165 56.6593 91.1165C62.9479 91.1165 67.9086 88.9682 67.9086 83.9295C67.9086 79.3985 64.0026 78.2267 58.6513 78.2267C55.2531 78.2267 53.886 77.8361 53.886 76.7034C53.886 76.3909 54.0032 76.0394 54.1594 75.7269C54.8625 75.8831 55.7609 75.9613 56.5812 75.9613C61.8152 75.9613 65.0572 73.2661 65.0572 68.618C65.0572 67.4852 64.8619 66.5087 64.5103 65.6104H68.4945C68.4945 64.3995 68.1039 62.5637 67.6742 61.5872C66.9711 61.3919 66.229 61.2747 65.4087 61.2747C63.9244 61.2747 62.4011 61.6262 61.3465 62.2512C59.9403 61.5481 58.2998 61.2747 56.5812 61.2747C51.7377 61.2747 48.0661 64.048 48.0661 68.618C48.0661 71.4694 49.1598 73.188 50.7222 74.2036V74.5551C49.4332 75.141 48.2614 76.3909 48.2614 78.2267C48.2614 79.5157 49.1598 80.7266 49.9019 81.1172V81.4687ZM53.1439 82.3671C54.55 82.6405 56.1906 82.7577 57.3624 82.7577C61.2684 82.7577 62.5573 83.4608 62.5573 84.7107C62.5573 86.6246 60.0575 87.6402 57.3233 87.6402C54.7063 87.6402 52.0893 86.6637 52.0893 84.5154C52.0893 83.6561 52.4799 82.953 53.1439 82.3671ZM53.7298 68.618C53.7298 65.9228 54.6282 64.3995 56.5812 64.3995C58.2998 64.3995 59.3544 66.1572 59.3544 68.618C59.3544 71.1959 58.456 72.8755 56.5812 72.8755C54.7844 72.8755 53.7298 71.1569 53.7298 68.618ZM87.4834 72.6802C88.0693 65.8057 86.0773 61.2747 80.1011 61.2747C74.0077 61.2747 70.0627 65.6885 70.0627 71.86C70.0627 77.4846 73.5781 81.664 79.7886 81.664C82.5619 81.664 84.9836 80.9609 86.4288 80.1797C87.0538 79.2032 87.5225 77.4455 87.4053 76.3909C85.9991 76.8987 83.0306 77.4065 81.2729 77.4065C78.1871 77.4065 76.2732 75.7269 75.9607 72.6802H87.4834ZM75.7654 69.0867C75.9607 66.5087 77.3669 64.6729 79.3589 64.6729C81.6635 64.6729 82.3275 67.0556 82.0931 69.0867H75.7654ZM92.8807 61.3528C92.2558 61.5091 91.3183 61.8606 90.7324 62.2121C90.3418 63.0324 90.0293 64.8682 90.0293 65.8057H92.9588C92.6854 68.8914 92.5682 72.7193 92.5682 75.2582C92.5682 79.8282 94.4431 81.664 98.1929 81.664C99.6381 81.664 102.021 81.2344 103.505 80.4141C104.091 79.4767 104.521 77.758 104.442 76.7425C103.427 77.0159 101.786 77.2502 100.81 77.2502C99.2084 77.2502 98.3101 76.5862 98.3101 74.4379V65.8057H103.935C104.091 64.6729 103.935 62.7199 103.739 61.9387H98.3101V55.9625C96.8258 55.9625 94.5994 56.3531 93.5838 56.9L92.8807 61.3528ZM116.715 79.9454C119.058 81.1172 121.871 81.664 124.839 81.664C131.167 81.664 135.503 77.4065 135.503 70.9616C135.503 63.7355 131.401 61.2747 127.651 61.2747C124.956 61.2747 123.238 62.759 122.535 64.1651H121.949C122.144 62.759 122.378 60.3763 122.378 58.6186V52.6424C121.714 52.369 120.308 52.2128 119.332 52.2128C117.652 52.2128 115.933 52.5253 114.918 52.994C114.449 53.8142 114.02 55.4938 113.98 56.5875H116.715V79.9454ZM122.261 67.2899C123.003 66.1572 124.409 65.3369 125.816 65.3369C128.003 65.3369 129.565 67.5243 129.565 71.5084C129.565 75.3363 127.964 77.8752 124.37 77.8752C123.706 77.8752 122.808 77.758 122.261 77.6018V67.2899ZM147.841 61.2747C142.217 61.2747 137.998 65.0245 137.998 71.1569C137.998 78.0705 141.553 81.664 147.841 81.664C153.778 81.664 157.645 77.8752 157.645 71.1569C157.645 64.7901 153.7 61.2747 147.841 61.2747ZM143.818 71.1569C143.818 67.4071 145.224 64.9073 147.841 64.9073C150.263 64.9073 151.786 67.5634 151.786 71.1569C151.786 75.3754 150.536 77.9924 147.841 77.9924C145.341 77.9924 143.818 75.2972 143.818 71.1569ZM167.581 65.6885V62.0168C166.996 61.7434 165.824 61.5872 164.886 61.5872C163.363 61.5872 161.84 61.8997 160.902 62.3684C160.394 63.2277 160.043 64.8682 160.043 65.9619H162.777V77.0549C162.035 77.3284 161.058 77.719 160.512 78.1486C160.238 78.7736 159.965 80.0626 159.887 81H172.503C172.62 80.2188 172.503 78.5783 172.269 77.9533C171.409 77.6018 169.613 77.2502 168.441 77.1331V68.8133C169.456 67.1728 171.058 66.2353 172.776 66.2353C173.519 66.2353 174.925 66.4306 175.745 66.8993C175.901 66.3916 175.979 65.7275 175.979 65.0635C175.979 63.7355 175.706 62.3684 175.198 61.6653C174.729 61.4309 173.909 61.2747 173.206 61.2747C170.472 61.2747 168.597 63.6183 168.167 65.6885H167.581ZM195.318 72.6802C195.904 65.8057 193.912 61.2747 187.936 61.2747C181.842 61.2747 177.897 65.6885 177.897 71.86C177.897 77.4846 181.413 81.664 187.623 81.664C190.396 81.664 192.818 80.9609 194.263 80.1797C194.888 79.2032 195.357 77.4455 195.24 76.3909C193.834 76.8987 190.865 77.4065 189.107 77.4065C186.022 77.4065 184.108 75.7269 183.795 72.6802H195.318ZM183.6 69.0867C183.795 66.5087 185.201 64.6729 187.194 64.6729C189.498 64.6729 190.162 67.0556 189.928 69.0867H183.6ZM211.505 62.2903C210.607 61.6653 209.396 61.2747 207.872 61.2747C202.248 61.2747 198.381 65.6494 198.381 72.3287C198.381 79.3595 202.365 81.664 205.763 81.664C209.083 81.664 210.802 79.9454 211.661 78.383H212.013C212.208 79.5157 212.56 80.5703 213.067 81.4687C215.059 81.4687 218.067 81.1953 219.669 80.6875C220.059 79.8673 220.411 78.422 220.333 77.4065H217.559C217.325 76.6253 217.169 75.3363 217.169 74.2426V52.6424C216.505 52.369 215.099 52.2128 214.122 52.2128C212.442 52.2128 210.724 52.5253 209.708 52.994C209.24 53.8142 208.81 55.4938 208.771 56.5875H211.505V62.2903ZM211.622 75.7269C210.958 76.5862 209.747 77.5237 208.185 77.5237C205.919 77.5237 204.318 75.4925 204.318 71.5084C204.318 67.6415 205.88 65.1026 209.279 65.1026C210.099 65.1026 210.958 65.2979 211.622 65.6494V75.7269ZM9.84312 127.821C9.765 126.532 9.41346 124.657 9.06192 123.368L8.12448 119.774C7.96824 119.149 7.46046 117.821 6.99174 117.001C7.57764 116.923 8.5932 116.649 9.06192 116.415C9.41346 115.478 9.68688 114.071 9.68688 112.939H0.15624C0.1953 113.954 0.31248 115.321 0.5859 116.181C0.85932 116.454 1.52334 116.884 1.953 117.04L6.32772 132.586L12.6554 132L15.0381 122.626C15.3506 121.337 15.7412 119.032 15.7802 117.665H16.249C16.288 118.993 16.6005 121.298 16.913 122.626L19.2956 132.586L25.5843 132L30.1934 116.923C30.623 116.884 31.3652 116.688 31.7558 116.532C32.0683 115.673 32.4198 114.032 32.4198 112.939H24.0219C24.0219 114.032 24.1781 115.399 24.4906 116.22C24.8812 116.493 25.6234 116.767 26.1702 116.923C25.8187 117.548 25.3109 119.032 25.0765 119.97L24.1391 123.329C23.8266 124.5 23.3188 126.649 23.2016 127.86H22.772C22.6939 126.61 22.3814 124.579 22.108 123.29L19.6862 112.392L13.4366 112.978L11.0149 123.407C10.7415 124.579 10.429 126.414 10.3118 127.821H9.84312ZM36.4424 116.962V128.055C35.6612 128.328 34.7237 128.719 34.1769 129.149C33.9035 129.774 33.6301 131.063 33.5519 132H45.0356C45.1528 131.219 45.0356 129.578 44.8793 128.953C44.2153 128.641 42.9263 128.367 42.1061 128.25V113.017C41.4421 112.743 40.0359 112.587 39.0203 112.587C37.3408 112.587 35.5831 112.9 34.5675 113.368C34.0988 114.189 33.6691 115.868 33.6301 116.962H36.4424ZM39.3719 102.119C37.3408 102.119 35.8955 103.447 35.8955 105.478C35.8955 107.822 37.1064 109.072 39.3719 109.072C41.3639 109.072 42.7701 107.783 42.7701 105.478C42.7701 103.33 41.3639 102.119 39.3719 102.119ZM48.4805 112.353C47.8555 112.509 46.9181 112.861 46.3322 113.212C45.9416 114.032 45.6291 115.868 45.6291 116.806H48.5586C48.2852 119.891 48.168 123.719 48.168 126.258C48.168 130.828 50.0429 132.664 53.7926 132.664C55.2379 132.664 57.6205 132.234 59.1048 131.414C59.6907 130.477 60.1204 128.758 60.0422 127.742C59.0267 128.016 57.3862 128.25 56.4097 128.25C54.8082 128.25 53.9098 127.586 53.9098 125.438V116.806H59.5345C59.6907 115.673 59.5345 113.72 59.3392 112.939H53.9098V106.963C52.4255 106.963 50.1991 107.353 49.1836 107.9L48.4805 112.353ZM70.2503 119.227C71.0706 117.86 72.3596 116.61 74.2345 116.61C76.4609 116.61 77.2421 118.212 77.2421 120.477V128.055C76.6562 128.328 75.8359 128.719 75.4063 129.149C75.1719 129.774 74.9766 131.063 74.8985 132H85.6009C85.7181 131.219 85.6009 129.578 85.4447 128.953C84.7416 128.641 83.4917 128.328 82.6714 128.211C82.8667 125.633 82.9839 122.235 82.9839 119.423C82.9839 113.251 79.8591 112.275 76.6171 112.275C73.3361 112.275 71.3831 113.759 70.4456 116.103H69.8597C70.0941 113.993 70.2503 111.454 70.2503 109.54V103.642C69.5863 103.369 68.1802 103.213 67.2037 103.213C65.5241 103.213 63.8054 103.525 62.7899 103.994C62.3212 104.814 61.8915 106.494 61.8524 107.587H64.5866V128.055C63.8445 128.328 62.868 128.719 62.3212 129.149C62.0477 129.774 61.7743 131.063 61.6962 132H72.9455C73.0627 131.219 72.9455 129.578 72.7892 128.953C72.2033 128.641 70.9925 128.367 70.2503 128.25V119.227ZM110.016 126.453C109.157 127.469 107.946 128.289 106.735 128.289C104.352 128.289 103.649 126.961 103.649 124.422V113.017C102.985 112.743 101.618 112.587 100.603 112.587C98.9231 112.587 97.1654 112.9 96.1499 113.368C95.6811 114.189 95.2515 115.868 95.2124 116.962H98.1029C97.9466 119.657 97.8685 122.938 97.8685 125.399C97.8685 131.531 100.798 132.664 104.04 132.664C107.165 132.664 108.962 131.063 110.016 129.07H110.368C110.563 130.32 110.954 131.492 111.5 132.469C113.571 132.469 116.774 132.195 118.219 131.688C118.609 130.867 118.961 129.422 118.883 128.406H116.031C115.797 127.508 115.719 126.493 115.719 125.516V113.017C115.055 112.743 113.688 112.587 112.672 112.587C110.993 112.587 109.235 112.9 108.219 113.368C107.751 114.267 107.321 115.868 107.282 116.962H110.016V126.453ZM131.792 117.704C132.847 118.173 134.605 118.563 136.245 118.563C136.519 117.626 136.675 116.22 136.675 114.97C136.675 114.501 136.636 113.993 136.597 113.603C134.488 112.665 132.183 112.275 130.035 112.275C125.191 112.275 122.34 114.657 122.34 118.134C122.34 125.789 131.636 123.836 131.636 127.391C131.636 128.641 130.816 129.188 129.371 129.188C128.511 129.188 127.457 128.914 126.754 128.524V126.375C125.387 125.907 123.902 125.75 122.262 125.75C122.027 126.532 121.871 127.821 121.871 129.07C121.871 129.852 121.949 130.594 122.066 131.18C124.098 132.273 126.48 132.664 129.097 132.664C133.433 132.664 137.183 131.023 137.183 126.336C137.183 119.071 128.004 121.063 128.004 117.235C128.004 116.103 128.707 115.517 130.074 115.517C130.738 115.517 131.363 115.712 131.792 115.946V117.704Z" fill="url(#paint0_radial)"/>
<defs>
<radialGradient id="paint0_radial" cx="0" cy="0" r="1" gradientUnits="userSpaceOnUse" gradientTransform="translate(4.85341 10.95) rotate(41.561) scale(424.649 1849.13)">
<stop stop-color="#A56DFF"/>
<stop offset="0.479235" stop-color="#007DFA"/>
<stop offset="0.729167" stop-color="#007DFA"/>
</radialGradient>
</defs>
</svg>
