<svg width="179" height="50" viewBox="0 0 179 50" fill="none" xmlns="http://www.w3.org/2000/svg">
<path d="M163 1H1V40.4105H163V1Z" stroke="#3B4147" stroke-width="1.95395" stroke-linejoin="round"/>
<path fill-rule="evenodd" clip-rule="evenodd" d="M177.337 12.7403L163 1V40.0075L177.337 49V12.7403Z" stroke="#3B4147" stroke-width="1.95395" stroke-linejoin="round"/>
<path fill-rule="evenodd" clip-rule="evenodd" d="M15.2946 49L1 40.4105H162.705L177 49H15.2946Z" stroke="#3B4147" stroke-width="1.95395" stroke-linejoin="round"/>
<path d="M13.6836 24.3049C13.8496 26.7366 15.9004 28.3186 18.9766 28.3186C22.1309 28.3186 24.1816 26.6877 24.1816 24.0803C24.1816 22.0881 23.0195 20.9163 20.0801 20.2717L18.5176 19.9299C16.5938 19.51 15.8418 18.7483 15.8418 17.635C15.8418 16.1995 17.1992 15.3401 18.957 15.3401C20.793 15.3401 22.0137 16.2874 22.1699 17.8303H23.9277C23.8496 15.4377 21.8184 13.7581 19.0059 13.7581C16.0859 13.7581 14.0352 15.3889 14.0352 17.7131C14.0352 19.7151 15.2559 20.9944 18.0781 21.6096L19.6406 21.9514C21.5938 22.3811 22.375 23.1624 22.375 24.344C22.375 25.7307 20.9883 26.7366 19.0742 26.7366C17.0527 26.7366 15.6465 25.8186 15.4414 24.3049H13.6836ZM26.5254 15.4768V17.928H25.0117V19.3245H26.5254V25.4475C26.5254 27.4006 27.248 28.1624 29.1133 28.1624C29.5137 28.1624 29.9824 28.1331 30.1875 28.0842V26.6584C30.0703 26.678 29.6797 26.7073 29.4844 26.7073C28.6152 26.7073 28.2246 26.2874 28.2246 25.3596V19.3245H30.1973V17.928H28.2246V15.4768H26.5254ZM35.168 26.8147C33.9473 26.8147 33.1367 26.1799 33.1367 25.2131C33.1367 24.2561 33.918 23.6506 35.2852 23.5627L38 23.3967V24.2268C38 25.6917 36.7695 26.8147 35.168 26.8147ZM34.7871 28.26C36.1543 28.26 37.4434 27.4983 38.0488 26.3362H38.0879V28.0842H39.6992V21.0627C39.6992 19.0413 38.1953 17.7522 35.8125 17.7522C33.4102 17.7522 31.9062 19.0999 31.7891 20.8577H33.4297C33.6445 19.8616 34.4648 19.2463 35.7734 19.2463C37.1797 19.2463 38 19.9885 38 21.2288V22.0784L35.0898 22.2444C32.7461 22.3811 31.4082 23.4749 31.4082 25.2131C31.4082 27.0393 32.7656 28.26 34.7871 28.26ZM42.707 31.8831C44.543 31.8831 45.3828 31.1702 46.252 28.7971L50.2461 17.928H48.459L45.6465 26.385H45.6172L42.8047 17.928H40.9883L44.7383 28.094L44.5039 28.8069C44.1133 29.9885 43.5859 30.4475 42.6387 30.4475C42.4238 30.4475 42.1602 30.4377 41.9746 30.3987V31.8245C42.1602 31.8635 42.502 31.8831 42.707 31.8831ZM64.6797 26.5022H57.707V21.6584H64.3184V20.0959H57.707V15.5745H64.6797V13.9924H55.9492V28.0842H64.6797V26.5022ZM66.7402 28.0842H68.4395V22.1077C68.4395 20.3889 69.4844 19.2561 71.0859 19.2561C72.6484 19.2561 73.4199 20.1545 73.4199 21.7952V28.0842H75.1191V21.4924C75.1191 19.1877 73.8301 17.7522 71.6035 17.7522C70.0312 17.7522 68.9473 18.4553 68.3809 19.5491H68.3418V17.928H66.7402V28.0842ZM77.834 15.4768V17.928H76.3203V19.3245H77.834V25.4475C77.834 27.4006 78.5566 28.1624 80.4219 28.1624C80.8223 28.1624 81.291 28.1331 81.4961 28.0842V26.6584C81.3789 26.678 80.9883 26.7073 80.793 26.7073C79.9238 26.7073 79.5332 26.2874 79.5332 25.3596V19.3245H81.5059V17.928H79.5332V15.4768H77.834ZM87.1016 19.2268C88.7031 19.2268 89.7676 20.4377 89.8066 22.137H84.2891C84.3965 20.4475 85.5098 19.2268 87.1016 19.2268ZM89.7676 25.1741C89.4844 26.1311 88.5371 26.7854 87.248 26.7854C85.4219 26.7854 84.2793 25.5061 84.2793 23.5627V23.4651H91.5645V22.8206C91.5645 19.7444 89.875 17.7522 87.1309 17.7522C84.3281 17.7522 82.5312 19.8909 82.5312 23.0452C82.5312 26.2385 84.2988 28.26 87.209 28.26C89.4258 28.26 91.1445 26.9514 91.4375 25.1741H89.7676ZM93.2832 28.0842H94.9824V21.7561C94.9824 20.3206 95.8418 19.3733 97.1602 19.3733C97.5703 19.3733 97.9316 19.4221 98.0684 19.4709V17.8206C97.9316 17.801 97.6777 17.7522 97.3848 17.7522C96.1934 17.7522 95.2559 18.4651 94.9238 19.5881H94.8848V17.928H93.2832V28.0842ZM100.002 15.4768V17.928H98.4883V19.3245H100.002V25.4475C100.002 27.4006 100.725 28.1624 102.59 28.1624C102.99 28.1624 103.459 28.1331 103.664 28.0842V26.6584C103.547 26.678 103.156 26.7073 102.961 26.7073C102.092 26.7073 101.701 26.2874 101.701 25.3596V19.3245H103.674V17.928H101.701V15.4768H100.002ZM108.645 26.8147C107.424 26.8147 106.613 26.1799 106.613 25.2131C106.613 24.2561 107.395 23.6506 108.762 23.5627L111.477 23.3967V24.2268C111.477 25.6917 110.246 26.8147 108.645 26.8147ZM108.264 28.26C109.631 28.26 110.92 27.4983 111.525 26.3362H111.564V28.0842H113.176V21.0627C113.176 19.0413 111.672 17.7522 109.289 17.7522C106.887 17.7522 105.383 19.0999 105.266 20.8577H106.906C107.121 19.8616 107.941 19.2463 109.25 19.2463C110.656 19.2463 111.477 19.9885 111.477 21.2288V22.0784L108.566 22.2444C106.223 22.3811 104.885 23.4749 104.885 25.2131C104.885 27.0393 106.242 28.26 108.264 28.26ZM115.422 28.0842H117.121V17.928H115.422V28.0842ZM116.271 16.1213C116.867 16.1213 117.336 15.6428 117.336 15.0569C117.336 14.4612 116.867 13.9924 116.271 13.9924C115.686 13.9924 115.207 14.4612 115.207 15.0569C115.207 15.6428 115.686 16.1213 116.271 16.1213ZM119.416 28.0842H121.115V22.1077C121.115 20.3889 122.16 19.2561 123.762 19.2561C125.324 19.2561 126.096 20.1545 126.096 21.7952V28.0842H127.795V21.4924C127.795 19.1877 126.506 17.7522 124.279 17.7522C122.707 17.7522 121.623 18.4553 121.057 19.5491H121.018V17.928H119.416V28.0842ZM134.035 19.2268C135.637 19.2268 136.701 20.4377 136.74 22.137H131.223C131.33 20.4475 132.443 19.2268 134.035 19.2268ZM136.701 25.1741C136.418 26.1311 135.471 26.7854 134.182 26.7854C132.355 26.7854 131.213 25.5061 131.213 23.5627V23.4651H138.498V22.8206C138.498 19.7444 136.809 17.7522 134.064 17.7522C131.262 17.7522 129.465 19.8909 129.465 23.0452C129.465 26.2385 131.232 28.26 134.143 28.26C136.359 28.26 138.078 26.9514 138.371 25.1741H136.701ZM144.064 28.26C145.529 28.26 146.691 27.5374 147.346 26.3655H147.375V28.0842H148.996V13.9924H147.297V19.5784H147.258C146.652 18.4651 145.48 17.7522 144.025 17.7522C141.467 17.7522 139.719 19.8225 139.719 23.0061C139.719 26.1897 141.477 28.26 144.064 28.26ZM144.387 19.2463C146.135 19.2463 147.307 20.7405 147.307 23.0061C147.307 25.2815 146.135 26.7659 144.387 26.7659C142.59 26.7659 141.457 25.3108 141.457 23.0061C141.457 20.7112 142.59 19.2463 144.387 19.2463Z" fill="#3B4147"/>
</svg>
