<svg width="200" height="60" viewBox="0 0 200 60" fill="none" xmlns="http://www.w3.org/2000/svg">
<path fill-rule="evenodd" clip-rule="evenodd" d="M179.732 1V47.3737H1V1H179.732ZM104.937 19.6801C103.291 19.6801 101.969 20.0546 100.973 20.8035C99.9763 21.5525 99.478 22.7586 99.478 24.422C99.478 25.9929 100.004 27.2027 101.055 28.0512L101.246 28.1972L101.012 28.563C100.492 29.3641 100.232 29.9389 100.232 30.2873C100.232 31.1756 100.553 31.8374 101.194 32.2728C99.946 33.2482 99.322 34.2845 99.322 35.3818C99.322 36.7578 99.8463 37.7071 100.895 38.2296C101.943 38.7521 103.443 39.0134 105.392 39.0134C107.342 39.0134 108.889 38.6563 110.033 37.9422C111.177 37.2281 111.749 36.1221 111.749 34.6242C111.749 33.1437 111.35 32.1204 110.553 31.5544C109.756 30.9883 108.265 30.6966 106.081 30.6792C104.989 30.6617 104.296 30.6008 104.002 30.4963C103.707 30.3918 103.56 30.1958 103.56 29.9084C103.56 29.6211 103.646 29.2509 103.82 28.7981C104.132 28.8678 104.487 28.9026 104.885 28.9026C106.775 28.9026 108.161 28.5717 109.045 27.9098C109.929 27.2479 110.371 26.0461 110.371 24.3044C110.371 23.778 110.22 23.2516 109.919 22.7252L109.799 22.5278L111.749 22.6846V19.8891L107.563 20.0197L107.147 19.9414C106.419 19.7672 105.683 19.6801 104.937 19.6801ZM103.456 33.5269L105.795 33.7098C106.801 33.7272 107.459 33.8012 107.771 33.9318C108.083 34.0625 108.239 34.3629 108.239 34.8332C108.239 35.7041 107.325 36.1395 105.496 36.1395C103.668 36.1395 102.754 35.765 102.754 35.0161C102.754 34.5516 102.939 34.1078 103.308 33.6846L103.456 33.5269ZM64.4076 19.654C62.9344 19.654 61.7299 20.0067 60.7939 20.7121C59.858 21.4175 59.3901 22.4625 59.3901 23.8472C59.3901 25.2319 59.7194 26.1942 60.378 26.7341C61.0366 27.2741 62.0375 27.6572 63.3807 27.8837C64.7239 28.1101 65.5558 28.3017 65.8764 28.4584C66.1971 28.6152 66.3574 28.859 66.3574 29.19C66.3574 29.5209 66.2057 29.7691 65.9024 29.9346C65.5991 30.1 65.0272 30.1828 64.1866 30.1828C63.3955 30.1828 62.0248 30.0593 60.0745 29.8125L59.7021 29.7647L59.5981 32.6909L60.43 32.8476C62.0592 33.1611 63.4457 33.3179 64.5896 33.3179C68.0732 33.3179 69.815 31.9071 69.815 29.0855C69.815 27.7966 69.5204 26.8648 68.9311 26.29C68.3419 25.7152 67.3496 25.3016 65.9544 25.049C64.5592 24.7964 63.6927 24.6049 63.3547 24.4742C63.0167 24.3436 62.8477 24.1085 62.8477 23.7688C62.8477 23.4292 62.9734 23.181 63.2247 23.0242C63.476 22.8675 64.0306 22.7891 64.8885 22.7891C65.696 22.7891 67.0753 22.9125 69.0265 23.1594L69.3991 23.2071L69.4511 20.3071L68.5932 20.1504C66.8253 19.8194 65.4301 19.654 64.4076 19.654ZM163.692 19.6279C161.542 19.6279 160.009 20.2288 159.09 21.4305C158.171 22.6149 157.712 24.287 157.712 26.4467C157.712 31.0275 159.705 33.3179 163.692 33.3179C167.678 33.3179 169.671 31.0275 169.671 26.4467C169.671 24.287 169.212 22.6106 168.293 21.4175C167.374 20.2244 165.841 19.6279 163.692 19.6279ZM149.159 14.9252C146.577 14.9252 144.748 15.6393 143.674 17.0675C142.599 18.4957 142.062 20.8209 142.062 24.0431C142.062 27.2654 142.577 29.6167 143.609 31.0972C144.64 32.5776 146.533 33.3179 149.289 33.3179C150.729 33.3179 152.576 33.1434 154.831 32.7944L155.32 32.717V23.4945H150.173V26.6296H151.785V30.0783L149.627 30.1828C148.05 30.1828 147.01 29.7735 146.507 28.9548C146.005 28.1362 145.753 26.7036 145.753 24.6571C145.753 22.6106 145.879 21.1649 146.13 20.3202C146.382 19.4755 146.776 18.8963 147.313 18.5828C147.85 18.2693 148.782 18.1125 150.108 18.1125C151.332 18.1125 152.877 18.209 154.743 18.4019L155.216 18.4522L155.32 15.6567L154.384 15.4738C152.513 15.108 150.771 14.9252 149.159 14.9252ZM39.6321 19.6279C35.8018 19.6279 33.8867 21.9705 33.8867 26.6558C33.8867 29.0071 34.3286 30.7053 35.2125 31.7503C36.0964 32.7954 37.5176 33.3179 39.4761 33.3179C40.9414 33.3179 42.5643 33.1164 44.3447 32.7133L44.8836 32.5864L44.8316 29.9999L44.1036 30.0783C42.8384 30.1828 41.3999 30.235 39.7881 30.235C39.0255 30.235 38.4405 30.0565 38.0333 29.6994C37.663 29.3748 37.4539 28.8667 37.4059 28.1751L37.3963 27.9621H45.0395L45.2995 25.5323C45.2995 21.596 43.4104 19.6279 39.6321 19.6279ZM118.95 19.6279C115.12 19.6279 113.205 21.9705 113.205 26.6558C113.205 29.0071 113.647 30.7053 114.531 31.7503C115.414 32.7954 116.836 33.3179 118.794 33.3179C120.259 33.3179 121.882 33.1164 123.663 32.7133L124.202 32.5864L124.15 29.9999L123.422 30.0783C122.156 30.1828 120.718 30.235 119.106 30.235C118.343 30.235 117.759 30.0565 117.351 29.6994C116.981 29.3748 116.772 28.8667 116.724 28.1751L116.714 27.9621H124.358L124.617 25.5323C124.617 21.596 122.728 19.6279 118.95 19.6279ZM52.1368 19.654C50.6636 19.654 49.4591 20.0067 48.5232 20.7121C47.5873 21.4175 47.1193 22.4625 47.1193 23.8472C47.1193 25.2319 47.4486 26.1942 48.1072 26.7341C48.7658 27.2741 49.7667 27.6572 51.1099 27.8837C52.4531 28.1101 53.285 28.3017 53.6057 28.4584C53.9263 28.6152 54.0866 28.859 54.0866 29.19C54.0866 29.5209 53.935 29.7691 53.6317 29.9346C53.3284 30.1 52.7564 30.1828 51.9158 30.1828C51.1247 30.1828 49.754 30.0593 47.8038 29.8125L47.4313 29.7647L47.3273 32.6909L48.1592 32.8476C49.7884 33.1611 51.1749 33.3179 52.3188 33.3179C55.8025 33.3179 57.5443 31.9071 57.5443 29.0855C57.5443 27.7966 57.2496 26.8648 56.6604 26.29C56.0711 25.7152 55.0789 25.3016 53.6837 25.049C52.2885 24.7964 51.4219 24.6049 51.0839 24.4742C50.746 24.3436 50.577 24.1085 50.577 23.7688C50.577 23.4292 50.7026 23.181 50.9539 23.0242C51.2052 22.8675 51.7599 22.7891 52.6178 22.7891C53.4252 22.7891 54.8046 22.9125 56.7558 23.1594L57.1283 23.2071L57.1803 20.3071L56.3224 20.1504C54.5546 19.8194 53.1594 19.654 52.1368 19.654ZM77.4323 19.6279C73.602 19.6279 71.6868 21.9705 71.6868 26.6558C71.6868 29.0071 72.1288 30.7053 73.0127 31.7503C73.8966 32.7954 75.3178 33.3179 77.2763 33.3179C78.7416 33.3179 80.3644 33.1164 82.1449 32.7133L82.6837 32.5864L82.6317 29.9999L81.9038 30.0783C80.6386 30.1828 79.2001 30.235 77.5882 30.235C76.8257 30.235 76.2407 30.0565 75.8334 29.6994C75.4632 29.3748 75.254 28.8667 75.206 28.1751L75.1965 27.9621H82.8397L83.0997 25.5323C83.0997 21.596 81.2105 19.6279 77.4323 19.6279ZM92.3028 19.6279C91.3909 19.6279 90.3977 19.9247 89.3234 20.5183L89.0531 20.6729V19.9414H85.5954V33.0044H89.0791V23.2332L89.391 23.1287C90.0496 22.8849 90.7343 22.763 91.4448 22.763C92.2248 22.763 92.7447 23.0286 93.0047 23.5598C93.243 24.0468 93.3721 24.7789 93.3919 25.7561L93.3946 26.0287V33.0044H96.8783V25.9242C96.8783 23.7819 96.549 22.1969 95.8904 21.1693C95.2318 20.1417 94.0359 19.6279 92.3028 19.6279ZM134.73 19.6279C133.533 19.8654 132.278 20.3548 130.966 21.0961L130.571 21.326V19.9414H127.113V33.0044H130.597V24.2522L131.117 24.0693C132.01 23.7906 133.061 23.5188 134.27 23.2539L134.73 23.1549V19.6279ZM18.8082 15.2387H12.6988V33.0044H16.2865V19.2621H16.6764L20.1341 32.2206H23.7217L27.1793 19.2621H27.5693V33.0044H31.1569V15.2387H25.0476L21.9279 28.1972L18.8082 15.2387ZM163.692 22.6062C164.61 22.6062 165.247 22.911 165.602 23.5206C165.958 24.1302 166.135 25.1056 166.135 26.4467C166.135 27.7879 165.958 28.772 165.602 29.399C165.247 30.026 164.61 30.3395 163.692 30.3395C162.773 30.3395 162.132 30.026 161.768 29.399C161.421 28.772 161.248 27.7879 161.248 26.4467C161.248 25.1056 161.425 24.1302 161.781 23.5206C162.136 22.911 162.773 22.6062 163.692 22.6062ZM104.95 22.3972C106.276 22.3972 106.939 23.0373 106.939 24.3175C106.939 25.5976 106.276 26.2377 104.95 26.2377C103.625 26.2377 102.962 25.602 102.962 24.3305C102.962 23.0417 103.625 22.3972 104.95 22.3972ZM39.6451 22.5017C40.4683 22.5017 41.0446 22.7064 41.3739 23.1157C41.7032 23.525 41.8679 24.2522 41.8679 25.2972H37.3703C37.3876 24.287 37.5653 23.5685 37.9033 23.1418C38.2412 22.7151 38.8218 22.5017 39.6451 22.5017ZM77.4453 22.5017C78.2685 22.5017 78.8448 22.7064 79.1741 23.1157C79.5034 23.525 79.668 24.2522 79.668 25.2972H75.1705C75.1878 24.287 75.3655 23.5685 75.7034 23.1418C76.0414 22.7151 76.622 22.5017 77.4453 22.5017ZM118.963 22.5017C119.786 22.5017 120.363 22.7064 120.692 23.1157C121.021 23.525 121.186 24.2522 121.186 25.2972H116.688C116.706 24.287 116.883 23.5685 117.221 23.1418C117.559 22.7151 118.14 22.5017 118.963 22.5017Z" fill="#3B4147"/>
<path d="M180.112 1H1V47.2434H180.112V1Z" stroke="#3B4147" stroke-width="1.95395" stroke-linejoin="round"/>
<path fill-rule="evenodd" clip-rule="evenodd" d="M199 16.3059L180.112 1V47.2434L199 58.9671V16.3059Z" stroke="#3B4147" stroke-width="1.95395" stroke-linejoin="round"/>
<path fill-rule="evenodd" clip-rule="evenodd" d="M19.8881 58.9671L0.999996 47.2434H180.112L199 58.9671H19.8881Z" stroke="#3B4147" stroke-width="1.95395" stroke-linejoin="round"/>
</svg>
